<?xml version="1.0" standalone="no"?>
<!DOCTYPE svg PUBLIC "-//W3C//DTD SVG 20010904//EN"
 "http://www.w3.org/TR/2001/REC-SVG-20010904/DTD/svg10.dtd">
<svg version="1.0" xmlns="http://www.w3.org/2000/svg"
 width="800.000000pt" height="800.000000pt" viewBox="0 0 800.000000 800.000000"
 preserveAspectRatio="xMidYMid meet">
<metadata>
Created by potrace 1.14, written by Peter Selinger 2001-2017
</metadata>
<g transform="translate(0.000000,800.000000) scale(0.100000,-0.100000)"
fill="#000000" stroke="none">
<path d="M3887 7874 c-1 -1 -54 -4 -117 -8 -63 -3 -131 -8 -150 -10 -19 -3
-60 -7 -90 -10 -30 -4 -68 -9 -85 -11 -16 -3 -43 -7 -60 -10 -16 -2 -48 -7
-70 -11 -22 -3 -60 -10 -85 -16 -25 -5 -56 -12 -70 -14 -95 -18 -453 -124
-535 -159 -318 -134 -456 -201 -640 -313 -89 -54 -256 -166 -307 -206 -14 -12
-41 -32 -59 -46 -155 -116 -420 -368 -563 -532 -264 -304 -517 -717 -656
-1068 -23 -58 -45 -114 -51 -125 -14 -32 -78 -232 -105 -330 -40 -150 -79
-345 -100 -500 -3 -27 -8 -57 -9 -66 -20 -105 -28 -631 -12 -799 41 -428 142
-824 310 -1215 23 -53 160 -327 180 -360 7 -10 30 -49 51 -85 248 -416 600
-806 996 -1105 36 -27 81 -61 100 -75 19 -15 46 -33 60 -40 14 -7 27 -16 30
-20 10 -14 267 -164 384 -225 316 -162 715 -297 1066 -360 113 -21 286 -43
395 -52 183 -14 621 -7 736 12 13 2 42 6 64 9 22 2 69 9 105 15 36 6 83 13
105 16 22 4 60 11 85 17 25 5 52 11 60 13 377 81 863 278 1168 471 29 19 56
34 61 34 5 0 11 3 13 8 2 4 37 29 78 57 76 50 256 183 281 207 8 7 28 24 44
36 114 88 357 329 474 472 30 36 57 67 61 70 12 10 147 195 217 300 354 531
573 1160 630 1810 16 177 9 609 -12 790 -29 248 -90 521 -177 785 -10 33 -23
69 -28 80 -4 11 -27 70 -50 130 -24 61 -77 180 -120 265 -87 175 -103 205
-195 354 -77 126 -249 357 -361 486 -60 70 -322 329 -388 385 -33 28 -67 57
-76 65 -8 8 -43 35 -75 59 -33 25 -62 48 -65 51 -10 13 -199 140 -304 204
-156 97 -384 212 -571 290 -162 66 -541 180 -666 200 -20 3 -42 8 -50 10 -8 3
-32 8 -54 11 -38 5 -62 9 -130 20 -16 3 -57 7 -90 11 -33 3 -71 7 -85 10 -59
9 -484 25 -493 18z"/>
</g>
</svg>
