<svg xmlns="http://www.w3.org/2000/svg" xmlns:xlink="http://www.w3.org/1999/xlink" viewBox="0 0 123.45 123.27"><defs><style>.cls-1{isolation:isolate;}.cls-2,.cls-35,.cls-36,.cls-37,.cls-38,.cls-39,.cls-40,.cls-41,.cls-42,.cls-43,.cls-44,.cls-45,.cls-46,.cls-47,.cls-48,.cls-49,.cls-50,.cls-51,.cls-52,.cls-53,.cls-54,.cls-55,.cls-56,.cls-57,.cls-58,.cls-59,.cls-60,.cls-61,.cls-62,.cls-63,.cls-64,.cls-65,.cls-66,.cls-67{mix-blend-mode:screen;}.cls-3{fill:url(#linear-gradient);}.cls-4{fill:url(#linear-gradient-2);}.cls-5{fill:url(#linear-gradient-3);}.cls-6{fill:url(#linear-gradient-4);}.cls-7{fill:url(#linear-gradient-5);}.cls-8{fill:url(#linear-gradient-6);}.cls-9{fill:url(#linear-gradient-7);}.cls-10{fill:url(#linear-gradient-8);}.cls-11{fill:url(#linear-gradient-9);}.cls-12{fill:url(#linear-gradient-10);}.cls-13{fill:url(#linear-gradient-11);}.cls-14{fill:url(#linear-gradient-12);}.cls-15{fill:url(#linear-gradient-13);}.cls-16{fill:url(#linear-gradient-14);}.cls-17{fill:url(#linear-gradient-15);}.cls-18{fill:url(#linear-gradient-16);}.cls-19{fill:url(#linear-gradient-17);}.cls-20{fill:url(#linear-gradient-18);}.cls-21{fill:url(#linear-gradient-19);}.cls-22{fill:url(#linear-gradient-20);}.cls-23{fill:url(#linear-gradient-21);}.cls-24{fill:url(#linear-gradient-22);}.cls-25{fill:url(#linear-gradient-23);}.cls-26{fill:url(#linear-gradient-24);}.cls-27{fill:url(#linear-gradient-25);}.cls-28{fill:url(#linear-gradient-26);}.cls-29{fill:url(#linear-gradient-27);}.cls-30{fill:url(#linear-gradient-28);}.cls-31{fill:url(#linear-gradient-29);}.cls-32{fill:url(#linear-gradient-30);}.cls-33{fill:url(#linear-gradient-31);}.cls-34{fill:url(#linear-gradient-32);}.cls-35{fill:url(#linear-gradient-33);}.cls-36{fill:url(#linear-gradient-34);}.cls-37{fill:url(#linear-gradient-35);}.cls-38{fill:url(#linear-gradient-36);}.cls-39{fill:url(#linear-gradient-37);}.cls-40{fill:url(#linear-gradient-38);}.cls-41{fill:url(#linear-gradient-39);}.cls-42{fill:url(#linear-gradient-40);}.cls-43{fill:url(#linear-gradient-41);}.cls-44{fill:url(#linear-gradient-42);}.cls-45{fill:url(#linear-gradient-43);}.cls-46{fill:url(#linear-gradient-44);}.cls-47{fill:url(#linear-gradient-45);}.cls-48{fill:url(#linear-gradient-46);}.cls-49{fill:url(#linear-gradient-47);}.cls-50{fill:url(#linear-gradient-48);}.cls-51{fill:url(#linear-gradient-49);}.cls-52{fill:url(#linear-gradient-50);}.cls-53{fill:url(#linear-gradient-51);}.cls-54{fill:url(#linear-gradient-52);}.cls-55{fill:url(#linear-gradient-53);}.cls-56{fill:url(#linear-gradient-54);}.cls-57{fill:url(#linear-gradient-55);}.cls-58{fill:url(#linear-gradient-56);}.cls-59{fill:url(#linear-gradient-57);}.cls-60{fill:url(#linear-gradient-58);}.cls-61{fill:url(#linear-gradient-59);}.cls-62{fill:url(#linear-gradient-60);}.cls-63{fill:url(#linear-gradient-61);}.cls-64{fill:url(#linear-gradient-62);}.cls-65{fill:url(#linear-gradient-63);}.cls-66{fill:url(#linear-gradient-64);}.cls-67{fill:url(#linear-gradient-65);}</style><linearGradient id="linear-gradient" x1="-5366.07" y1="-694.21" x2="-5244.63" y2="-694.21" gradientTransform="matrix(0.53, 0.81, -0.76, 0.74, 2358.13, 4849.88)" gradientUnits="userSpaceOnUse"><stop offset="0" stop-color="#70cddd"/><stop offset="0.01" stop-color="#6cc4d6"/><stop offset="0.09" stop-color="#5693b3"/><stop offset="0.17" stop-color="#446a96"/><stop offset="0.25" stop-color="#354b7f"/><stop offset="0.32" stop-color="#2b346f"/><stop offset="0.39" stop-color="#252765"/><stop offset="0.46" stop-color="#232262"/><stop offset="0.57" stop-color="#22215e"/><stop offset="0.68" stop-color="#1e1d53"/><stop offset="0.79" stop-color="#17163f"/><stop offset="0.89" stop-color="#0d0d24"/><stop offset="1" stop-color="#010102"/><stop offset="1" stop-color="#010101"/></linearGradient><linearGradient id="linear-gradient-2" x1="-5368.15" y1="-701.28" x2="-5235.48" y2="-701.28" xlink:href="#linear-gradient"/><linearGradient id="linear-gradient-3" x1="-5363.13" y1="-698.61" x2="-5246.69" y2="-698.61" xlink:href="#linear-gradient"/><linearGradient id="linear-gradient-4" x1="-5368.02" y1="-688.24" x2="-5243.16" y2="-688.24" xlink:href="#linear-gradient"/><linearGradient id="linear-gradient-5" x1="-5371.76" y1="-663.56" x2="-5239.88" y2="-663.56" xlink:href="#linear-gradient"/><linearGradient id="linear-gradient-6" x1="-5369.48" y1="-680.95" x2="-5241.98" y2="-680.95" xlink:href="#linear-gradient"/><linearGradient id="linear-gradient-7" x1="-5370.69" y1="-672.62" x2="-5240.92" y2="-672.62" xlink:href="#linear-gradient"/><linearGradient id="linear-gradient-8" x1="-5372.8" y1="-652.81" x2="-5238.78" y2="-652.81" xlink:href="#linear-gradient"/><linearGradient id="linear-gradient-9" x1="-5381.92" y1="-702.2" x2="-5226.14" y2="-702.2" xlink:href="#linear-gradient"/><linearGradient id="linear-gradient-10" x1="-5373.06" y1="-642.44" x2="-5243.1" y2="-642.44" xlink:href="#linear-gradient"/><linearGradient id="linear-gradient-11" x1="-5373.61" y1="-689.25" x2="-5237.85" y2="-689.25" xlink:href="#linear-gradient"/><linearGradient id="linear-gradient-12" x1="-5371.51" y1="-673.96" x2="-5240.13" y2="-673.96" xlink:href="#linear-gradient"/><linearGradient id="linear-gradient-13" x1="-5372.55" y1="-682.16" x2="-5239.06" y2="-682.16" xlink:href="#linear-gradient"/><linearGradient id="linear-gradient-14" x1="-5374.8" y1="-694.99" x2="-5236.39" y2="-694.99" xlink:href="#linear-gradient"/><linearGradient id="linear-gradient-15" x1="-5378.33" y1="-701.55" x2="-5231.51" y2="-701.55" xlink:href="#linear-gradient"/><linearGradient id="linear-gradient-16" x1="-5376.26" y1="-699.14" x2="-5234.45" y2="-699.14" xlink:href="#linear-gradient"/><linearGradient id="linear-gradient-17" x1="-5375.31" y1="-654.62" x2="-5241.28" y2="-654.62" xlink:href="#linear-gradient"/><linearGradient id="linear-gradient-18" x1="-5370.92" y1="-619.19" x2="-5246.06" y2="-619.19" xlink:href="#linear-gradient"/><linearGradient id="linear-gradient-19" x1="-5372.1" y1="-626.48" x2="-5244.6" y2="-626.48" xlink:href="#linear-gradient"/><linearGradient id="linear-gradient-20" x1="-5369.45" y1="-613.22" x2="-5248" y2="-613.22" xlink:href="#linear-gradient"/><linearGradient id="linear-gradient-21" x1="-5373.17" y1="-634.81" x2="-5243.4" y2="-634.81" xlink:href="#linear-gradient"/><linearGradient id="linear-gradient-22" x1="-5373.95" y1="-633.47" x2="-5242.58" y2="-633.47" xlink:href="#linear-gradient"/><linearGradient id="linear-gradient-23" x1="-5374.21" y1="-643.87" x2="-5242.32" y2="-643.87" xlink:href="#linear-gradient"/><linearGradient id="linear-gradient-24" x1="-5367.38" y1="-608.82" x2="-5250.94" y2="-608.82" xlink:href="#linear-gradient"/><linearGradient id="linear-gradient-25" x1="-5370.98" y1="-664.99" x2="-5241.02" y2="-664.99" xlink:href="#linear-gradient"/><linearGradient id="linear-gradient-26" x1="-5376.23" y1="-618.18" x2="-5240.47" y2="-618.18" xlink:href="#linear-gradient"/><linearGradient id="linear-gradient-27" x1="-5375.03" y1="-625.27" x2="-5241.54" y2="-625.27" xlink:href="#linear-gradient"/><linearGradient id="linear-gradient-28" x1="-5377.69" y1="-612.44" x2="-5239.29" y2="-612.44" xlink:href="#linear-gradient"/><linearGradient id="linear-gradient-29" x1="-5378.6" y1="-606.15" x2="-5245.93" y2="-606.15" xlink:href="#linear-gradient"/><linearGradient id="linear-gradient-30" x1="-5387.96" y1="-605.23" x2="-5232.18" y2="-605.23" xlink:href="#linear-gradient"/><linearGradient id="linear-gradient-31" x1="-5382.58" y1="-605.88" x2="-5235.76" y2="-605.88" xlink:href="#linear-gradient"/><linearGradient id="linear-gradient-32" x1="-5379.64" y1="-608.29" x2="-5237.83" y2="-608.29" xlink:href="#linear-gradient"/><linearGradient id="linear-gradient-33" x1="-6315.25" y1="-1272.04" x2="-6217.69" y2="-1388.31" gradientTransform="matrix(0.53, 0.81, -0.76, 0.74, 2357.94, 6079.96)" gradientUnits="userSpaceOnUse"><stop offset="0" stop-color="#70cddd"/><stop offset="0.29" stop-color="#232262"/><stop offset="0.54" stop-color="#15153b"/><stop offset="0.84" stop-color="#070711"/><stop offset="1" stop-color="#010101"/></linearGradient><linearGradient id="linear-gradient-34" x1="-6309.3" y1="-1263.56" x2="-6207.52" y2="-1384.85" xlink:href="#linear-gradient-33"/><linearGradient id="linear-gradient-35" x1="-6312.96" y1="-1268.12" x2="-6212.95" y2="-1387.31" xlink:href="#linear-gradient-33"/><linearGradient id="linear-gradient-36" x1="-6315.76" y1="-1275.57" x2="-6222.13" y2="-1387.15" xlink:href="#linear-gradient-33"/><linearGradient id="linear-gradient-37" x1="-6322.89" y1="-1264.6" x2="-6210.72" y2="-1398.28" xlink:href="#linear-gradient-33"/><linearGradient id="linear-gradient-38" x1="-6323.16" y1="-1268.29" x2="-6218.2" y2="-1393.39" xlink:href="#linear-gradient-33"/><linearGradient id="linear-gradient-39" x1="-6326.53" y1="-1263.54" x2="-6210.66" y2="-1401.63" xlink:href="#linear-gradient-33"/><linearGradient id="linear-gradient-40" x1="-6318.76" y1="-1263.67" x2="-6208.93" y2="-1394.57" xlink:href="#linear-gradient-33"/><linearGradient id="linear-gradient-41" x1="-6304.6" y1="-1258.36" x2="-6201.38" y2="-1381.36" xlink:href="#linear-gradient-33"/><linearGradient id="linear-gradient-42" x1="-6313.83" y1="-1261.35" x2="-6205.72" y2="-1390.2" xlink:href="#linear-gradient-33"/><linearGradient id="linear-gradient-43" x1="-6276" y1="-1235.96" x2="-6171.81" y2="-1360.13" xlink:href="#linear-gradient-33"/><linearGradient id="linear-gradient-44" x1="-6264.9" y1="-1224.29" x2="-6158.2" y2="-1351.45" xlink:href="#linear-gradient-33"/><linearGradient id="linear-gradient-45" x1="-6270.16" y1="-1229.88" x2="-6164.73" y2="-1355.52" xlink:href="#linear-gradient-33"/><linearGradient id="linear-gradient-46" x1="-6285.38" y1="-1239.61" x2="-6179.04" y2="-1366.33" xlink:href="#linear-gradient-33"/><linearGradient id="linear-gradient-47" x1="-6299.12" y1="-1252.59" x2="-6194.63" y2="-1377.12" xlink:href="#linear-gradient-33"/><linearGradient id="linear-gradient-48" x1="-6293.15" y1="-1246.39" x2="-6187.41" y2="-1372.4" xlink:href="#linear-gradient-33"/><linearGradient id="linear-gradient-49" x1="-6257.17" y1="-1215.1" x2="-6147.34" y2="-1346" xlink:href="#linear-gradient-33"/><linearGradient id="linear-gradient-50" x1="-6244.98" y1="-1221.3" x2="-6151.35" y2="-1332.88" xlink:href="#linear-gradient-33"/><linearGradient id="linear-gradient-51" x1="-6248.2" y1="-1215.92" x2="-6143.24" y2="-1341.01" xlink:href="#linear-gradient-33"/><linearGradient id="linear-gradient-52" x1="-6249.18" y1="-1220.43" x2="-6151.61" y2="-1336.71" xlink:href="#linear-gradient-33"/><linearGradient id="linear-gradient-53" x1="-6255.05" y1="-1208.49" x2="-6139.18" y2="-1346.58" xlink:href="#linear-gradient-33"/><linearGradient id="linear-gradient-54" x1="-6308.09" y1="-1257.98" x2="-6201.39" y2="-1385.14" xlink:href="#linear-gradient-33"/><linearGradient id="linear-gradient-55" x1="-6255.22" y1="-1211.56" x2="-6143.05" y2="-1345.24" xlink:href="#linear-gradient-33"/><linearGradient id="linear-gradient-56" x1="-6253.77" y1="-1221.62" x2="-6153.76" y2="-1340.81" xlink:href="#linear-gradient-33"/><linearGradient id="linear-gradient-57" x1="-6260.49" y1="-1219.34" x2="-6152.37" y2="-1348.19" xlink:href="#linear-gradient-33"/><linearGradient id="linear-gradient-58" x1="-6294.64" y1="-1249.11" x2="-6190.46" y2="-1373.28" xlink:href="#linear-gradient-33"/><linearGradient id="linear-gradient-59" x1="-6301.64" y1="-1253.81" x2="-6196.21" y2="-1379.46" xlink:href="#linear-gradient-33"/><linearGradient id="linear-gradient-60" x1="-6287.27" y1="-1243.07" x2="-6180.93" y2="-1369.8" xlink:href="#linear-gradient-33"/><linearGradient id="linear-gradient-61" x1="-6259.08" y1="-1224.21" x2="-6157.3" y2="-1345.5" xlink:href="#linear-gradient-33"/><linearGradient id="linear-gradient-62" x1="-6265.13" y1="-1227.81" x2="-6161.91" y2="-1350.82" xlink:href="#linear-gradient-33"/><linearGradient id="linear-gradient-63" x1="-6271.8" y1="-1232.15" x2="-6167.31" y2="-1356.68" xlink:href="#linear-gradient-33"/><linearGradient id="linear-gradient-64" x1="-6278.94" y1="-1236.96" x2="-6173.21" y2="-1362.97" xlink:href="#linear-gradient-33"/><linearGradient id="linear-gradient-65" x1="2377.64" y1="2150.27" x2="2345.64" y2="2184.49" gradientTransform="matrix(-0.31, -0.97, -0.87, 0.5, 2672.38, 1278.55)" gradientUnits="userSpaceOnUse"><stop offset="0" stop-color="#70cddd"/><stop offset="1" stop-color="#232262"/></linearGradient></defs><g class="cls-1"><g id="Layer_1" data-name="Layer 1"><g class="cls-2"><path class="cls-3" d="M73.85,25.53a36.05,36.05,0,0,1,5.06,2L90.23,6.46a60.34,60.34,0,0,0-9.36-3.75Z"/><path class="cls-4" d="M86.69,32.67a39.63,39.63,0,0,1,3.85,3.82L109,21.2a59.55,59.55,0,0,0-7.13-7.08Z"/><path class="cls-5" d="M80.64,28.46a36.94,36.94,0,0,1,4.54,3l15.18-18.55A59.29,59.29,0,0,0,92,7.37Z"/><path class="cls-6" d="M66.61,24A37.88,37.88,0,0,1,72,25L79,2.16A61.92,61.92,0,0,0,69.05.32Z"/><path class="cls-7" d="M44.87,28A39.37,39.37,0,0,1,50,25.83L43.16,3.18a61.22,61.22,0,0,0-9.4,4Z"/><path class="cls-8" d="M59.17,23.88a37.15,37.15,0,0,1,5.48-.06L67.1.15A62.44,62.44,0,0,0,57,.27Z"/><path class="cls-9" d="M51.83,25.22a38.67,38.67,0,0,1,5.38-1.12L55,.49A61.49,61.49,0,0,0,45,2.58Z"/><path class="cls-10" d="M38.57,32a40,40,0,0,1,4.57-3.1L32,8.12a64.62,64.62,0,0,0-8.46,5.74Z"/><path class="cls-11" d="M91.78,38a36.46,36.46,0,0,1,3,4.5l21-11.46a60.18,60.18,0,0,0-5.6-8.34Z"/><path class="cls-12" d="M33.15,37.21a37.88,37.88,0,0,1,3.9-3.91l-15-18.17a64.09,64.09,0,0,0-7.22,7.24Z"/><path class="cls-13" d="M99.35,65.85a36.64,36.64,0,0,1-1.09,5.38L121,77.84a63,63,0,0,0,2-10Z"/><path class="cls-14" d="M115.55,90.88,94.62,79.94a38.26,38.26,0,0,1-3.06,4.6l18.32,14.83A62.74,62.74,0,0,0,115.55,90.88Z"/><path class="cls-15" d="M97.68,73.12a38.61,38.61,0,0,1-2.11,5.08l20.92,10.94a63.17,63.17,0,0,0,3.92-9.41Z"/><path class="cls-16" d="M99.59,58.42a38.55,38.55,0,0,1,0,5.48l23.66,2a61.19,61.19,0,0,0,.06-10.13Z"/><path class="cls-17" d="M95.73,44.22a37.74,37.74,0,0,1,2.07,5l22.8-7.18a60,60,0,0,0-3.83-9.31Z"/><path class="cls-18" d="M98.37,51.12a37.56,37.56,0,0,1,1,5.36l23.68-2.63a60,60,0,0,0-1.91-9.91Z"/><path class="cls-19" d="M84.88,91.24a40,40,0,0,1-4.57,3.1l11.11,20.81a64.62,64.62,0,0,0,8.46-5.74Z"/><path class="cls-20" d="M56.84,99.29a39.34,39.34,0,0,1-5.37-1l-7,22.82A61.92,61.92,0,0,0,54.4,123Z"/><path class="cls-21" d="M64.28,99.39a37.15,37.15,0,0,1-5.48.06l-2.45,23.67A62.44,62.44,0,0,0,66.49,123Z"/><path class="cls-22" d="M49.6,97.74a36.05,36.05,0,0,1-5.06-2L33.22,116.81a60.34,60.34,0,0,0,9.36,3.75Z"/><path class="cls-23" d="M71.62,98.05a38.8,38.8,0,0,1-5.39,1.12l2.22,23.61a61.49,61.49,0,0,0,10-2.09Z"/><path class="cls-24" d="M28.83,43.33a37.1,37.1,0,0,1,3.06-4.6L13.57,23.9A62.74,62.74,0,0,0,7.9,32.39Z"/><path class="cls-25" d="M78.58,95.3a40,40,0,0,1-5.08,2.14l6.79,22.65a61.64,61.64,0,0,0,9.4-4Z"/><path class="cls-26" d="M42.81,94.81a36.94,36.94,0,0,1-4.54-3L23.09,110.38a59.29,59.29,0,0,0,8.4,5.52Z"/><path class="cls-27" d="M90.3,86.06A37.88,37.88,0,0,1,86.4,90l15,18.17a63.17,63.17,0,0,0,7.21-7.24Z"/><path class="cls-28" d="M24.1,57.42A36.64,36.64,0,0,1,25.19,52L2.46,45.43a61.92,61.92,0,0,0-2,10Z"/><path class="cls-29" d="M25.77,50.15a38.61,38.61,0,0,1,2.11-5.08L7,34.13A63.17,63.17,0,0,0,3,43.54Z"/><path class="cls-30" d="M23.86,64.85a37.12,37.12,0,0,1,0-5.48l-23.66-2A61.19,61.19,0,0,0,.18,67.47Z"/><path class="cls-31" d="M36.76,90.6a38.54,38.54,0,0,1-3.85-3.82L14.45,102.07a59.55,59.55,0,0,0,7.13,7.08Z"/><path class="cls-32" d="M31.67,85.28a36.67,36.67,0,0,1-3-4.52l-21,11.47a60.18,60.18,0,0,0,5.6,8.34Z"/><path class="cls-33" d="M27.72,79.05a36.46,36.46,0,0,1-2.07-5L2.85,81.2a60.4,60.4,0,0,0,3.83,9.31Z"/><path class="cls-34" d="M25.08,72.15a37.56,37.56,0,0,1-1-5.36L.37,69.42a60.2,60.2,0,0,0,1.91,9.91Z"/><path class="cls-35" d="M73.85,25.53a36.05,36.05,0,0,1,5.06,2L90.23,6.46a60.34,60.34,0,0,0-9.36-3.75Z"/><path class="cls-36" d="M86.69,32.67a39.63,39.63,0,0,1,3.85,3.82L109,21.2a59.55,59.55,0,0,0-7.13-7.08Z"/><path class="cls-37" d="M80.64,28.46a36.94,36.94,0,0,1,4.54,3l15.18-18.55A59.29,59.29,0,0,0,92,7.37Z"/><path class="cls-38" d="M66.61,24A37.88,37.88,0,0,1,72,25L79,2.16A61.92,61.92,0,0,0,69.05.32Z"/><path class="cls-39" d="M44.87,28A39.37,39.37,0,0,1,50,25.83L43.16,3.18a61.22,61.22,0,0,0-9.4,4Z"/><path class="cls-40" d="M59.17,23.88a37.15,37.15,0,0,1,5.48-.06L67.1.15A62.44,62.44,0,0,0,57,.27Z"/><path class="cls-41" d="M51.83,25.22a38.67,38.67,0,0,1,5.38-1.12L55,.49A61.49,61.49,0,0,0,45,2.58Z"/><path class="cls-42" d="M38.57,32a40,40,0,0,1,4.57-3.1L32,8.12a64.62,64.62,0,0,0-8.46,5.74Z"/><path class="cls-43" d="M91.78,38a36.46,36.46,0,0,1,3,4.5l21-11.46a60.18,60.18,0,0,0-5.6-8.34Z"/><path class="cls-44" d="M33.15,37.21a37.88,37.88,0,0,1,3.9-3.91l-15-18.17a64.09,64.09,0,0,0-7.22,7.24Z"/><path class="cls-45" d="M99.35,65.85a36.64,36.64,0,0,1-1.09,5.38L121,77.84a63,63,0,0,0,2-10Z"/><path class="cls-46" d="M115.55,90.88,94.62,79.94a38.26,38.26,0,0,1-3.06,4.6l18.32,14.83A62.74,62.74,0,0,0,115.55,90.88Z"/><path class="cls-47" d="M97.68,73.12a38.61,38.61,0,0,1-2.11,5.08l20.92,10.94a63.17,63.17,0,0,0,3.92-9.41Z"/><path class="cls-48" d="M99.59,58.42a38.55,38.55,0,0,1,0,5.48l23.66,2a61.19,61.19,0,0,0,.06-10.13Z"/><path class="cls-49" d="M95.73,44.22a37.74,37.74,0,0,1,2.07,5l22.8-7.18a60,60,0,0,0-3.83-9.31Z"/><path class="cls-50" d="M98.37,51.12a37.56,37.56,0,0,1,1,5.36l23.68-2.63a60,60,0,0,0-1.91-9.91Z"/><path class="cls-51" d="M84.88,91.24a40,40,0,0,1-4.57,3.1l11.11,20.81a64.62,64.62,0,0,0,8.46-5.74Z"/><path class="cls-52" d="M56.84,99.29a39.34,39.34,0,0,1-5.37-1l-7,22.82A61.92,61.92,0,0,0,54.4,123Z"/><path class="cls-53" d="M64.28,99.39a37.15,37.15,0,0,1-5.48.06l-2.45,23.67A62.44,62.44,0,0,0,66.49,123Z"/><path class="cls-54" d="M49.6,97.74a36.05,36.05,0,0,1-5.06-2L33.22,116.81a60.34,60.34,0,0,0,9.36,3.75Z"/><path class="cls-55" d="M71.62,98.05a38.8,38.8,0,0,1-5.39,1.12l2.22,23.61a61.49,61.49,0,0,0,10-2.09Z"/><path class="cls-56" d="M28.83,43.33a37.1,37.1,0,0,1,3.06-4.6L13.57,23.9A62.74,62.74,0,0,0,7.9,32.39Z"/><path class="cls-57" d="M78.58,95.3a40,40,0,0,1-5.08,2.14l6.79,22.65a61.64,61.64,0,0,0,9.4-4Z"/><path class="cls-58" d="M42.81,94.81a36.94,36.94,0,0,1-4.54-3L23.09,110.38a59.29,59.29,0,0,0,8.4,5.52Z"/><path class="cls-59" d="M90.3,86.06A37.88,37.88,0,0,1,86.4,90l15,18.17a63.17,63.17,0,0,0,7.21-7.24Z"/><path class="cls-60" d="M24.1,57.42A36.64,36.64,0,0,1,25.19,52L2.46,45.43a61.92,61.92,0,0,0-2,10Z"/><path class="cls-61" d="M25.77,50.15a38.61,38.61,0,0,1,2.11-5.08L7,34.13A63.17,63.17,0,0,0,3,43.54Z"/><path class="cls-62" d="M23.86,64.85a37.12,37.12,0,0,1,0-5.48l-23.66-2A61.19,61.19,0,0,0,.18,67.47Z"/><path class="cls-63" d="M36.76,90.6a38.54,38.54,0,0,1-3.85-3.82L14.45,102.07a59.55,59.55,0,0,0,7.13,7.08Z"/><path class="cls-64" d="M31.67,85.28a36.67,36.67,0,0,1-3-4.52l-21,11.47a60.18,60.18,0,0,0,5.6,8.34Z"/><path class="cls-65" d="M27.72,79.05a36.46,36.46,0,0,1-2.07-5L2.85,81.2a60.4,60.4,0,0,0,3.83,9.31Z"/><path class="cls-66" d="M25.08,72.15a37.56,37.56,0,0,1-1-5.36L.37,69.42a60.2,60.2,0,0,0,1.91,9.91Z"/></g><path class="cls-67" d="M109.62,22c-21.49-26-60.36-29.38-86.81-7.46s-30.47,60.8-9,86.83,60.36,29.37,86.81,7.46l-15-18.15c-16.27,13.49-40.18,11.43-53.4-4.58S21.52,46.12,37.79,32.64,78,21.21,91.19,37.22Z"/></g></g></svg>