<svg xmlns="http://www.w3.org/2000/svg" xmlns:xlink="http://www.w3.org/1999/xlink" viewBox="0 0 123.27 123.27"><defs><style>.cls-1{isolation:isolate;}.cls-2,.cls-35,.cls-36,.cls-37,.cls-38,.cls-39,.cls-40,.cls-41,.cls-42,.cls-43,.cls-44,.cls-45,.cls-46,.cls-47,.cls-48,.cls-49,.cls-50,.cls-51,.cls-52,.cls-53,.cls-54,.cls-55,.cls-56,.cls-57,.cls-58,.cls-59,.cls-60,.cls-61,.cls-62,.cls-63,.cls-64,.cls-65,.cls-66,.cls-67{mix-blend-mode:screen;}.cls-3{fill:url(#linear-gradient);}.cls-4{fill:url(#linear-gradient-2);}.cls-5{fill:url(#linear-gradient-3);}.cls-6{fill:url(#linear-gradient-4);}.cls-7{fill:url(#linear-gradient-5);}.cls-8{fill:url(#linear-gradient-6);}.cls-9{fill:url(#linear-gradient-7);}.cls-10{fill:url(#linear-gradient-8);}.cls-11{fill:url(#linear-gradient-9);}.cls-12{fill:url(#linear-gradient-10);}.cls-13{fill:url(#linear-gradient-11);}.cls-14{fill:url(#linear-gradient-12);}.cls-15{fill:url(#linear-gradient-13);}.cls-16{fill:url(#linear-gradient-14);}.cls-17{fill:url(#linear-gradient-15);}.cls-18{fill:url(#linear-gradient-16);}.cls-19{fill:url(#linear-gradient-17);}.cls-20{fill:url(#linear-gradient-18);}.cls-21{fill:url(#linear-gradient-19);}.cls-22{fill:url(#linear-gradient-20);}.cls-23{fill:url(#linear-gradient-21);}.cls-24{fill:url(#linear-gradient-22);}.cls-25{fill:url(#linear-gradient-23);}.cls-26{fill:url(#linear-gradient-24);}.cls-27{fill:url(#linear-gradient-25);}.cls-28{fill:url(#linear-gradient-26);}.cls-29{fill:url(#linear-gradient-27);}.cls-30{fill:url(#linear-gradient-28);}.cls-31{fill:url(#linear-gradient-29);}.cls-32{fill:url(#linear-gradient-30);}.cls-33{fill:url(#linear-gradient-31);}.cls-34{fill:url(#linear-gradient-32);}.cls-35{fill:url(#linear-gradient-33);}.cls-36{fill:url(#linear-gradient-34);}.cls-37{fill:url(#linear-gradient-35);}.cls-38{fill:url(#linear-gradient-36);}.cls-39{fill:url(#linear-gradient-37);}.cls-40{fill:url(#linear-gradient-38);}.cls-41{fill:url(#linear-gradient-39);}.cls-42{fill:url(#linear-gradient-40);}.cls-43{fill:url(#linear-gradient-41);}.cls-44{fill:url(#linear-gradient-42);}.cls-45{fill:url(#linear-gradient-43);}.cls-46{fill:url(#linear-gradient-44);}.cls-47{fill:url(#linear-gradient-45);}.cls-48{fill:url(#linear-gradient-46);}.cls-49{fill:url(#linear-gradient-47);}.cls-50{fill:url(#linear-gradient-48);}.cls-51{fill:url(#linear-gradient-49);}.cls-52{fill:url(#linear-gradient-50);}.cls-53{fill:url(#linear-gradient-51);}.cls-54{fill:url(#linear-gradient-52);}.cls-55{fill:url(#linear-gradient-53);}.cls-56{fill:url(#linear-gradient-54);}.cls-57{fill:url(#linear-gradient-55);}.cls-58{fill:url(#linear-gradient-56);}.cls-59{fill:url(#linear-gradient-57);}.cls-60{fill:url(#linear-gradient-58);}.cls-61{fill:url(#linear-gradient-59);}.cls-62{fill:url(#linear-gradient-60);}.cls-63{fill:url(#linear-gradient-61);}.cls-64{fill:url(#linear-gradient-62);}.cls-65{fill:url(#linear-gradient-63);}.cls-66{fill:url(#linear-gradient-64);}.cls-67{fill:url(#linear-gradient-65);}</style><linearGradient id="linear-gradient" x1="-5384.22" y1="-942.73" x2="-5262.76" y2="-942.73" gradientTransform="matrix(0.53, 0.81, -0.76, 0.74, 2179.75, 5047.29)" gradientUnits="userSpaceOnUse"><stop offset="0" stop-color="#ed2224"/><stop offset="0.04" stop-color="#d62230"/><stop offset="0.13" stop-color="#ae2244"/><stop offset="0.22" stop-color="#8f2354"/><stop offset="0.31" stop-color="#782360"/><stop offset="0.39" stop-color="#6b2367"/><stop offset="0.46" stop-color="#662369"/><stop offset="0.57" stop-color="#622265"/><stop offset="0.67" stop-color="#571e5a"/><stop offset="0.78" stop-color="#441846"/><stop offset="0.88" stop-color="#2a0f2b"/><stop offset="0.98" stop-color="#080308"/><stop offset="1" stop-color="#010101"/></linearGradient><linearGradient id="linear-gradient-2" x1="-5386.28" y1="-949.79" x2="-5253.7" y2="-949.79" xlink:href="#linear-gradient"/><linearGradient id="linear-gradient-3" x1="-5381.31" y1="-947.13" x2="-5264.8" y2="-947.13" xlink:href="#linear-gradient"/><linearGradient id="linear-gradient-4" x1="-5386.15" y1="-936.78" x2="-5261.31" y2="-936.78" xlink:href="#linear-gradient"/><linearGradient id="linear-gradient-5" x1="-5389.85" y1="-912.13" x2="-5258.05" y2="-912.13" xlink:href="#linear-gradient"/><linearGradient id="linear-gradient-6" x1="-5387.59" y1="-929.5" x2="-5260.14" y2="-929.5" xlink:href="#linear-gradient"/><linearGradient id="linear-gradient-7" x1="-5388.79" y1="-921.18" x2="-5259.08" y2="-921.18" xlink:href="#linear-gradient"/><linearGradient id="linear-gradient-8" x1="-5390.88" y1="-901.39" x2="-5256.97" y2="-901.39" xlink:href="#linear-gradient"/><linearGradient id="linear-gradient-9" x1="-5399.91" y1="-950.7" x2="-5244.45" y2="-950.7" xlink:href="#linear-gradient"/><linearGradient id="linear-gradient-10" x1="-5391.13" y1="-891.03" x2="-5261.26" y2="-891.03" xlink:href="#linear-gradient"/><linearGradient id="linear-gradient-11" x1="-5391.68" y1="-937.74" x2="-5256.05" y2="-937.74" xlink:href="#linear-gradient"/><linearGradient id="linear-gradient-12" x1="-5389.6" y1="-922.46" x2="-5258.31" y2="-922.46" xlink:href="#linear-gradient"/><linearGradient id="linear-gradient-13" x1="-5390.63" y1="-930.65" x2="-5257.24" y2="-930.65" xlink:href="#linear-gradient"/><linearGradient id="linear-gradient-14" x1="-5392.86" y1="-943.48" x2="-5254.61" y2="-943.48" xlink:href="#linear-gradient"/><linearGradient id="linear-gradient-15" x1="-5396.36" y1="-950.04" x2="-5249.77" y2="-950.04" xlink:href="#linear-gradient"/><linearGradient id="linear-gradient-16" x1="-5394.31" y1="-947.63" x2="-5252.68" y2="-947.63" xlink:href="#linear-gradient"/><linearGradient id="linear-gradient-17" x1="-5393.36" y1="-903.13" x2="-5259.45" y2="-903.13" xlink:href="#linear-gradient"/><linearGradient id="linear-gradient-18" x1="-5389.02" y1="-867.75" x2="-5264.18" y2="-867.75" xlink:href="#linear-gradient"/><linearGradient id="linear-gradient-19" x1="-5390.19" y1="-875.03" x2="-5262.73" y2="-875.03" xlink:href="#linear-gradient"/><linearGradient id="linear-gradient-20" x1="-5387.57" y1="-861.79" x2="-5266.1" y2="-861.79" xlink:href="#linear-gradient"/><linearGradient id="linear-gradient-21" x1="-5391.24" y1="-883.35" x2="-5261.54" y2="-883.35" xlink:href="#linear-gradient"/><linearGradient id="linear-gradient-22" x1="-5392.02" y1="-882.06" x2="-5260.73" y2="-882.06" xlink:href="#linear-gradient"/><linearGradient id="linear-gradient-23" x1="-5392.27" y1="-892.4" x2="-5260.47" y2="-892.4" xlink:href="#linear-gradient"/><linearGradient id="linear-gradient-24" x1="-5385.52" y1="-857.4" x2="-5269.01" y2="-857.4" xlink:href="#linear-gradient"/><linearGradient id="linear-gradient-25" x1="-5389.07" y1="-913.49" x2="-5259.19" y2="-913.49" xlink:href="#linear-gradient"/><linearGradient id="linear-gradient-26" x1="-5394.28" y1="-866.78" x2="-5258.65" y2="-866.78" xlink:href="#linear-gradient"/><linearGradient id="linear-gradient-27" x1="-5393.09" y1="-873.88" x2="-5259.7" y2="-873.88" xlink:href="#linear-gradient"/><linearGradient id="linear-gradient-28" x1="-5395.73" y1="-861.05" x2="-5257.47" y2="-861.05" xlink:href="#linear-gradient"/><linearGradient id="linear-gradient-29" x1="-5396.63" y1="-854.74" x2="-5264.05" y2="-854.74" xlink:href="#linear-gradient"/><linearGradient id="linear-gradient-30" x1="-5405.89" y1="-853.82" x2="-5250.43" y2="-853.82" xlink:href="#linear-gradient"/><linearGradient id="linear-gradient-31" x1="-5400.56" y1="-854.49" x2="-5253.98" y2="-854.49" xlink:href="#linear-gradient"/><linearGradient id="linear-gradient-32" x1="-5397.65" y1="-856.89" x2="-5256.03" y2="-856.89" xlink:href="#linear-gradient"/><linearGradient id="linear-gradient-33" x1="-6315.27" y1="-1272.12" x2="-6217.86" y2="-1388.21" gradientTransform="matrix(0.53, 0.81, -0.76, 0.74, 2357.9, 6080.03)" gradientUnits="userSpaceOnUse"><stop offset="0" stop-color="#70cddd"/><stop offset="0.29" stop-color="#232262"/><stop offset="0.54" stop-color="#15153b"/><stop offset="0.84" stop-color="#070711"/><stop offset="1" stop-color="#010101"/></linearGradient><linearGradient id="linear-gradient-34" x1="-6309.32" y1="-1263.65" x2="-6207.7" y2="-1384.75" xlink:href="#linear-gradient-33"/><linearGradient id="linear-gradient-35" x1="-6312.97" y1="-1268.21" x2="-6213.12" y2="-1387.2" xlink:href="#linear-gradient-33"/><linearGradient id="linear-gradient-36" x1="-6315.78" y1="-1275.65" x2="-6222.31" y2="-1387.05" xlink:href="#linear-gradient-33"/><linearGradient id="linear-gradient-37" x1="-6322.91" y1="-1264.68" x2="-6210.89" y2="-1398.18" xlink:href="#linear-gradient-33"/><linearGradient id="linear-gradient-38" x1="-6323.18" y1="-1268.37" x2="-6218.37" y2="-1393.28" xlink:href="#linear-gradient-33"/><linearGradient id="linear-gradient-39" x1="-6326.55" y1="-1263.62" x2="-6210.83" y2="-1401.53" xlink:href="#linear-gradient-33"/><linearGradient id="linear-gradient-40" x1="-6318.78" y1="-1263.75" x2="-6209.09" y2="-1394.46" xlink:href="#linear-gradient-33"/><linearGradient id="linear-gradient-41" x1="-6304.62" y1="-1258.44" x2="-6201.56" y2="-1381.26" xlink:href="#linear-gradient-33"/><linearGradient id="linear-gradient-42" x1="-6313.85" y1="-1261.43" x2="-6205.88" y2="-1390.09" xlink:href="#linear-gradient-33"/><linearGradient id="linear-gradient-43" x1="-6276.01" y1="-1236.05" x2="-6171.98" y2="-1360.03" xlink:href="#linear-gradient-33"/><linearGradient id="linear-gradient-44" x1="-6264.92" y1="-1224.38" x2="-6158.37" y2="-1351.35" xlink:href="#linear-gradient-33"/><linearGradient id="linear-gradient-45" x1="-6270.18" y1="-1229.96" x2="-6164.9" y2="-1355.42" xlink:href="#linear-gradient-33"/><linearGradient id="linear-gradient-46" x1="-6285.4" y1="-1239.69" x2="-6179.22" y2="-1366.23" xlink:href="#linear-gradient-33"/><linearGradient id="linear-gradient-47" x1="-6299.14" y1="-1252.67" x2="-6194.8" y2="-1377.02" xlink:href="#linear-gradient-33"/><linearGradient id="linear-gradient-48" x1="-6293.17" y1="-1246.47" x2="-6187.58" y2="-1372.3" xlink:href="#linear-gradient-33"/><linearGradient id="linear-gradient-49" x1="-6257.19" y1="-1215.18" x2="-6147.5" y2="-1345.9" xlink:href="#linear-gradient-33"/><linearGradient id="linear-gradient-50" x1="-6245" y1="-1221.38" x2="-6151.52" y2="-1332.78" xlink:href="#linear-gradient-33"/><linearGradient id="linear-gradient-51" x1="-6248.22" y1="-1216" x2="-6143.41" y2="-1340.91" xlink:href="#linear-gradient-33"/><linearGradient id="linear-gradient-52" x1="-6249.2" y1="-1220.51" x2="-6151.78" y2="-1336.61" xlink:href="#linear-gradient-33"/><linearGradient id="linear-gradient-53" x1="-6255.07" y1="-1208.57" x2="-6139.35" y2="-1346.48" xlink:href="#linear-gradient-33"/><linearGradient id="linear-gradient-54" x1="-6308.11" y1="-1258.06" x2="-6201.56" y2="-1385.04" xlink:href="#linear-gradient-33"/><linearGradient id="linear-gradient-55" x1="-6255.24" y1="-1211.64" x2="-6143.22" y2="-1345.14" xlink:href="#linear-gradient-33"/><linearGradient id="linear-gradient-56" x1="-6253.78" y1="-1221.7" x2="-6153.93" y2="-1340.7" xlink:href="#linear-gradient-33"/><linearGradient id="linear-gradient-57" x1="-6260.51" y1="-1219.42" x2="-6152.54" y2="-1348.09" xlink:href="#linear-gradient-33"/><linearGradient id="linear-gradient-58" x1="-6294.66" y1="-1249.19" x2="-6190.62" y2="-1373.18" xlink:href="#linear-gradient-33"/><linearGradient id="linear-gradient-59" x1="-6301.66" y1="-1253.89" x2="-6196.38" y2="-1379.35" xlink:href="#linear-gradient-33"/><linearGradient id="linear-gradient-60" x1="-6287.28" y1="-1243.15" x2="-6181.1" y2="-1369.7" xlink:href="#linear-gradient-33"/><linearGradient id="linear-gradient-61" x1="-6259.09" y1="-1224.29" x2="-6157.47" y2="-1345.4" xlink:href="#linear-gradient-33"/><linearGradient id="linear-gradient-62" x1="-6265.14" y1="-1227.89" x2="-6162.08" y2="-1350.71" xlink:href="#linear-gradient-33"/><linearGradient id="linear-gradient-63" x1="-6271.82" y1="-1232.23" x2="-6167.48" y2="-1356.58" xlink:href="#linear-gradient-33"/><linearGradient id="linear-gradient-64" x1="-6278.96" y1="-1237.04" x2="-6173.37" y2="-1362.87" xlink:href="#linear-gradient-33"/><linearGradient id="linear-gradient-65" x1="2377.54" y1="2150.27" x2="2345.55" y2="2184.48" gradientTransform="matrix(-0.31, -0.97, -0.87, 0.5, 2672.27, 1278.47)" gradientUnits="userSpaceOnUse"><stop offset="0" stop-color="#ed2224"/><stop offset="1" stop-color="#5b2369"/></linearGradient></defs><g class="cls-1"><g id="Layer_1" data-name="Layer 1"><g class="cls-2"><path class="cls-3" d="M73.75,25.53a36.42,36.42,0,0,1,5,2L90.1,6.46a60.63,60.63,0,0,0-9.35-3.75Z"/><path class="cls-4" d="M86.56,32.67a38.54,38.54,0,0,1,3.85,3.82L108.84,21.2a59.48,59.48,0,0,0-7.12-7.08Z"/><path class="cls-5" d="M80.52,28.46a36.94,36.94,0,0,1,4.54,3l15.16-18.55a59.29,59.29,0,0,0-8.4-5.52Z"/><path class="cls-6" d="M66.51,24a37.48,37.48,0,0,1,5.36,1l7-22.82A61.8,61.8,0,0,0,69,.32Z"/><path class="cls-7" d="M44.81,28a38.66,38.66,0,0,1,5.07-2.14L43.09,3.18a61.85,61.85,0,0,0-9.38,4Z"/><path class="cls-8" d="M59.08,23.88a37.15,37.15,0,0,1,5.48-.06L67,.15A62.33,62.33,0,0,0,56.87.27Z"/><path class="cls-9" d="M51.76,25.22a38.23,38.23,0,0,1,5.37-1.12L54.92.49A61.37,61.37,0,0,0,45,2.58Z"/><path class="cls-10" d="M38.52,32a39,39,0,0,1,4.56-3.1L32,8.12a63.77,63.77,0,0,0-8.44,5.74Z"/><path class="cls-11" d="M91.65,38a36.37,36.37,0,0,1,3,4.5l21-11.46a59.23,59.23,0,0,0-5.59-8.34Z"/><path class="cls-12" d="M33.1,37.21A37.77,37.77,0,0,1,37,33.3L22,15.13a63.17,63.17,0,0,0-7.21,7.24Z"/><path class="cls-13" d="M99.21,65.85a39.44,39.44,0,0,1-1.09,5.38l22.69,6.61a61.92,61.92,0,0,0,2-10Z"/><path class="cls-14" d="M115.38,90.88,94.48,79.94a38.17,38.17,0,0,1-3,4.6l18.29,14.83A62.67,62.67,0,0,0,115.38,90.88Z"/><path class="cls-15" d="M97.53,73.12a38.55,38.55,0,0,1-2.1,5.08l20.89,10.94a62.08,62.08,0,0,0,3.91-9.41Z"/><path class="cls-16" d="M99.44,58.42a38.55,38.55,0,0,1,0,5.48l23.62,2a61.19,61.19,0,0,0,.06-10.13Z"/><path class="cls-17" d="M95.59,44.22a36.4,36.4,0,0,1,2.06,5l22.78-7.18a60,60,0,0,0-3.83-9.31Z"/><path class="cls-18" d="M98.23,51.12a37.53,37.53,0,0,1,1,5.36l23.65-2.63A60,60,0,0,0,121,43.94Z"/><path class="cls-19" d="M84.75,91.24a39,39,0,0,1-4.56,3.1l11.1,20.81a64.43,64.43,0,0,0,8.44-5.74Z"/><path class="cls-20" d="M56.76,99.29a38.92,38.92,0,0,1-5.36-1l-7,22.82A61.8,61.8,0,0,0,54.32,123Z"/><path class="cls-21" d="M64.18,99.39a37,37,0,0,1-5.47.06l-2.44,23.67A62.33,62.33,0,0,0,66.4,123Z"/><path class="cls-22" d="M49.52,97.74a36.42,36.42,0,0,1-5.05-2l-11.3,21.09a60.63,60.63,0,0,0,9.35,3.75Z"/><path class="cls-23" d="M71.51,98.05a38.23,38.23,0,0,1-5.37,1.12l2.21,23.61a61.37,61.37,0,0,0,10-2.09Z"/><path class="cls-24" d="M28.79,43.33a38.17,38.17,0,0,1,3.05-4.6L13.55,23.9a62.67,62.67,0,0,0-5.66,8.49Z"/><path class="cls-25" d="M78.46,95.3a39.24,39.24,0,0,1-5.07,2.14l6.79,22.65a61.85,61.85,0,0,0,9.38-4Z"/><path class="cls-26" d="M42.75,94.81a36.94,36.94,0,0,1-4.54-3L23.05,110.38a59.29,59.29,0,0,0,8.4,5.52Z"/><path class="cls-27" d="M90.17,86.06A38.79,38.79,0,0,1,86.28,90l15,18.17a62.37,62.37,0,0,0,7.21-7.24Z"/><path class="cls-28" d="M24.06,57.42A39.44,39.44,0,0,1,25.15,52L2.46,45.43a61.92,61.92,0,0,0-2,10Z"/><path class="cls-29" d="M25.73,50.15a38.61,38.61,0,0,1,2.11-5.08L7,34.13A62.08,62.08,0,0,0,3,43.54Z"/><path class="cls-30" d="M23.83,64.85a38.54,38.54,0,0,1,0-5.48l-23.62-2A61.19,61.19,0,0,0,.18,67.47Z"/><path class="cls-31" d="M36.71,90.6a38.54,38.54,0,0,1-3.85-3.82L14.43,102.07a59.48,59.48,0,0,0,7.12,7.08Z"/><path class="cls-32" d="M31.62,85.28a37.84,37.84,0,0,1-3-4.52L7.6,92.23a59.23,59.23,0,0,0,5.59,8.34Z"/><path class="cls-33" d="M27.68,79.05a36.4,36.4,0,0,1-2.06-5L2.84,81.2a60.4,60.4,0,0,0,3.83,9.31Z"/><path class="cls-34" d="M25,72.15a37.53,37.53,0,0,1-1-5.36L.36,69.42a61.28,61.28,0,0,0,1.92,9.91Z"/><path class="cls-35" d="M73.75,25.53a36.42,36.42,0,0,1,5,2L90.1,6.46a60.63,60.63,0,0,0-9.35-3.75Z"/><path class="cls-36" d="M86.56,32.67a38.54,38.54,0,0,1,3.85,3.82L108.84,21.2a59.48,59.48,0,0,0-7.12-7.08Z"/><path class="cls-37" d="M80.52,28.46a36.94,36.94,0,0,1,4.54,3l15.16-18.55a59.29,59.29,0,0,0-8.4-5.52Z"/><path class="cls-38" d="M66.51,24a37.48,37.48,0,0,1,5.36,1l7-22.82A61.8,61.8,0,0,0,69,.32Z"/><path class="cls-39" d="M44.81,28a38.66,38.66,0,0,1,5.07-2.14L43.09,3.18a61.85,61.85,0,0,0-9.38,4Z"/><path class="cls-40" d="M59.08,23.88a37.15,37.15,0,0,1,5.48-.06L67,.15A62.33,62.33,0,0,0,56.87.27Z"/><path class="cls-41" d="M51.76,25.22a38.23,38.23,0,0,1,5.37-1.12L54.92.49A61.37,61.37,0,0,0,45,2.58Z"/><path class="cls-42" d="M38.52,32a39,39,0,0,1,4.56-3.1L32,8.12a63.77,63.77,0,0,0-8.44,5.74Z"/><path class="cls-43" d="M91.65,38a36.37,36.37,0,0,1,3,4.5l21-11.46a59.23,59.23,0,0,0-5.59-8.34Z"/><path class="cls-44" d="M33.1,37.21A37.77,37.77,0,0,1,37,33.3L22,15.13a63.17,63.17,0,0,0-7.21,7.24Z"/><path class="cls-45" d="M99.21,65.85a39.44,39.44,0,0,1-1.09,5.38l22.69,6.61a61.92,61.92,0,0,0,2-10Z"/><path class="cls-46" d="M115.38,90.88,94.48,79.94a38.17,38.17,0,0,1-3,4.6l18.29,14.83A62.67,62.67,0,0,0,115.38,90.88Z"/><path class="cls-47" d="M97.53,73.12a38.55,38.55,0,0,1-2.1,5.08l20.89,10.94a62.08,62.08,0,0,0,3.91-9.41Z"/><path class="cls-48" d="M99.44,58.42a38.55,38.55,0,0,1,0,5.48l23.62,2a61.19,61.19,0,0,0,.06-10.13Z"/><path class="cls-49" d="M95.59,44.22a36.4,36.4,0,0,1,2.06,5l22.78-7.18a60,60,0,0,0-3.83-9.31Z"/><path class="cls-50" d="M98.23,51.12a37.53,37.53,0,0,1,1,5.36l23.65-2.63A60,60,0,0,0,121,43.94Z"/><path class="cls-51" d="M84.75,91.24a39,39,0,0,1-4.56,3.1l11.1,20.81a64.43,64.43,0,0,0,8.44-5.74Z"/><path class="cls-52" d="M56.76,99.29a38.92,38.92,0,0,1-5.36-1l-7,22.82A61.8,61.8,0,0,0,54.32,123Z"/><path class="cls-53" d="M64.18,99.39a37,37,0,0,1-5.47.06l-2.44,23.67A62.33,62.33,0,0,0,66.4,123Z"/><path class="cls-54" d="M49.52,97.74a36.42,36.42,0,0,1-5.05-2l-11.3,21.09a60.63,60.63,0,0,0,9.35,3.75Z"/><path class="cls-55" d="M71.51,98.05a38.23,38.23,0,0,1-5.37,1.12l2.21,23.61a61.37,61.37,0,0,0,10-2.09Z"/><path class="cls-56" d="M28.79,43.33a38.17,38.17,0,0,1,3.05-4.6L13.55,23.9a62.67,62.67,0,0,0-5.66,8.49Z"/><path class="cls-57" d="M78.46,95.3a39.24,39.24,0,0,1-5.07,2.14l6.79,22.65a61.85,61.85,0,0,0,9.38-4Z"/><path class="cls-58" d="M42.75,94.81a36.94,36.94,0,0,1-4.54-3L23.05,110.38a59.29,59.29,0,0,0,8.4,5.52Z"/><path class="cls-59" d="M90.17,86.06A38.79,38.79,0,0,1,86.28,90l15,18.17a62.37,62.37,0,0,0,7.21-7.24Z"/><path class="cls-60" d="M24.06,57.42A39.44,39.44,0,0,1,25.15,52L2.46,45.43a61.92,61.92,0,0,0-2,10Z"/><path class="cls-61" d="M25.73,50.15a38.61,38.61,0,0,1,2.11-5.08L7,34.13A62.08,62.08,0,0,0,3,43.54Z"/><path class="cls-62" d="M23.83,64.85a38.54,38.54,0,0,1,0-5.48l-23.62-2A61.19,61.19,0,0,0,.18,67.47Z"/><path class="cls-63" d="M36.71,90.6a38.54,38.54,0,0,1-3.85-3.82L14.43,102.07a59.48,59.48,0,0,0,7.12,7.08Z"/><path class="cls-64" d="M31.62,85.28a37.84,37.84,0,0,1-3-4.52L7.6,92.23a59.23,59.23,0,0,0,5.59,8.34Z"/><path class="cls-65" d="M27.68,79.05a36.4,36.4,0,0,1-2.06-5L2.84,81.2a60.4,60.4,0,0,0,3.83,9.31Z"/><path class="cls-66" d="M25,72.15a37.53,37.53,0,0,1-1-5.36L.36,69.42a61.28,61.28,0,0,0,1.92,9.91Z"/></g><path class="cls-67" d="M109.46,22C88-4.09,49.19-7.43,22.78,14.49s-30.43,60.8-9,86.83,60.27,29.38,86.68,7.46L85.54,90.63c-16.25,13.49-40.12,11.43-53.32-4.58S21.48,46.12,37.73,32.64s40.12-11.43,53.32,4.58Z"/></g></g></svg>