<svg xmlns="http://www.w3.org/2000/svg" xmlns:xlink="http://www.w3.org/1999/xlink" viewBox="0 0 644.39 264.01"><defs><style>.cls-1{isolation:isolate;}.cls-2{fill:url(#_ÂÁ_Ï_ÌÌ_È_ËÂÌÚ_51);}.cls-3{fill:url(#_ÂÁ_Ï_ÌÌ_È_ËÂÌÚ_51-2);}.cls-4{fill:url(#_ÂÁ_Ï_ÌÌ_È_ËÂÌÚ_51-3);}.cls-5{fill:url(#_ÂÁ_Ï_ÌÌ_È_ËÂÌÚ_51-4);}.cls-6{fill:url(#_ÂÁ_Ï_ÌÌ_È_ËÂÌÚ_51-5);}.cls-7{fill:url(#_ÂÁ_Ï_ÌÌ_È_ËÂÌÚ_51-6);}.cls-8{fill:url(#_ÂÁ_Ï_ÌÌ_È_ËÂÌÚ_51-7);}.cls-9{fill:url(#_ÂÁ_Ï_ÌÌ_È_ËÂÌÚ_51-8);}.cls-10{fill:url(#_ÂÁ_Ï_ÌÌ_È_ËÂÌÚ_51-9);}.cls-11{fill:url(#_ÂÁ_Ï_ÌÌ_È_ËÂÌÚ_51-10);}.cls-12{fill:url(#_ÂÁ_Ï_ÌÌ_È_ËÂÌÚ_51-11);}.cls-13{fill:url(#_ÂÁ_Ï_ÌÌ_È_ËÂÌÚ_610);}.cls-14{mix-blend-mode:multiply;}.cls-15{fill:url(#linear-gradient);}.cls-16{fill:url(#linear-gradient-2);}.cls-17{fill:url(#linear-gradient-3);}.cls-18{fill:url(#linear-gradient-4);}.cls-19{fill:url(#linear-gradient-5);}.cls-20{fill:url(#linear-gradient-6);}.cls-21{fill:url(#linear-gradient-7);}.cls-22{fill:url(#linear-gradient-8);}.cls-23{fill:url(#linear-gradient-9);}.cls-24{fill:url(#linear-gradient-10);}.cls-25{fill:url(#linear-gradient-11);}.cls-26{fill:url(#linear-gradient-12);}.cls-27,.cls-40,.cls-41,.cls-42,.cls-43,.cls-44,.cls-45,.cls-46{mix-blend-mode:screen;}.cls-27{opacity:0.73;}.cls-28{fill:url(#_ÂÁ_Ï_ÌÌ_È_ËÂÌÚ_264);}.cls-29{fill:url(#_ÂÁ_Ï_ÌÌ_È_ËÂÌÚ_264-2);}.cls-30{fill:url(#_ÂÁ_Ï_ÌÌ_È_ËÂÌÚ_264-3);}.cls-31{fill:url(#_ÂÁ_Ï_ÌÌ_È_ËÂÌÚ_264-4);}.cls-32{fill:url(#_ÂÁ_Ï_ÌÌ_È_ËÂÌÚ_264-5);}.cls-33{fill:url(#_ÂÁ_Ï_ÌÌ_È_ËÂÌÚ_264-6);}.cls-34{fill:url(#_ÂÁ_Ï_ÌÌ_È_ËÂÌÚ_264-7);}.cls-35{fill:url(#_ÂÁ_Ï_ÌÌ_È_ËÂÌÚ_264-8);}.cls-36{fill:url(#_ÂÁ_Ï_ÌÌ_È_ËÂÌÚ_264-9);}.cls-37{fill:url(#_ÂÁ_Ï_ÌÌ_È_ËÂÌÚ_264-10);}.cls-38{fill:url(#_ÂÁ_Ï_ÌÌ_È_ËÂÌÚ_264-11);}.cls-39{fill:url(#_ÂÁ_Ï_ÌÌ_È_ËÂÌÚ_264-12);}.cls-40{fill:url(#_ÂÁ_Ï_ÌÌ_È_ËÂÌÚ_11);}.cls-41{fill:url(#_ÂÁ_Ï_ÌÌ_È_ËÂÌÚ_11-2);}.cls-42{fill:url(#_ÂÁ_Ï_ÌÌ_È_ËÂÌÚ_11-3);}.cls-43{fill:url(#_ÂÁ_Ï_ÌÌ_È_ËÂÌÚ_11-4);}.cls-44{fill:url(#_ÂÁ_Ï_ÌÌ_È_ËÂÌÚ_11-5);}.cls-45{fill:url(#_ÂÁ_Ï_ÌÌ_È_ËÂÌÚ_11-6);}.cls-46{fill:url(#_ÂÁ_Ï_ÌÌ_È_ËÂÌÚ_11-7);}</style><linearGradient id="_ÂÁ_Ï_ÌÌ_È_ËÂÌÚ_51" x1="2542.51" y1="-201.22" x2="2549.81" y2="-201.22" gradientTransform="translate(-32.8 2713.27) rotate(-70.82)" gradientUnits="userSpaceOnUse"><stop offset="0" stop-color="#86e7ff"/><stop offset="0.01" stop-color="#8ee9ff"/><stop offset="0.01" stop-color="#a4edff"/><stop offset="0.03" stop-color="#c8f4ff"/><stop offset="0.04" stop-color="#f9feff"/><stop offset="0.04" stop-color="#fff"/><stop offset="0.05" stop-color="#eff"/><stop offset="0.08" stop-color="#a3ffff"/><stop offset="0.1" stop-color="#86ffff"/><stop offset="0.11" stop-color="#79e8ec"/><stop offset="0.13" stop-color="#59b2be"/><stop offset="0.15" stop-color="#3e8496"/><stop offset="0.17" stop-color="#275d76"/><stop offset="0.19" stop-color="#16405d"/><stop offset="0.21" stop-color="#0a2b4b"/><stop offset="0.23" stop-color="#021e41"/><stop offset="0.25" stop-color="#001a3d"/><stop offset="0.25" stop-color="#012043"/><stop offset="0.27" stop-color="#0b4c6f"/><stop offset="0.29" stop-color="#147296"/><stop offset="0.3" stop-color="#1c93b6"/><stop offset="0.32" stop-color="#22add1"/><stop offset="0.34" stop-color="#26c2e5"/><stop offset="0.37" stop-color="#29d0f4"/><stop offset="0.4" stop-color="#2bd8fc"/><stop offset="0.44" stop-color="#2cdbff"/><stop offset="0.48" stop-color="#26c1e3"/><stop offset="0.56" stop-color="#1a91b2"/><stop offset="0.65" stop-color="#116989"/><stop offset="0.72" stop-color="#0a4a68"/><stop offset="0.8" stop-color="#043452"/><stop offset="0.87" stop-color="#012744"/><stop offset="0.93" stop-color="#00223f"/><stop offset="0.96" stop-color="#002441"/><stop offset="0.97" stop-color="#022a48"/><stop offset="0.98" stop-color="#053653"/><stop offset="0.98" stop-color="#094664"/><stop offset="0.99" stop-color="#0e5b7a"/><stop offset="0.99" stop-color="#147596"/><stop offset="0.99" stop-color="#1b95b6"/><stop offset="1" stop-color="#24b8da"/><stop offset="1" stop-color="#2cdbff"/></linearGradient><linearGradient id="_ÂÁ_Ï_ÌÌ_È_ËÂÌÚ_51-2" x1="2545.18" y1="-187.22" x2="2547.17" y2="-187.22" xlink:href="#_ÂÁ_Ï_ÌÌ_È_ËÂÌÚ_51"/><linearGradient id="_ÂÁ_Ï_ÌÌ_È_ËÂÌÚ_51-3" x1="2546.97" y1="-811.98" x2="2546.97" y2="-799.62" xlink:href="#_ÂÁ_Ï_ÌÌ_È_ËÂÌÚ_51"/><linearGradient id="_ÂÁ_Ï_ÌÌ_È_ËÂÌÚ_51-4" x1="2525.58" y1="-702.49" x2="2568.36" y2="-702.49" gradientTransform="translate(-2406.58 779.37)" xlink:href="#_ÂÁ_Ï_ÌÌ_È_ËÂÌÚ_51"/><linearGradient id="_ÂÁ_Ï_ÌÌ_È_ËÂÌÚ_51-5" x1="2521.85" y1="-590.45" x2="2571.76" y2="-590.45" xlink:href="#_ÂÁ_Ï_ÌÌ_È_ËÂÌÚ_51"/><linearGradient id="_ÂÁ_Ï_ÌÌ_È_ËÂÌÚ_51-6" x1="2523.21" y1="-466.87" x2="2570.4" y2="-466.87" gradientTransform="translate(-2183.93 621.27)" xlink:href="#_ÂÁ_Ï_ÌÌ_È_ËÂÌÚ_51"/><linearGradient id="_ÂÁ_Ï_ÌÌ_È_ËÂÌÚ_51-7" x1="2523.21" y1="-332.43" x2="2570.4" y2="-332.43" xlink:href="#_ÂÁ_Ï_ÌÌ_È_ËÂÌÚ_51"/><linearGradient id="_ÂÁ_Ï_ÌÌ_È_ËÂÌÚ_51-8" x1="2525.93" y1="-280.83" x2="2567.68" y2="-280.83" xlink:href="#_ÂÁ_Ï_ÌÌ_È_ËÂÌÚ_51"/><linearGradient id="_ÂÁ_Ï_ÌÌ_È_ËÂÌÚ_51-9" x1="2542.51" y1="-208.01" x2="2549.81" y2="-208.01" gradientTransform="translate(-1939.01 447.95)" xlink:href="#_ÂÁ_Ï_ÌÌ_È_ËÂÌÚ_51"/><linearGradient id="_ÂÁ_Ï_ÌÌ_È_ËÂÌÚ_51-10" x1="2504.89" y1="-708.43" x2="2525.58" y2="-708.43" xlink:href="#_ÂÁ_Ï_ÌÌ_È_ËÂÌÚ_51"/><linearGradient id="_ÂÁ_Ï_ÌÌ_È_ËÂÌÚ_51-11" x1="2532.72" y1="-229.23" x2="2560.9" y2="-229.23" xlink:href="#_ÂÁ_Ï_ÌÌ_È_ËÂÌÚ_51"/><linearGradient id="_ÂÁ_Ï_ÌÌ_È_ËÂÌÚ_610" x1="1041.81" y1="393.13" x2="1057.44" y2="393.13" gradientTransform="matrix(0.33, 2.63, -0.94, 0.91, 256.27, -3011.23)" gradientUnits="userSpaceOnUse"><stop offset="0" stop-color="#86e7ff"/><stop offset="0.01" stop-color="#8ee9ff"/><stop offset="0.01" stop-color="#a4edff"/><stop offset="0.03" stop-color="#c8f4ff"/><stop offset="0.04" stop-color="#f9feff"/><stop offset="0.04" stop-color="#fff"/><stop offset="0.05" stop-color="#eff"/><stop offset="0.08" stop-color="#a3ffff"/><stop offset="0.1" stop-color="#86ffff"/><stop offset="0.11" stop-color="#79e8ec"/><stop offset="0.13" stop-color="#59b2be"/><stop offset="0.15" stop-color="#3e8496"/><stop offset="0.17" stop-color="#275d76"/><stop offset="0.19" stop-color="#16405d"/><stop offset="0.21" stop-color="#0a2b4b"/><stop offset="0.23" stop-color="#021e41"/><stop offset="0.25" stop-color="#001a3d"/><stop offset="0.25" stop-color="#012043"/><stop offset="0.27" stop-color="#0b4c6f"/><stop offset="0.29" stop-color="#147296"/><stop offset="0.3" stop-color="#1c93b6"/><stop offset="0.32" stop-color="#22add1"/><stop offset="0.34" stop-color="#26c2e5"/><stop offset="0.37" stop-color="#29d0f4"/><stop offset="0.4" stop-color="#2bd8fc"/><stop offset="0.44" stop-color="#2cdbff"/><stop offset="0.47" stop-color="#26c1e3"/><stop offset="0.53" stop-color="#1a91b2"/><stop offset="0.58" stop-color="#116989"/><stop offset="0.64" stop-color="#0a4a68"/><stop offset="0.69" stop-color="#043452"/><stop offset="0.74" stop-color="#012744"/><stop offset="0.78" stop-color="#00223f"/><stop offset="0.87" stop-color="#002441"/><stop offset="0.9" stop-color="#022a48"/><stop offset="0.92" stop-color="#053653"/><stop offset="0.94" stop-color="#094664"/><stop offset="0.95" stop-color="#0e5b7a"/><stop offset="0.97" stop-color="#147596"/><stop offset="0.98" stop-color="#1b95b6"/><stop offset="0.99" stop-color="#24b8da"/><stop offset="1" stop-color="#2cdbff"/></linearGradient><linearGradient id="linear-gradient" x1="2541.62" y1="-201.4" x2="2548.92" y2="-201.4" gradientTransform="translate(-32.8 2713.27) rotate(-70.82)" gradientUnits="userSpaceOnUse"><stop offset="0" stop-color="#002f70"/><stop offset="0.01" stop-color="#093675"/><stop offset="0.07" stop-color="#426595"/><stop offset="0.14" stop-color="#748eb1"/><stop offset="0.2" stop-color="#9fb1c9"/><stop offset="0.27" stop-color="#c2cddd"/><stop offset="0.34" stop-color="#dde3ec"/><stop offset="0.41" stop-color="#f0f3f6"/><stop offset="0.48" stop-color="#fbfcfd"/><stop offset="0.55" stop-color="#fff"/></linearGradient><linearGradient id="linear-gradient-2" x1="2544.29" y1="-187.4" x2="2546.29" y2="-187.4" xlink:href="#linear-gradient"/><linearGradient id="linear-gradient-3" x1="2546.08" y1="-812.16" x2="2546.08" y2="-799.8" xlink:href="#linear-gradient"/><linearGradient id="linear-gradient-4" x1="2524.7" y1="-702.67" x2="2567.47" y2="-702.67" gradientTransform="translate(-2406.15 780.33)" xlink:href="#linear-gradient"/><linearGradient id="linear-gradient-5" x1="2520.97" y1="-590.63" x2="2570.87" y2="-590.63" xlink:href="#linear-gradient"/><linearGradient id="linear-gradient-6" x1="2522.32" y1="-467.05" x2="2569.52" y2="-467.05" gradientTransform="translate(-2183.51 622.21)" xlink:href="#linear-gradient"/><linearGradient id="linear-gradient-7" x1="2522.33" y1="-332.61" x2="2569.52" y2="-332.61" xlink:href="#linear-gradient"/><linearGradient id="linear-gradient-8" x1="2525.04" y1="-281.01" x2="2566.8" y2="-281.01" xlink:href="#linear-gradient"/><linearGradient id="linear-gradient-9" x1="2541.62" y1="-208.19" x2="2548.92" y2="-208.19" gradientTransform="translate(-1938.59 448.9)" xlink:href="#linear-gradient"/><linearGradient id="linear-gradient-10" x1="2504" y1="-708.61" x2="2524.7" y2="-708.61" xlink:href="#linear-gradient"/><linearGradient id="linear-gradient-11" x1="2531.83" y1="-229.41" x2="2560.01" y2="-229.41" xlink:href="#linear-gradient"/><linearGradient id="linear-gradient-12" x1="1024.02" y1="387.94" x2="1039.65" y2="387.94" gradientTransform="matrix(0.33, 2.53, -0.94, 0.88, 256.87, -2848.27)" xlink:href="#linear-gradient"/><linearGradient id="_ÂÁ_Ï_ÌÌ_È_ËÂÌÚ_264" x1="2542.35" y1="-201.66" x2="2549.65" y2="-201.66" gradientTransform="translate(-32.8 2713.27) rotate(-70.82)" gradientUnits="userSpaceOnUse"><stop offset="0"/><stop offset="0.04" stop-color="#000102"/><stop offset="0.06" stop-color="#000309"/><stop offset="0.07" stop-color="#000714"/><stop offset="0.08" stop-color="#000c25"/><stop offset="0.09" stop-color="#00143b"/><stop offset="0.1" stop-color="#001d57"/><stop offset="0.1" stop-color="#002777"/><stop offset="0.11" stop-color="#00349d"/><stop offset="0.11" stop-color="#0042c8"/><stop offset="0.12" stop-color="#0051f6"/><stop offset="0.12" stop-color="#0054ff"/><stop offset="0.12" stop-color="#0051f6"/><stop offset="0.12" stop-color="#0042c8"/><stop offset="0.13" stop-color="#00349d"/><stop offset="0.14" stop-color="#002777"/><stop offset="0.14" stop-color="#001d57"/><stop offset="0.15" stop-color="#00143b"/><stop offset="0.16" stop-color="#000c25"/><stop offset="0.17" stop-color="#000714"/><stop offset="0.18" stop-color="#000309"/><stop offset="0.2" stop-color="#000102"/><stop offset="0.25"/><stop offset="0.27" stop-color="#000103"/><stop offset="0.29" stop-color="#00040c"/><stop offset="0.3" stop-color="#00091c"/><stop offset="0.31" stop-color="#013"/><stop offset="0.32" stop-color="#001a50"/><stop offset="0.34" stop-color="#002674"/><stop offset="0.35" stop-color="#00349f"/><stop offset="0.36" stop-color="#0044cf"/><stop offset="0.37" stop-color="#0054ff"/><stop offset="0.37" stop-color="#0051f6"/><stop offset="0.37" stop-color="#0042c8"/><stop offset="0.37" stop-color="#00349d"/><stop offset="0.38" stop-color="#002777"/><stop offset="0.38" stop-color="#001d57"/><stop offset="0.39" stop-color="#00143b"/><stop offset="0.39" stop-color="#000c25"/><stop offset="0.4" stop-color="#000714"/><stop offset="0.41" stop-color="#000309"/><stop offset="0.42" stop-color="#000102"/><stop offset="0.45"/><stop offset="0.48" stop-color="#000103"/><stop offset="0.49" stop-color="#00040c"/><stop offset="0.5" stop-color="#00091c"/><stop offset="0.52" stop-color="#013"/><stop offset="0.53" stop-color="#001a50"/><stop offset="0.54" stop-color="#002674"/><stop offset="0.55" stop-color="#00349f"/><stop offset="0.56" stop-color="#0044cf"/><stop offset="0.57" stop-color="#0054ff"/><stop offset="0.57" stop-color="#0051f6"/><stop offset="0.58" stop-color="#0042c8"/><stop offset="0.58" stop-color="#00349d"/><stop offset="0.58" stop-color="#002777"/><stop offset="0.59" stop-color="#001d57"/><stop offset="0.59" stop-color="#00143b"/><stop offset="0.6" stop-color="#000c25"/><stop offset="0.61" stop-color="#000714"/><stop offset="0.62" stop-color="#000309"/><stop offset="0.63" stop-color="#000102"/><stop offset="0.66"/><stop offset="0.7" stop-color="#000103"/><stop offset="0.72" stop-color="#00040c"/><stop offset="0.75" stop-color="#00091c"/><stop offset="0.77" stop-color="#013"/><stop offset="0.79" stop-color="#001a50"/><stop offset="0.81" stop-color="#002674"/><stop offset="0.83" stop-color="#00349f"/><stop offset="0.84" stop-color="#0044cf"/><stop offset="0.86" stop-color="#0054ff"/><stop offset="0.86" stop-color="#0051f6"/><stop offset="0.87" stop-color="#0042c8"/><stop offset="0.87" stop-color="#00349d"/><stop offset="0.88" stop-color="#002777"/><stop offset="0.89" stop-color="#001d57"/><stop offset="0.89" stop-color="#00143b"/><stop offset="0.9" stop-color="#000c25"/><stop offset="0.91" stop-color="#000714"/><stop offset="0.93" stop-color="#000309"/><stop offset="0.95" stop-color="#000102"/><stop offset="1"/></linearGradient><linearGradient id="_ÂÁ_Ï_ÌÌ_È_ËÂÌÚ_264-2" x1="2545.02" y1="-187.65" x2="2547.02" y2="-187.65" xlink:href="#_ÂÁ_Ï_ÌÌ_È_ËÂÌÚ_264"/><linearGradient id="_ÂÁ_Ï_ÌÌ_È_ËÂÌÚ_264-3" x1="2546.81" y1="-812.41" x2="2546.81" y2="-800.05" xlink:href="#_ÂÁ_Ï_ÌÌ_È_ËÂÌÚ_264"/><linearGradient id="_ÂÁ_Ï_ÌÌ_È_ËÂÌÚ_264-4" x1="2525.42" y1="-702.92" x2="2568.2" y2="-702.92" gradientTransform="translate(-2406.88 779.81)" xlink:href="#_ÂÁ_Ï_ÌÌ_È_ËÂÌÚ_264"/><linearGradient id="_ÂÁ_Ï_ÌÌ_È_ËÂÌÚ_264-5" x1="2521.69" y1="-590.88" x2="2571.6" y2="-590.88" xlink:href="#_ÂÁ_Ï_ÌÌ_È_ËÂÌÚ_264"/><linearGradient id="_ÂÁ_Ï_ÌÌ_È_ËÂÌÚ_264-6" x1="2523.05" y1="-467.3" x2="2570.24" y2="-467.3" gradientTransform="translate(-2184.24 621.7)" xlink:href="#_ÂÁ_Ï_ÌÌ_È_ËÂÌÚ_264"/><linearGradient id="_ÂÁ_Ï_ÌÌ_È_ËÂÌÚ_264-7" x1="2523.06" y1="-332.87" x2="2570.24" y2="-332.87" xlink:href="#_ÂÁ_Ï_ÌÌ_È_ËÂÌÚ_264"/><linearGradient id="_ÂÁ_Ï_ÌÌ_È_ËÂÌÚ_264-8" x1="2525.77" y1="-281.27" x2="2567.53" y2="-281.27" xlink:href="#_ÂÁ_Ï_ÌÌ_È_ËÂÌÚ_264"/><linearGradient id="_ÂÁ_Ï_ÌÌ_È_ËÂÌÚ_264-9" x1="2542.35" y1="-208.44" x2="2549.65" y2="-208.44" gradientTransform="translate(-1939.32 448.4)" xlink:href="#_ÂÁ_Ï_ÌÌ_È_ËÂÌÚ_264"/><linearGradient id="_ÂÁ_Ï_ÌÌ_È_ËÂÌÚ_264-10" x1="2504.73" y1="-708.86" x2="2525.43" y2="-708.86" xlink:href="#_ÂÁ_Ï_ÌÌ_È_ËÂÌÚ_264"/><linearGradient id="_ÂÁ_Ï_ÌÌ_È_ËÂÌÚ_264-11" x1="2532.56" y1="-229.67" x2="2560.74" y2="-229.67" xlink:href="#_ÂÁ_Ï_ÌÌ_È_ËÂÌÚ_264"/><linearGradient id="_ÂÁ_Ï_ÌÌ_È_ËÂÌÚ_264-12" x1="223.02" y1="108.51" x2="238.65" y2="108.51" gradientTransform="translate(257.5 -145.16) rotate(70.82)" xlink:href="#_ÂÁ_Ï_ÌÌ_È_ËÂÌÚ_264"/><radialGradient id="_ÂÁ_Ï_ÌÌ_È_ËÂÌÚ_11" cx="2193.13" cy="1345.13" fx="2173.297484422611" r="27.3" gradientTransform="matrix(-0.65, -0.27, 0.59, -1.43, 661.05, 2559.21)" gradientUnits="userSpaceOnUse"><stop offset="0.12" stop-color="#fff"/><stop offset="0.12" stop-color="#f9f9ff"/><stop offset="0.12" stop-color="#d0d0ff"/><stop offset="0.13" stop-color="#aaf"/><stop offset="0.14" stop-color="#8a8aff"/><stop offset="0.14" stop-color="#6e6eff"/><stop offset="0.15" stop-color="#5858ff"/><stop offset="0.16" stop-color="#4747ff"/><stop offset="0.17" stop-color="#3c3cff"/><stop offset="0.18" stop-color="#3535ff"/><stop offset="0.22" stop-color="#33f"/><stop offset="0.23" stop-color="#3030f0"/><stop offset="0.28" stop-color="#2626be"/><stop offset="0.33" stop-color="#1d1d91"/><stop offset="0.39" stop-color="#15156a"/><stop offset="0.44" stop-color="#0f0f49"/><stop offset="0.51" stop-color="#09092e"/><stop offset="0.57" stop-color="#05051a"/><stop offset="0.65" stop-color="#02020b"/><stop offset="0.74" stop-color="#010103"/><stop offset="0.88"/></radialGradient><radialGradient id="_ÂÁ_Ï_ÌÌ_È_ËÂÌÚ_11-2" cx="203.93" cy="53.6" fx="203.92505869924207" r="16.74" gradientTransform="matrix(0.73, 0.69, -0.69, 0.73, 96.27, -80.55)" xlink:href="#_ÂÁ_Ï_ÌÌ_È_ËÂÌÚ_11"/><radialGradient id="_ÂÁ_Ï_ÌÌ_È_ËÂÌÚ_11-3" cx="620.05" cy="213.45" fx="620.0525339412216" r="16.74" gradientTransform="translate(734.13 -399.77) rotate(80.35)" xlink:href="#_ÂÁ_Ï_ÌÌ_È_ËÂÌÚ_11"/><radialGradient id="_ÂÁ_Ï_ÌÌ_È_ËÂÌÚ_11-4" cx="168.36" cy="40.82" fx="168.35779101019943" r="16.74" gradientTransform="translate(81.34 -61.1) rotate(45)" xlink:href="#_ÂÁ_Ï_ÌÌ_È_ËÂÌÚ_11"/><radialGradient id="_ÂÁ_Ï_ÌÌ_È_ËÂÌÚ_11-5" cx="132.79" cy="28.05" fx="132.7905246612645" r="16.74" gradientTransform="translate(32.19 -12.88) rotate(28.43)" xlink:href="#_ÂÁ_Ï_ÌÌ_È_ËÂÌÚ_11"/><radialGradient id="_ÂÁ_Ï_ÌÌ_È_ËÂÌÚ_11-6" cx="97.22" cy="15.27" fx="97.2233082964085" r="16.74" gradientTransform="translate(2.13 50.52) rotate(-1.54)" xlink:href="#_ÂÁ_Ï_ÌÌ_È_ËÂÌÚ_11"/><radialGradient id="_ÂÁ_Ï_ÌÌ_È_ËÂÌÚ_11-7" cx="61.66" cy="2.5" fx="61.65609193155433" r="16.74" gradientTransform="translate(2.13 50.52) rotate(-1.54)" xlink:href="#_ÂÁ_Ï_ÌÌ_È_ËÂÌÚ_11"/></defs><g class="cls-1"><g id="Layer_2" data-name="Layer 2"><g id="_ÎÓÈ_1" data-name="—ÎÓÈ_1"><polygon class="cls-2" points="601.45 234.24 599.05 241.14 612.85 245.94 626.56 247.83 627.17 246.06 615.24 239.04 601.45 234.24"/><path class="cls-3" d="M626,246.89l.16-.48a.78.78,0,0,1,1.47.51l-.16.48a.78.78,0,0,1-1.47-.51Z"/><path class="cls-4" d="M55.72,24.8l-14,40.4-3.8-5.64a9.13,9.13,0,0,1-4.14-11l5.46-15.71a9.13,9.13,0,0,1,10.05-6Z"/><rect class="cls-5" x="118.99" y="-20.21" width="42.77" height="194.18" transform="translate(21.65 184.22) rotate(-70.82)"/><path class="cls-6" d="M268,96.46l-15.51,44.59-26.64-7.83a2.16,2.16,0,0,1-1.33-2.74l15-43.09a2.15,2.15,0,0,1,2.75-1.31Z"/><rect class="cls-7" x="339.27" y="45.81" width="47.19" height="217.27" transform="translate(97.8 446.44) rotate(-70.82)"/><polygon class="cls-8" points="521.07 187.36 507.35 226.8 457.72 212.41 473.22 167.84 521.07 187.36"/><polygon class="cls-9" points="507.35 226.8 521.07 187.36 567.58 210.72 558.32 237.34 507.35 226.8"/><rect class="cls-10" x="603.5" y="232.79" width="7.3" height="14.6" transform="matrix(0.33, -0.94, 0.94, 0.33, 180.96, 734.7)"/><path class="cls-11" d="M40.46,68.73,39,72.91s-8.81,16,43.25,26.55c0,0,101.85,27.51,111.9,30.65,0,0,8.23,11.13,15,5.35s-4.36-10.87-11.31-10.89L53.56,82.72S42.46,80,47.51,71.18c0,0,5.59-2,6.88-1.56L41.65,65.19Z"/><polygon class="cls-12" points="614.09 234.09 609.29 247.87 558.32 237.34 567.58 210.72 614.09 234.09"/><rect class="cls-13" x="208.51" y="105.7" width="42.77" height="4.64" transform="translate(52.35 289.66) rotate(-70.82)"/><g class="cls-14"><polygon class="cls-15" points="600.99 235.02 598.59 241.91 612.38 246.71 626.1 248.6 626.71 246.84 614.78 239.82 600.99 235.02"/><path class="cls-16" d="M625.52,247.66l.16-.48a.75.75,0,0,1,1-.45.76.76,0,0,1,.52,1l-.17.48a.74.74,0,0,1-.94.45A.76.76,0,0,1,625.52,247.66Z"/><path class="cls-17" d="M55.26,25.57,41.21,66l-3.8-5.63a9.14,9.14,0,0,1-4.14-11l5.46-15.71a9.14,9.14,0,0,1,10.05-6Z"/><rect class="cls-18" x="118.53" y="-19.43" width="42.77" height="194.18" transform="translate(20.6 184.31) rotate(-70.82)"/><path class="cls-19" d="M267.56,97.24l-15.51,44.59L225.41,134a2.14,2.14,0,0,1-1.33-2.73l15-43.09a2.16,2.16,0,0,1,2.75-1.32Z"/><rect class="cls-20" x="338.81" y="46.59" width="47.19" height="217.27" transform="translate(96.76 446.53) rotate(-70.82)"/><polygon class="cls-21" points="520.61 188.13 506.89 227.57 457.26 213.19 472.76 168.62 520.61 188.13"/><polygon class="cls-22" points="506.89 227.57 520.61 188.13 567.12 211.5 557.86 238.11 506.89 227.57"/><rect class="cls-23" x="603.04" y="233.56" width="7.3" height="14.6" transform="translate(179.92 734.79) rotate(-70.83)"/><path class="cls-24" d="M40,69.51l-1.46,4.18s-8.81,16,43.25,26.54c0,0,101.85,27.52,111.9,30.66,0,0,8.23,11.12,15,5.34s-4.36-10.86-11.31-10.88L53.1,83.5S42,80.79,47.05,72c0,0,5.59-2,6.88-1.56L41.19,66Z"/><polygon class="cls-25" points="613.62 234.86 608.83 248.65 557.86 238.11 567.12 211.5 613.62 234.86"/><rect class="cls-26" x="208.12" y="106.59" width="42.77" height="4.47" transform="translate(51.33 289.84) rotate(-70.82)"/></g><g class="cls-27"><polygon class="cls-28" points="600.99 234.25 598.59 241.14 612.38 245.94 626.1 247.83 626.71 246.07 614.78 239.05 600.99 234.25"/><path class="cls-29" d="M625.52,246.89l.16-.48a.78.78,0,0,1,1.47.51l-.17.48a.73.73,0,0,1-.94.46A.76.76,0,0,1,625.52,246.89Z"/><path class="cls-30" d="M55.26,24.8l-14,40.4-3.8-5.63a9.14,9.14,0,0,1-4.14-11l5.46-15.71a9.14,9.14,0,0,1,10.05-6Z"/><rect class="cls-31" x="118.53" y="-20.2" width="42.77" height="194.18" transform="translate(21.33 183.79) rotate(-70.82)"/><path class="cls-32" d="M267.56,96.47l-15.51,44.59-26.64-7.84a2.14,2.14,0,0,1-1.33-2.73l15-43.09a2.16,2.16,0,0,1,2.75-1.32Z"/><rect class="cls-33" x="338.81" y="45.81" width="47.19" height="217.27" transform="translate(97.49 446.01) rotate(-70.82)"/><polygon class="cls-34" points="520.61 187.36 506.89 226.8 457.26 212.42 472.76 167.85 520.61 187.36"/><polygon class="cls-35" points="506.89 226.8 520.61 187.36 567.12 210.73 557.86 237.34 506.89 226.8"/><rect class="cls-36" x="603.04" y="232.79" width="7.3" height="14.6" transform="translate(180.65 734.26) rotate(-70.83)"/><path class="cls-37" d="M40,68.74l-1.46,4.18s-8.81,16,43.25,26.54c0,0,101.85,27.52,111.9,30.65,0,0,8.23,11.13,15,5.35s-4.36-10.86-11.31-10.88L53.1,82.73S42,80,47.05,71.19c0,0,5.59-2,6.88-1.56L41.19,65.2Z"/><polygon class="cls-38" points="613.62 234.09 608.83 247.88 557.86 237.34 567.12 210.73 613.62 234.09"/><rect class="cls-39" x="209.45" y="107.68" width="42.77" height="1.67" transform="translate(52.52 290.89) rotate(-70.82)"/></g><path class="cls-40" d="M6.23,32.43C15.16,10.83,30.39-3.38,40.24.7s10.61,24.88,1.68,46.48S17.77,83,7.91,78.91-2.69,54,6.23,32.43Z"/><circle class="cls-41" cx="207.41" cy="98.63" r="16.74" transform="translate(-8.99 175.55) rotate(-45)"/><circle class="cls-42" cx="627.65" cy="247.27" r="16.74" transform="translate(294.26 833.73) rotate(-81.88)"/><circle class="cls-43" cx="171.51" cy="86.81" r="16.74" transform="translate(-9.48 151.58) rotate(-46.54)"/><circle class="cls-44" cx="135.62" cy="74.99" r="16.74" transform="translate(-19.33 77.75) rotate(-29.96)"/><path class="cls-45" d="M116.46,62.73A16.74,16.74,0,1,1,99.27,46.44,16.75,16.75,0,0,1,116.46,62.73Z"/><path class="cls-46" d="M80.56,50.91A16.74,16.74,0,1,1,63.38,34.62,16.74,16.74,0,0,1,80.56,50.91Z"/></g></g></g></svg>