<svg xmlns="http://www.w3.org/2000/svg" xmlns:xlink="http://www.w3.org/1999/xlink" viewBox="0 0 389.9 65.74"><defs><style>.cls-1{fill:#fff;}.cls-2{fill:url(#linear-gradient);}</style><linearGradient id="linear-gradient" y1="56.35" x2="18.78" y2="56.35" gradientUnits="userSpaceOnUse"><stop offset="0" stop-color="#02a5db"/><stop offset="0.16" stop-color="#055da6"/><stop offset="0.28" stop-color="#1f4496"/><stop offset="0.37" stop-color="#2e368d"/><stop offset="0.59" stop-color="#833491"/><stop offset="0.81" stop-color="#e61786"/><stop offset="1" stop-color="#e92d2f"/></linearGradient></defs><g id="Layer_2" data-name="Layer 2"><g id="header"><path class="cls-1" d="M127.86,33.12l0-9.59-4.71,7.9h-1.66l-4.69-7.7v9.39H113.3v-16h3.06l6,9.94,5.89-9.94h3l.05,16Z"/><path class="cls-1" d="M147.47,30.15v3H135.08v-16h12.09v3h-8.41v3.47h7.43v2.88h-7.43v3.7Z"/><path class="cls-1" d="M153.7,20.14h-5.12v-3h13.94v3H157.4v13h-3.7Z"/><path class="cls-1" d="M174.22,29.69h-7.43l-1.42,3.43h-3.79l7.13-16h3.66l7.15,16h-3.88Zm-1.17-2.8-2.53-6.13L168,26.89Z"/><path class="cls-1" d="M195.66,17.13l-6.92,16h-3.66l-6.9-16h4l4.87,11.42L192,17.13Z"/><path class="cls-1" d="M209.35,30.15v3H197v-16h12.09v3h-8.41v3.47h7.43v2.88h-7.43v3.7Z"/><path class="cls-1" d="M222.46,33.12l-3.09-4.45H216v4.45h-3.7v-16h6.92c4.27,0,6.95,2.21,6.95,5.8A5.21,5.21,0,0,1,222.85,28l3.58,5.14Zm-3.48-13h-3v5.58h3c2.27,0,3.41-1,3.41-2.79S221.25,20.14,219,20.14Z"/><path class="cls-1" d="M227.77,31.55,229,28.76a9.42,9.42,0,0,0,5.27,1.66c2.2,0,3.09-.73,3.09-1.71,0-3-9.3-.93-9.3-6.88,0-2.71,2.19-5,6.74-5a10.74,10.74,0,0,1,5.56,1.42l-1.15,2.81a9,9,0,0,0-4.43-1.26c-2.19,0-3,.83-3,1.83,0,3,9.3.91,9.3,6.79,0,2.67-2.22,5-6.79,5A11.44,11.44,0,0,1,227.77,31.55Z"/><path class="cls-1" d="M256,30.15v3H243.58v-16h12.09v3h-8.41v3.47h7.42v2.88h-7.42v3.7Z"/><path class="cls-1" d="M258,31.07a2.22,2.22,0,0,1,4.43,0,2.22,2.22,0,1,1-4.43,0Z"/><path class="cls-1" d="M279.76,17.13v16h-3l-8-9.71v9.71h-3.65v-16h3.06l8,9.71V17.13Z"/><path class="cls-1" d="M295.9,30.15v3H283.52v-16H295.6v3h-8.4v3.47h7.42v2.88H287.2v3.7Z"/><path class="cls-1" d="M302.13,20.14H297v-3H311v3h-5.12v13h-3.7Z"/><path class="cls-1" d="M336.8,17.13l-5.24,16h-4l-3.51-10.83-3.64,10.83h-3.95l-5.25-16h3.84l3.6,11.24,3.77-11.24h3.43l3.66,11.33,3.72-11.33Z"/><path class="cls-1" d="M337.61,25.12c0-4.75,3.7-8.27,8.75-8.27s8.76,3.5,8.76,8.27-3.73,8.28-8.76,8.28S337.61,29.88,337.61,25.12Zm13.76,0a5,5,0,1,0-10,0,5,5,0,1,0,10,0Z"/><path class="cls-1" d="M368.06,33.12,365,28.67h-3.41v4.45h-3.7v-16h6.92c4.27,0,6.95,2.21,6.95,5.8A5.2,5.2,0,0,1,368.45,28L372,33.12Zm-3.48-13h-3v5.58h3c2.27,0,3.41-1,3.41-2.79S366.85,20.14,364.58,20.14Z"/><path class="cls-1" d="M380.46,26.84l-2.15,2.24v4h-3.68v-16h3.68V24.6l7.09-7.47h4.11l-6.63,7.13,7,8.86h-4.32Z"/><path class="cls-1" d="M150.73,56.54l.89-2a6.62,6.62,0,0,0,3.71,1.17c1.54,0,2.16-.51,2.16-1.21,0-2.1-6.53-.65-6.53-4.83,0-1.9,1.54-3.5,4.74-3.5a7.54,7.54,0,0,1,3.9,1l-.81,2a6.26,6.26,0,0,0-3.11-.89c-1.54,0-2.13.58-2.13,1.29,0,2.07,6.53.64,6.53,4.76,0,1.88-1.56,3.48-4.77,3.48A8,8,0,0,1,150.73,56.54Z"/><path class="cls-1" d="M171.59,50.48c0,2.51-1.87,4.06-4.88,4.06h-2.26v3.1h-2.6V46.41h4.86C169.72,46.41,171.59,48,171.59,50.48Zm-2.63,0c0-1.23-.8-1.95-2.39-1.95h-2.12v3.9h2.12C168.16,52.43,169,51.71,169,50.48Z"/><path class="cls-1" d="M180.27,55.24h-5.21l-1,2.4H171.4l5-11.23H179l5,11.23h-2.73Zm-.82-2L177.67,49l-1.78,4.3Z"/><path class="cls-1" d="M184.29,52A6.19,6.19,0,0,1,195,48.21l-1.67,1.54a3.62,3.62,0,0,0-2.83-1.32,3.6,3.6,0,0,0,0,7.19,3.6,3.6,0,0,0,2.83-1.33L195,55.83A6.19,6.19,0,0,1,184.29,52Z"/><path class="cls-1" d="M205.46,55.56v2.08h-8.7V46.41h8.49v2.08h-5.91v2.45h5.22v2h-5.22v2.61Z"/><path class="cls-1" d="M220.7,57.83l-1.35-1.24a6,6,0,0,1-3.76,1.24c-2.47,0-4.28-1.28-4.28-3.08,0-1.41.75-2.39,2.47-3.35A3.34,3.34,0,0,1,212.62,49c0-1.63,1.38-2.76,3.5-2.76,1.94,0,3.23,1,3.23,2.59,0,1.15-.68,2-2.2,2.84l2,1.91a7.34,7.34,0,0,0,.57-1.75l2,.63a7.54,7.54,0,0,1-1,2.55l1.31,1.22Zm-2.83-2.61-2.71-2.53c-1,.59-1.4,1.1-1.4,1.79s.77,1.4,2,1.4A3.61,3.61,0,0,0,217.87,55.22Zm-3-6.23c0,.43.18.76.87,1.43,1.11-.59,1.46-1,1.46-1.53s-.38-.93-1.11-.93S214.9,48.4,214.9,49Z"/><path class="cls-1" d="M230.61,48.53H227V46.41h9.79v2.12h-3.59v9.11h-2.6Z"/><path class="cls-1" d="M238.19,46.41h2.6V57.64h-2.6Z"/><path class="cls-1" d="M253.68,57.64l0-6.74-3.3,5.55h-1.17L245.9,51v6.6h-2.45V46.41h2.15l4.21,7,4.14-7h2.14l0,11.23Z"/><path class="cls-1" d="M267.48,55.56v2.08h-8.7V46.41h8.49v2.08h-5.91v2.45h5.22v2h-5.22v2.61Z"/><path class="cls-1" d="M274.08,46.41h2.59V57.64h-2.59Z"/><path class="cls-1" d="M289.64,46.41V57.64h-2.13l-5.6-6.82v6.82h-2.57V46.41h2.15l5.58,6.82V46.41Z"/><path class="cls-1" d="M313.82,46.41l-3.67,11.23h-2.8L304.89,50l-2.56,7.61h-2.78l-3.69-11.23h2.7l2.53,7.89,2.65-7.89h2.41l2.57,8,2.62-8Z"/><path class="cls-1" d="M324,55.56v2.08h-8.7V46.41h8.5v2.08h-5.91v2.45h5.21v2h-5.21v2.61Z"/><path class="cls-1" d="M336.32,54.58c0,1.94-1.54,3.06-4.49,3.06H326V46.41h5.49c2.81,0,4.25,1.17,4.25,2.92a2.71,2.71,0,0,1-1.49,2.47A2.77,2.77,0,0,1,336.32,54.58Zm-7.72-6.21V51h2.58c1.28,0,2-.44,2-1.33s-.68-1.31-2-1.31Zm5.11,5.93c0-.94-.73-1.39-2.07-1.39h-3v2.77h3C333,55.68,333.71,55.27,333.71,54.3Z"/><path class="cls-1" d="M350.42,54.21c0,1.89-1.46,3.62-4.65,3.62a7.72,7.72,0,0,1-4.29-1.2l1-2a5.47,5.47,0,0,0,3.21,1c1.3,0,2.1-.53,2.1-1.44s-.62-1.38-2.1-1.38h-1.19V51.11l2.31-2.62H342V46.41h7.87v1.68L347.37,51A3.19,3.19,0,0,1,350.42,54.21Z"/><path class="cls-2" d="M17.84,47H1a.94.94,0,0,0-.95.95v8.44H0V64.8a.94.94,0,0,0,1,.94H17.84a.94.94,0,0,0,.94-.94V56.35h0V47.91A.94.94,0,0,0,17.84,47Z"/><path class="cls-1" d="M32,0H1A.94.94,0,0,0,0,1V35.29H0v4.19a.94.94,0,0,0,1,.94H17.84a.94.94,0,0,0,.94-.94V31h0V22.59h0V19.89a1.12,1.12,0,0,1,1.11-1.11H32a.94.94,0,0,0,.95-.94V9.39h0V1A.94.94,0,0,0,32,0Z"/><path class="cls-1" d="M93.64,12.57,81.34.27A1.18,1.18,0,0,0,81,.08,1,1,0,0,0,80.63,0H38.51a1,1,0,0,0-.95,1V9.39h0V64.8a1,1,0,0,0,.95.94H55.4a1,1,0,0,0,1-.94V19.89a1.11,1.11,0,0,1,1.11-1.11H73.82a1.2,1.2,0,0,1,1.31,1.37V64.8a1,1,0,0,0,1,.94H93a1,1,0,0,0,1-.94V13.28A1.12,1.12,0,0,0,93.64,12.57Z"/></g></g></svg>