<svg xmlns="http://www.w3.org/2000/svg" xmlns:xlink="http://www.w3.org/1999/xlink" viewBox="0 0 34.65 34.65"><defs><style>.cls-1{fill:url(#linear-gradient);}.cls-2{fill:#fff;}</style><linearGradient id="linear-gradient" x1="5.07" y1="5.07" x2="29.58" y2="29.58" gradientTransform="translate(17.33 -7.18) rotate(45)" gradientUnits="userSpaceOnUse"><stop offset="0" stop-color="#222"/><stop offset="0.32" stop-color="#101010"/><stop offset="0.66" stop-color="#040404"/><stop offset="1"/></linearGradient></defs><g id="Layer_2" data-name="Layer 2"><g id="text"><circle class="cls-1" cx="17.33" cy="17.33" r="17.33" transform="translate(-7.18 17.33) rotate(-45)"/><path class="cls-2" d="M13.83,27.3A13,13,0,0,0,26.92,14.21c0-.19,0-.39,0-.59a9.46,9.46,0,0,0,2.3-2.38,9.38,9.38,0,0,1-2.64.72,4.69,4.69,0,0,0,2-2.54,9.3,9.3,0,0,1-2.92,1.11,4.61,4.61,0,0,0-8,3.15,4.57,4.57,0,0,0,.12,1.05A13,13,0,0,1,8.33,9.92a4.65,4.65,0,0,0-.62,2.32,4.57,4.57,0,0,0,2.05,3.82,4.59,4.59,0,0,1-2.09-.57v.06a4.6,4.6,0,0,0,3.69,4.51,4.78,4.78,0,0,1-1.21.16,4.82,4.82,0,0,1-.86-.08,4.6,4.6,0,0,0,4.29,3.19,9.16,9.16,0,0,1-5.71,2,10,10,0,0,1-1.1-.06,13.09,13.09,0,0,0,7.06,2.06"/></g></g></svg>