<svg xmlns="http://www.w3.org/2000/svg" viewBox="0 0 552 69"><g id="Layer_2" data-name="Layer 2"><g id="graphic"><polygon points="539.25 0 534.15 0 552 9.12 552 6.51 539.25 0" fill="#fff"/><polygon points="513.73 0 508.63 0 552 22.16 552 19.55 513.73 0" fill="#fff"/><polygon points="488.21 0 483.11 0 552 35.2 552 32.6 488.21 0" fill="#fff"/><polygon points="462.69 0 457.59 0 552 48.24 552 45.64 462.69 0" fill="#fff"/><polygon points="437.18 0 432.07 0 552 61.28 552 58.68 437.18 0" fill="#fff"/><polygon points="412.33 0 407.24 0 542.27 69 547.36 69 412.33 0" fill="#fff"/><polygon points="386.81 0 381.73 0 516.75 69 521.84 69 386.81 0" fill="#fff"/><polygon points="361.29 0 356.21 0 491.23 69 496.32 69 361.29 0" fill="#fff"/><polygon points="335.77 0 330.69 0 465.71 69 470.8 69 335.77 0" fill="#fff"/><polygon points="310.25 0 305.17 0 440.2 69 445.28 69 310.25 0" fill="#fff"/><polygon points="284.73 0 279.65 0 414.68 69 419.76 69 284.73 0" fill="#fff"/><polygon points="259.21 0 254.13 0 389.16 69 394.24 69 259.21 0" fill="#fff"/><polygon points="233.7 0 228.61 0 363.64 69 368.72 69 233.7 0" fill="#fff"/><polygon points="208.18 0 203.09 0 338.12 69 343.2 69 208.18 0" fill="#fff"/><polygon points="182.66 0 177.57 0 312.6 69 317.69 69 182.66 0" fill="#fff"/><polygon points="157.14 0 152.06 0 287.08 69 292.17 69 157.14 0" fill="#fff"/><polygon points="131.62 0 126.54 0 261.56 69 266.65 69 131.62 0" fill="#fff"/><polygon points="106.1 0 101.02 0 236.04 69 241.13 69 106.1 0" fill="#fff"/><polygon points="80.58 0 75.5 0 210.53 69 215.61 69 80.58 0" fill="#fff"/><polygon points="55.06 0 49.98 0 185.01 69 190.09 69 55.06 0" fill="#fff"/><polygon points="29.55 0 24.46 0 159.49 69 164.57 69 29.55 0" fill="#fff"/><polygon points="3.66 0 0 0 0 0.73 133.61 69 138.69 69 3.66 0" fill="#fff"/><polygon points="0 10.9 0 13.51 108.59 69 113.7 69 0 10.9" fill="#fff"/><polygon points="0 23.94 0 26.55 83.08 69 88.18 69 0 23.94" fill="#fff"/><polygon points="0 36.98 0 39.59 57.56 69 62.66 69 0 36.98" fill="#fff"/><polygon points="0 50.02 0 52.63 32.04 69 37.14 69 0 50.02" fill="#fff"/><polygon points="0 63.06 0 65.67 6.52 69 11.62 69 0 63.06" fill="#fff"/></g></g></svg>