<svg xmlns="http://www.w3.org/2000/svg" viewBox="0 0 201.29 25.14"><g id="Layer_2" data-name="Layer 2"><g id="graphic"><path d="M176.13,25.14c-8.41,0-12.61-5.55-16-10C157,10.9,154.94,8.5,151,8.5s-6,2.4-9.19,6.63c-3.37,4.46-7.57,10-16,10s-12.6-5.55-16-10c-3.2-4.23-5.21-6.63-9.19-6.63s-6,2.4-9.19,6.63c-3.37,4.46-7.56,10-16,10s-12.6-5.55-16-10C56.3,10.9,54.3,8.5,50.32,8.5s-6,2.4-9.19,6.63c-3.37,4.46-7.57,10-16,10s-12.6-5.55-16-10C6,10.9,4,8.5,0,8.5V0C8.4,0,12.6,5.55,16,10c3.2,4.24,5.21,6.64,9.19,6.64s6-2.4,9.19-6.64c3.37-4.45,7.56-10,16-10s12.6,5.55,16,10c3.2,4.24,5.21,6.64,9.19,6.64s6-2.4,9.18-6.64c3.37-4.45,7.57-10,16-10s12.6,5.55,16,10c3.21,4.24,5.21,6.64,9.19,6.64s6-2.4,9.2-6.64c3.37-4.45,7.56-10,16-10s12.6,5.55,16,10c3.21,4.24,5.21,6.64,9.2,6.64s6-2.4,9.19-6.64c3.37-4.45,7.57-10,16-10V8.5c-4,0-6,2.4-9.19,6.63C188.73,19.59,184.53,25.14,176.13,25.14Z" fill="#fff"/></g></g></svg>