<svg xmlns="http://www.w3.org/2000/svg" xmlns:xlink="http://www.w3.org/1999/xlink" viewBox="0 0 34.65 34.65"><defs><style>.cls-1{fill:url(#linear-gradient);}.cls-2{fill:#fff;}</style><linearGradient id="linear-gradient" x1="5.07" y1="5.07" x2="29.58" y2="29.58" gradientTransform="translate(17.33 -7.18) rotate(45)" gradientUnits="userSpaceOnUse"><stop offset="0" stop-color="#222"/><stop offset="0.32" stop-color="#101010"/><stop offset="0.66" stop-color="#040404"/><stop offset="1"/></linearGradient></defs><g id="Layer_2" data-name="Layer 2"><g id="text"><circle class="cls-1" cx="17.33" cy="17.33" r="17.33" transform="translate(-7.18 17.33) rotate(-45)"/><path class="cls-2" d="M10.28,13.19a.63.63,0,0,0-.21-.56l-1.63-2v-.29h5l3.89,8.54,3.43-8.54h4.8v.29L24.21,12a.39.39,0,0,0-.15.39v9.77a.39.39,0,0,0,.15.39l1.36,1.33v.29H18.75v-.29l1.41-1.36c.13-.14.13-.18.13-.39v-7.9l-3.9,9.91h-.52l-4.55-9.91v6.64a1,1,0,0,0,.25.76l1.83,2.22v.29H8.22v-.29l1.83-2.22a.88.88,0,0,0,.23-.76Z"/></g></g></svg>