<svg xmlns="http://www.w3.org/2000/svg" viewBox="0 0 311 39"><g id="Layer_2" data-name="Layer 2"><g id="graphic"><polygon points="303.82 0 300.95 0 311 5.14 311 3.67 303.82 0" fill="#fff"/><polygon points="289.45 0 286.58 0 311 12.48 311 11.01 289.45 0" fill="#fff"/><polygon points="275.08 0 272.21 0 311 19.82 311 18.35 275.08 0" fill="#fff"/><polygon points="260.71 0 257.84 0 311 27.16 311 25.7 260.71 0" fill="#fff"/><polygon points="246.34 0 243.47 0 311 34.51 311 33.04 246.34 0" fill="#fff"/><polygon points="231.98 0 229.1 0 305.42 39 308.3 39 231.98 0" fill="#fff"/><polygon points="217.61 0 214.73 0 291.05 39 293.93 39 217.61 0" fill="#fff"/><polygon points="203.24 0 200.36 0 276.68 39 279.56 39 203.24 0" fill="#fff"/><polygon points="188.87 0 186 0 262.31 39 265.19 39 188.87 0" fill="#fff"/><polygon points="174.5 0 171.63 0 247.95 39 250.82 39 174.5 0" fill="#fff"/><polygon points="160.13 0 157.26 0 233.58 39 236.45 39 160.13 0" fill="#fff"/><polygon points="145.76 0 142.89 0 219.21 39 222.08 39 145.76 0" fill="#fff"/><polygon points="131.39 0 128.52 0 204.84 39 207.71 39 131.39 0" fill="#fff"/><polygon points="117.02 0 114.15 0 190.47 39 193.34 39 117.02 0" fill="#fff"/><polygon points="102.65 0 99.78 0 176.1 39 178.97 39 102.65 0" fill="#fff"/><polygon points="88.28 0 85.41 0 161.73 39 164.6 39 88.28 0" fill="#fff"/><polygon points="73.92 0 71.04 0 147.36 39 150.24 39 73.92 0" fill="#fff"/><polygon points="59.55 0 56.67 0 132.99 39 135.87 39 59.55 0" fill="#fff"/><polygon points="45.18 0 42.3 0 118.62 39 121.5 39 45.18 0" fill="#fff"/><polygon points="30.81 0 27.93 0 104.25 39 107.13 39 30.81 0" fill="#fff"/><polygon points="16.44 0 13.57 0 89.89 39 92.76 39 16.44 0" fill="#fff"/><polygon points="2.07 0 0 0 0 0.41 75.52 39 78.39 39 2.07 0" fill="#fff"/><polygon points="0 6.29 0 7.75 61.15 39 64.02 39 0 6.29" fill="#fff"/><polygon points="0 13.63 0 15.1 46.78 39 49.65 39 0 13.63" fill="#fff"/><polygon points="0 20.97 0 22.44 32.41 39 35.28 39 0 20.97" fill="#fff"/><polygon points="0 28.31 0 29.78 18.04 39 20.91 39 0 28.31" fill="#fff"/><polygon points="0 35.66 0 37.12 3.67 39 6.54 39 0 35.66" fill="#fff"/></g></g></svg>