<svg xmlns="http://www.w3.org/2000/svg" xmlns:xlink="http://www.w3.org/1999/xlink" viewBox="0 0 34.65 34.65"><defs><style>.cls-1{fill:url(#linear-gradient);}.cls-2{fill:#fff;}</style><linearGradient id="linear-gradient" x1="5.07" y1="5.07" x2="29.58" y2="29.58" gradientTransform="translate(17.33 -7.18) rotate(45)" gradientUnits="userSpaceOnUse"><stop offset="0" stop-color="#222"/><stop offset="0.32" stop-color="#101010"/><stop offset="0.66" stop-color="#040404"/><stop offset="1"/></linearGradient></defs><g id="Layer_2" data-name="Layer 2"><g id="text"><circle class="cls-1" cx="17.33" cy="17.33" r="17.33" transform="translate(-7.18 17.33) rotate(-45)"/><path class="cls-2" d="M30.76,17.22A13.44,13.44,0,1,0,13,29.92a1.28,1.28,0,0,0,.7-1c0-.74,0-2.64,0-2.64a9.17,9.17,0,0,1-1.41.1,3.05,3.05,0,0,1-3.08-2.07,3.6,3.6,0,0,0-1.51-1.79c-.35-.23-.43-.49,0-.57,1.85-.34,2.33,2.1,3.57,2.49a3.52,3.52,0,0,0,2.58-.21,2.69,2.69,0,0,1,1.07-1.73c-3.15-.3-5-1.39-6-3.14l-.11-.2-.24-.55-.07-.2A9.28,9.28,0,0,1,8,15.36a5.19,5.19,0,0,1,1.48-3.85,5.38,5.38,0,0,1,.23-3.87s1.37-.28,4,1.55a14.49,14.49,0,0,1,6.89-.13c1.08-.71,3.06-1.72,3.86-1.44.22.35.68,1.36.28,3.57a6.3,6.3,0,0,1,1.69,4.46A11.32,11.32,0,0,1,26,18.41l-.11.4-.14.36-.09.2c-.93,2-2.85,2.8-6,3.12,1,.63,1.29,1.42,1.29,3.55s0,2.42,0,2.91a1.35,1.35,0,0,0,.66,1A13.44,13.44,0,0,0,30.76,17.22Z"/></g></g></svg>