<svg xmlns="http://www.w3.org/2000/svg" viewBox="0 0 1357.45 950.25"><g id="Layer_2" data-name="Layer 2"><g id="bg"><path d="M257.82,678.76H13.7A13.68,13.68,0,0,0,0,692.44V814.5H0V936.56A13.69,13.69,0,0,0,13.7,950.25H257.82a13.69,13.69,0,0,0,13.69-13.69V814.5h0V692.44A13.68,13.68,0,0,0,257.82,678.76Z"/><path d="M462.86,0H13.69A13.69,13.69,0,0,0,0,13.69V510.12H0V570.6A13.69,13.69,0,0,0,13.7,584.29H257.82a13.69,13.69,0,0,0,13.69-13.69V448.54h0V326.48s0,0,0-.06V287.55a16,16,0,0,1,16-16.05H462.86a13.68,13.68,0,0,0,13.68-13.69v-122h0V13.7A13.68,13.68,0,0,0,462.86,0Z"/><path d="M1353.41,181.62,1175.67,3.94A17,17,0,0,0,1171,1.1,14.55,14.55,0,0,0,1165.46,0H556.63A13.69,13.69,0,0,0,542.94,13.7V135.75h0v800.8a13.69,13.69,0,0,0,13.69,13.69H800.76a13.69,13.69,0,0,0,13.69-13.69v-649a16,16,0,0,1,16-16h236.44c17.65,0,19,13,19,19.75V936.56a13.69,13.69,0,0,0,13.69,13.69h244.13a13.69,13.69,0,0,0,13.69-13.69V192A15.87,15.87,0,0,0,1353.41,181.62Z"/></g></g></svg>