<svg xmlns="http://www.w3.org/2000/svg" viewBox="0 0 113.34 23.52"><g id="Layer_2" data-name="Layer 2"><g id="graphic"><path d="M113.34,23.52c-7,0-10.39-5.59-13.38-10.52-3.09-5.11-5.26-8.21-9.29-8.21S84.48,7.89,81.39,13C78.4,17.93,75,23.52,68,23.52S57.6,17.93,54.62,13c-3.09-5.11-5.26-8.21-9.29-8.21S39.14,7.89,36.05,13c-3,4.93-6.37,10.52-13.38,10.52S12.27,17.93,9.29,13C6.19,7.89,4,4.79,0,4.79V0C7,0,10.4,5.59,13.38,10.52c3.09,5.11,5.26,8.22,9.29,8.22s6.19-3.11,9.28-8.22C34.94,5.59,38.32,0,45.33,0s10.4,5.59,13.39,10.52C61.81,15.63,64,18.74,68,18.74s6.2-3.11,9.29-8.22C80.27,5.59,83.66,0,90.67,0s10.4,5.59,13.39,10.52c3.09,5.11,5.26,8.22,9.28,8.22Z" fill="#fff"/></g></g></svg>