<svg xmlns="http://www.w3.org/2000/svg" xmlns:xlink="http://www.w3.org/1999/xlink" viewBox="0 0 34.65 34.65"><defs><style>.cls-1{fill:url(#linear-gradient);}.cls-2{fill:#fff;}</style><linearGradient id="linear-gradient" x1="0.8" y1="17.33" x2="35.45" y2="17.33" gradientTransform="translate(17.33 -7.18) rotate(45)" gradientUnits="userSpaceOnUse"><stop offset="0" stop-color="#222"/><stop offset="0.32" stop-color="#101010"/><stop offset="0.66" stop-color="#040404"/><stop offset="1"/></linearGradient></defs><g id="Layer_2" data-name="Layer 2"><g id="text"><circle class="cls-1" cx="17.33" cy="17.33" r="17.33" transform="translate(-7.18 17.33) rotate(-45)"/><path class="cls-2" d="M27.67,14.48A4.7,4.7,0,0,0,23,9.78h-12a4.69,4.69,0,0,0-4.7,4.7v5.59a4.7,4.7,0,0,0,4.7,4.71H23a4.71,4.71,0,0,0,4.71-4.71ZM20.59,17.7,15.2,20.36c-.21.12-.93,0-.93-.28V14.61c0-.25.73-.4.94-.28l5.16,2.81C20.59,17.26,20.81,17.58,20.59,17.7Z"/></g></g></svg>