<svg xmlns="http://www.w3.org/2000/svg" xmlns:xlink="http://www.w3.org/1999/xlink" viewBox="0 0 1485.08 1021.74"><defs><style>.cls-1{isolation:isolate;}.cls-10,.cls-11,.cls-12,.cls-13,.cls-14,.cls-15,.cls-16,.cls-17,.cls-18,.cls-19,.cls-2,.cls-20,.cls-21,.cls-22,.cls-23,.cls-24,.cls-25,.cls-26,.cls-3,.cls-4,.cls-5,.cls-6,.cls-7,.cls-8,.cls-9{mix-blend-mode:screen;}.cls-2{fill:url(#radial-gradient);}.cls-3{fill:url(#radial-gradient-2);}.cls-4{fill:url(#radial-gradient-3);}.cls-5{fill:url(#radial-gradient-4);}.cls-6{fill:url(#radial-gradient-5);}.cls-7{fill:url(#radial-gradient-6);}.cls-8{fill:url(#radial-gradient-7);}.cls-9{fill:url(#radial-gradient-8);}.cls-10{fill:url(#radial-gradient-9);}.cls-11{fill:url(#radial-gradient-10);}.cls-12{fill:url(#radial-gradient-11);}.cls-13{fill:url(#radial-gradient-12);}.cls-14{fill:url(#radial-gradient-13);}.cls-15{fill:url(#radial-gradient-14);}.cls-16{fill:url(#radial-gradient-15);}.cls-17{fill:url(#radial-gradient-16);}.cls-18{fill:url(#radial-gradient-17);}.cls-19{fill:url(#radial-gradient-18);}.cls-20{fill:url(#radial-gradient-19);}.cls-21{fill:url(#radial-gradient-20);}.cls-22{fill:url(#radial-gradient-21);}.cls-23{fill:url(#radial-gradient-22);}.cls-24{fill:url(#radial-gradient-23);}.cls-25{fill:url(#radial-gradient-24);}.cls-26{fill:url(#radial-gradient-25);}</style><radialGradient id="radial-gradient" cx="152.02" cy="-5063.62" r="28.93" gradientTransform="matrix(-0.83, -0.01, -0.01, 0.83, 674.98, 4515.12)" gradientUnits="userSpaceOnUse"><stop offset="0.08" stop-color="#fff"/><stop offset="0.09" stop-color="#a600ff"/><stop offset="0.09" stop-color="#a200f9"/><stop offset="0.16" stop-color="#8000c5"/><stop offset="0.24" stop-color="#620096"/><stop offset="0.32" stop-color="#48006e"/><stop offset="0.4" stop-color="#31004c"/><stop offset="0.49" stop-color="#1f0030"/><stop offset="0.59" stop-color="#11001b"/><stop offset="0.69" stop-color="#08000c"/><stop offset="0.82" stop-color="#020003"/><stop offset="1"/></radialGradient><radialGradient id="radial-gradient-2" cx="-304" cy="-4749.61" r="28.93" xlink:href="#radial-gradient"/><radialGradient id="radial-gradient-3" cx="205.39" cy="-4560.06" r="23.05" xlink:href="#radial-gradient"/><radialGradient id="radial-gradient-4" cx="-88.59" cy="-4611.32" r="47.37" xlink:href="#radial-gradient"/><radialGradient id="radial-gradient-5" cx="-216.1" cy="-4797.3" r="28.93" xlink:href="#radial-gradient"/><radialGradient id="radial-gradient-6" cx="-51.95" cy="-5126.74" r="35.43" xlink:href="#radial-gradient"/><radialGradient id="radial-gradient-7" cx="-615.41" cy="-4592.93" r="35.43" xlink:href="#radial-gradient"/><radialGradient id="radial-gradient-8" cx="-292.95" cy="-4620.09" r="28.93" xlink:href="#radial-gradient"/><radialGradient id="radial-gradient-9" cx="26.6" cy="-4760.84" r="28.93" xlink:href="#radial-gradient"/><radialGradient id="radial-gradient-10" cx="520.73" cy="-5250.89" r="28.93" xlink:href="#radial-gradient"/><radialGradient id="radial-gradient-11" cx="-57.07" cy="-4817.16" r="23.05" xlink:href="#radial-gradient"/><radialGradient id="radial-gradient-12" cx="579.88" cy="-4807.03" r="23.05" xlink:href="#radial-gradient"/><radialGradient id="radial-gradient-13" cx="-755.72" cy="-4636.36" r="23.05" xlink:href="#radial-gradient"/><radialGradient id="radial-gradient-14" cx="-346.7" cy="-4245.07" r="23.05" xlink:href="#radial-gradient"/><radialGradient id="radial-gradient-15" cx="88.57" cy="-4893.39" r="23.05" xlink:href="#radial-gradient"/><radialGradient id="radial-gradient-16" cx="364.93" cy="-5426.37" r="23.05" xlink:href="#radial-gradient"/><radialGradient id="radial-gradient-17" cx="534.44" cy="-4552.53" r="23.05" xlink:href="#radial-gradient"/><radialGradient id="radial-gradient-18" cx="-642.52" cy="-4426.41" r="23.05" xlink:href="#radial-gradient"/><radialGradient id="radial-gradient-19" cx="-507.36" cy="-4856.89" r="23.05" xlink:href="#radial-gradient"/><radialGradient id="radial-gradient-20" cx="811.49" cy="-4772.72" r="47.37" xlink:href="#radial-gradient"/><radialGradient id="radial-gradient-21" cx="157.28" cy="-4819.55" r="47.37" xlink:href="#radial-gradient"/><radialGradient id="radial-gradient-22" cx="-476.22" cy="-5054.84" r="47.37" xlink:href="#radial-gradient"/><radialGradient id="radial-gradient-23" cx="-237.2" cy="-4877.78" r="47.37" xlink:href="#radial-gradient"/><radialGradient id="radial-gradient-24" cx="-54.61" cy="-4940.43" r="47.37" xlink:href="#radial-gradient"/><radialGradient id="radial-gradient-25" cx="-891.43" cy="-4316.14" r="47.37" xlink:href="#radial-gradient"/></defs><g class="cls-1"><g id="Layer_2" data-name="Layer 2"><g id="graphic"><path class="cls-2" d="M563.55,320.86a24,24,0,1,0,24.17-23.74A23.95,23.95,0,0,0,563.55,320.86Z"/><path class="cls-3" d="M938.77,584.33a24,24,0,1,0,24.17-23.74A24,24,0,0,0,938.77,584.33Z"/><path class="cls-4" d="M520.4,737.47a19.09,19.09,0,1,0,19.26-18.92A19.09,19.09,0,0,0,520.4,737.47Z"/><path class="cls-5" d="M744.08,697.07a39.23,39.23,0,1,0,39.58-38.87A39.21,39.21,0,0,0,744.08,697.07Z"/><path class="cls-6" d="M866.34,544.17a24,24,0,1,0,24.17-23.73A24,24,0,0,0,866.34,544.17Z"/><path class="cls-7" d="M727.53,270.09A29.34,29.34,0,1,0,757.14,241,29.34,29.34,0,0,0,727.53,270.09Z"/><path class="cls-8" d="M1190.05,716.38a29.34,29.34,0,1,0,29.61-29.07A29.35,29.35,0,0,0,1190.05,716.38Z"/><path class="cls-9" d="M928.64,691.49a24,24,0,1,0,24.17-23.73A23.95,23.95,0,0,0,928.64,691.49Z"/><path class="cls-10" d="M665.1,572.53a24,24,0,1,0,24.17-23.74A24,24,0,0,0,665.1,572.53Z"/><path class="cls-11" d="M259.66,163a24,24,0,1,0,24.17-23.73A24,24,0,0,0,259.66,163Z"/><path class="cls-12" d="M739.68,526.57a19.09,19.09,0,1,0,19.26-18.91A19.09,19.09,0,0,0,739.68,526.57Z"/><path class="cls-13" d="M212.18,530.13a19.09,19.09,0,1,0,19.26-18.92A19.09,19.09,0,0,0,212.18,530.13Z"/><path class="cls-14" d="M1316.82,681.57a19.09,19.09,0,1,0,19.26-18.91A19.09,19.09,0,0,0,1316.82,681.57Z"/><path class="cls-15" d="M975.17,1002.48a19.09,19.09,0,1,0,19.26-18.92A19.09,19.09,0,0,0,975.17,1002.48Z"/><path class="cls-16" d="M619.66,462.34a19.09,19.09,0,1,0,19.26-18.91A19.08,19.08,0,0,0,619.66,462.34Z"/><path class="cls-17" d="M394.87,18.91A19.09,19.09,0,1,0,414.13,0,19.07,19.07,0,0,0,394.87,18.91Z"/><path class="cls-18" d="M247.88,741.21a19.09,19.09,0,1,0,19.26-18.91A19.09,19.09,0,0,0,247.88,741.21Z"/><path class="cls-19" d="M1221.5,854.57a19.09,19.09,0,1,0,19.26-18.92A19.09,19.09,0,0,0,1221.5,854.57Z"/><path class="cls-20" d="M1112.84,497.09a19.09,19.09,0,1,0,19.26-18.91A19.09,19.09,0,0,0,1112.84,497.09Z"/><path class="cls-21" d="M0,556.6a39.23,39.23,0,1,0,39.58-38.87A39.23,39.23,0,0,0,0,556.6Z"/><path class="cls-22" d="M542.07,522.79a39.23,39.23,0,1,0,39.58-38.87A39.22,39.22,0,0,0,542.07,522.79Z"/><path class="cls-23" d="M1068.42,332.76A39.23,39.23,0,1,0,1108,293.89,39.22,39.22,0,0,0,1068.42,332.76Z"/><path class="cls-24" d="M869.15,477.56a39.23,39.23,0,1,0,39.58-38.87A39.24,39.24,0,0,0,869.15,477.56Z"/><path class="cls-25" d="M718.44,424.29A39.23,39.23,0,1,0,758,385.43,39.21,39.21,0,0,0,718.44,424.29Z"/><path class="cls-26" d="M1406.63,947.58a39.23,39.23,0,1,0,39.58-38.87A39.22,39.22,0,0,0,1406.63,947.58Z"/></g></g></g></svg>