<svg xmlns="http://www.w3.org/2000/svg" viewBox="0 0 352.29 295.74"><defs><style>.cls-1{isolation:isolate;}.cls-2{mix-blend-mode:screen;}.cls-3{fill:#010000;}.cls-4{fill:#020000;}.cls-5{fill:#030000;}.cls-6{fill:#040000;}.cls-7{fill:#050000;}.cls-8{fill:#060000;}.cls-9{fill:#070000;}.cls-10{fill:#080000;}.cls-11{fill:#090000;}.cls-12{fill:#0a0000;}.cls-13{fill:#0b0000;}.cls-14{fill:#0c0000;}.cls-15{fill:#0d0000;}.cls-16{fill:#0e0000;}.cls-17{fill:#0f0000;}.cls-18{fill:#100000;}.cls-19{fill:#100;}.cls-20{fill:#120000;}.cls-21{fill:#130000;}.cls-22{fill:#140000;}.cls-23{fill:#150000;}.cls-24{fill:#160000;}.cls-25{fill:#170000;}.cls-26{fill:#180000;}.cls-27{fill:#190000;}.cls-28{fill:#1a0000;}.cls-29{fill:#1b0000;}.cls-30{fill:#1c0000;}.cls-31{fill:#1d0000;}.cls-32{fill:#1e0000;}.cls-33{fill:#1f0000;}.cls-34{fill:#200000;}.cls-35{fill:#210000;}.cls-36{fill:#200;}.cls-37{fill:#230000;}.cls-38{fill:#240000;}.cls-39{fill:#250000;}.cls-40{fill:#260000;}.cls-41{fill:#270000;}.cls-42{fill:#280000;}.cls-43{fill:#290000;}.cls-44{fill:#2a0000;}.cls-45{fill:#2b0000;}.cls-46{fill:#2c0000;}.cls-47{fill:#2d0000;}.cls-48{fill:#2e0000;}.cls-49{fill:#2f0000;}.cls-50{fill:#300000;}.cls-51{fill:#310000;}.cls-52{fill:#320000;}.cls-53{fill:#300;}.cls-54{fill:#340000;}.cls-55{fill:#350000;}.cls-56{fill:#360000;}.cls-57{fill:#370000;}.cls-58{fill:#380000;}.cls-59{fill:#390000;}.cls-60{fill:#3a0000;}.cls-61{fill:#3b0000;}.cls-62{fill:#3c0000;}.cls-63{fill:#3d0000;}.cls-64{fill:#3e0000;}.cls-65{fill:#3f0000;}.cls-66{fill:#400000;}.cls-67{fill:#410000;}.cls-68{fill:#420000;}.cls-69{fill:#430000;}.cls-70{fill:#400;}.cls-71{fill:#450000;}.cls-72{fill:#460000;}.cls-73{fill:#470000;}.cls-74{fill:#480000;}.cls-75{fill:#490000;}.cls-76{fill:#4a0000;}.cls-77{fill:#4b0000;}.cls-78{fill:#4c0000;}.cls-79{fill:#4d0000;}.cls-80{fill:#4e0000;}.cls-81{fill:#4f0000;}.cls-82{fill:#500000;}.cls-83{fill:#510000;}.cls-84{fill:#520000;}.cls-85{fill:#530000;}.cls-86{fill:#540000;}.cls-87{fill:#500;}.cls-88{fill:#560000;}.cls-89{fill:#570000;}.cls-90{fill:#580000;}.cls-91{fill:#590000;}.cls-92{fill:#5a0000;}.cls-93{fill:#5b0000;}.cls-94{fill:#5c0000;}.cls-95{fill:#5d0000;}.cls-96{fill:#5e0000;}.cls-97{fill:#5f0000;}.cls-98{fill:#600000;}.cls-99{fill:#610000;}.cls-100{fill:#620000;}.cls-101{fill:#630000;}.cls-102{fill:#640000;}.cls-103{fill:#650000;}.cls-104{fill:#600;}.cls-105{fill:#670000;}.cls-106{fill:#680000;}.cls-107{fill:#690000;}.cls-108{fill:#6a0000;}.cls-109{fill:#6b0000;}.cls-110{fill:#6c0000;}.cls-111{fill:#6d0000;}.cls-112{fill:#6e0000;}.cls-113{fill:#6f0000;}.cls-114{fill:#700000;}.cls-115{fill:#710000;}.cls-116{fill:#720000;}.cls-117{fill:#730000;}.cls-118{fill:#740000;}.cls-119{fill:#750000;}.cls-120{fill:#760000;}.cls-121{fill:#700;}.cls-122{fill:#780000;}.cls-123{fill:#790000;}.cls-124{fill:#7a0000;}.cls-125{fill:#7b0000;}.cls-126{fill:#7c0000;}.cls-127{fill:#7d0000;}.cls-128{fill:#7e0000;}.cls-129{fill:#7f0000;}.cls-130{fill:maroon;}.cls-131{fill:#810000;}.cls-132{fill:#820000;}.cls-133{fill:#830000;}.cls-134{fill:#840000;}.cls-135{fill:#850000;}.cls-136{fill:#860000;}.cls-137{fill:#870000;}.cls-138{fill:#800;}.cls-139{fill:#890000;}.cls-140{fill:#8a0000;}.cls-141{fill:#8b0000;}.cls-142{fill:#8c0000;}.cls-143{fill:#8d0000;}.cls-144{fill:#8e0000;}.cls-145{fill:#8f0000;}.cls-146{fill:#900000;}.cls-147{fill:#910000;}.cls-148{fill:#920000;}.cls-149{fill:#930000;}.cls-150{fill:#940000;}.cls-151{fill:#950000;}.cls-152{fill:#960000;}.cls-153{fill:#970000;}.cls-154{fill:#980000;}.cls-155{fill:#900;}.cls-156{fill:#9a0000;}.cls-157{fill:#9b0000;}.cls-158{fill:#9c0000;}.cls-159{fill:#9d0000;}.cls-160{fill:#9e0000;}.cls-161{fill:#9f0000;}.cls-162{fill:#a00000;}.cls-163{fill:#a10000;}.cls-164{fill:#a20000;}.cls-165{fill:#a30000;}.cls-166{fill:#a40000;}.cls-167{fill:#a50000;}.cls-168{fill:#a60000;}.cls-169{fill:#a70000;}.cls-170{fill:#a80000;}.cls-171{fill:#a90000;}.cls-172{fill:#a00;}.cls-173{fill:#ab0000;}.cls-174{fill:#ac0000;}.cls-175{fill:#ad0000;}.cls-176{fill:#ae0000;}.cls-177{fill:#af0000;}.cls-178{fill:#b00000;}.cls-179{fill:#b10000;}.cls-180{fill:#b20000;}.cls-181{fill:#b30000;}.cls-182{fill:#b40000;}.cls-183{fill:#b50000;}.cls-184{fill:#b60000;}.cls-185{fill:#b70000;}.cls-186{fill:#b80000;}.cls-187{fill:#b90000;}.cls-188{fill:#ba0000;}.cls-189{fill:#b00;}.cls-190{fill:#bc0000;}.cls-191{fill:#bd0000;}.cls-192{fill:#be0000;}.cls-193{fill:#bf0000;}.cls-194{fill:#c00000;}.cls-195{fill:#c10000;}.cls-196{fill:#c20000;}.cls-197{fill:#c30000;}.cls-198{fill:#c40000;}.cls-199{fill:#c50000;}.cls-200{fill:#c60000;}.cls-201{fill:#c70000;}.cls-202{fill:#c80000;}.cls-203{fill:#c90000;}.cls-204{fill:#ca0000;}.cls-205{fill:#cb0000;}.cls-206{fill:#c00;}.cls-207{fill:#cd0000;}.cls-208{fill:#ce0000;}.cls-209{fill:#cf0000;}.cls-210{fill:#d00000;}.cls-211{fill:#d10000;}.cls-212{fill:#d20000;}.cls-213{fill:#d30000;}.cls-214{fill:#d40000;}.cls-215{fill:#d50000;}.cls-216{fill:#d60000;}.cls-217{fill:#d70000;}.cls-218{fill:#d80000;}.cls-219{fill:#d90100;}.cls-220{fill:#d90200;}.cls-221{fill:#da0300;}.cls-222{fill:#db0400;}.cls-223{fill:#dc0500;}.cls-224{fill:#dc0600;}.cls-225{fill:#dd0700;}.cls-226{fill:#de0800;}.cls-227{fill:#df0900;}.cls-228{fill:#df0a00;}.cls-229{fill:#e00b00;}.cls-230{fill:#e10c00;}.cls-231{fill:#e20d00;}.cls-232{fill:#e20e00;}.cls-233{fill:#e30f00;}.cls-234{fill:#e41000;}.cls-235{fill:#e51100;}.cls-236{fill:#e51200;}.cls-237{fill:#e61300;}.cls-238{fill:#e71400;}.cls-239{fill:#e71500;}.cls-240{fill:#e81600;}.cls-241{fill:#e91700;}.cls-242{fill:#ea1800;}.cls-243{fill:#ea1900;}.cls-244{fill:#eb1a00;}.cls-245{fill:#ec1a00;}.cls-246{fill:#ed1b00;}.cls-247{fill:#ed1c00;}.cls-248{fill:#ee1d00;}.cls-249{fill:#ef1e00;}.cls-250{fill:#f01f00;}.cls-251{fill:#f02000;}.cls-252{fill:#f12100;}.cls-253{fill:#f22200;}.cls-254{fill:#f22300;}.cls-255{fill:#f32400;}.cls-256{fill:#f42500;}.cls-257{fill:#f52600;}.cls-258{fill:#f52700;}.cls-259{fill:#f62800;}.cls-260{fill:#f72900;}.cls-261{fill:#f82a00;}.cls-262{fill:#f82b00;}.cls-263{fill:#f92c00;}.cls-264{fill:#fa2d00;}.cls-265{fill:#fb2e00;}.cls-266{fill:#fb2f00;}.cls-267{fill:#fc3000;}.cls-268{fill:#fd3100;}.cls-269{fill:#fe3200;}.cls-270{fill:#fe3300;}.cls-271{fill:#ff3400;}.cls-272{fill:#ff3500;}.cls-273{fill:#ff3600;}.cls-274{fill:#ff3700;}.cls-275{fill:#ff3800;}.cls-276{fill:#ff3900;}.cls-277{fill:#ff3a00;}.cls-278{fill:#ff3b00;}.cls-279{fill:#ff3c00;}.cls-280{fill:#ff3d00;}.cls-281{fill:#ff3e00;}.cls-282{fill:#ff3f00;}.cls-283{fill:#ff4000;}.cls-284{fill:#ff4100;}.cls-285{fill:#ff4200;}.cls-286{fill:#ff4300;}.cls-287{fill:#f40;}.cls-288{fill:#ff4500;}.cls-289{fill:#ff4600;}.cls-290{fill:#ff4700;}.cls-291{fill:#ff4800;}.cls-292{fill:#ff4900;}.cls-293{fill:#ff4a00;}.cls-294{fill:#ff4b00;}.cls-295{fill:#ff4c00;}.cls-296{fill:#ff4d00;}.cls-297{fill:#ff4e00;}.cls-298{fill:#ff4f00;}.cls-299{fill:#ff5000;}.cls-300{fill:#ff5100;}.cls-301{fill:#ff5200;}.cls-302{fill:#ff5300;}.cls-303{fill:#ff5400;}.cls-304{fill:#f50;}.cls-305{fill:#ff5600;}.cls-306{fill:#ff5700;}.cls-307{fill:#ff5800;}.cls-308{fill:#ff5900;}.cls-309{fill:#ff5a00;}.cls-310{fill:#ff5b00;}.cls-311{fill:#ff5c00;}.cls-312{fill:#ff5d00;}.cls-313{fill:#ff5e00;}.cls-314{fill:#ff5f00;}.cls-315{fill:#ff6000;}.cls-316{fill:#ff6100;}.cls-317{fill:#ff6200;}.cls-318{fill:#ff6300;}.cls-319{fill:#ff6400;}.cls-320{fill:#ff6500;}.cls-321{fill:#f60;}.cls-322{fill:#ff6700;}.cls-323{fill:#ff6800;}.cls-324{fill:#ff6900;}.cls-325{fill:#ff6a00;}.cls-326{fill:#ff6b00;}.cls-327{fill:#ff6c00;}.cls-328{fill:#ff6d00;}.cls-329{fill:#ff6e00;}.cls-330{fill:#ff6f00;}.cls-331{fill:#ff7000;}.cls-332{fill:#ff7100;}.cls-333{fill:#ff7200;}.cls-334{fill:#ff7300;}.cls-335{fill:#ff7400;}.cls-336{fill:#ff7500;}.cls-337{fill:#ff7600;}.cls-338{fill:#f70;}.cls-339{fill:#ff7800;}.cls-340{fill:#ff7900;}.cls-341{fill:#ff7a00;}.cls-342{fill:#ff7b00;}.cls-343{fill:#ff7c00;}.cls-344{fill:#ff7d00;}.cls-345{fill:#ff7e00;}.cls-346{fill:#ff7f00;}.cls-347{fill:#ff8000;}.cls-348{fill:#ff8100;}.cls-349{fill:#ff8200;}.cls-350{fill:#ff8300;}.cls-351{fill:#ff8400;}.cls-352{fill:#ff8500;}.cls-353{fill:#ff8600;}.cls-354{fill:#ff8700;}.cls-355{fill:#f80;}.cls-356{fill:#ff8900;}.cls-357{fill:#ff8a00;}.cls-358{fill:#ff8b00;}.cls-359{fill:#ff8c00;}.cls-360{fill:#ff8d00;}.cls-361{fill:#ff8e00;}.cls-362{fill:#ff8f00;}.cls-363{fill:#ff9000;}.cls-364{fill:#ff9100;}.cls-365{fill:#ff9200;}.cls-366{fill:#ff9300;}.cls-367{fill:#ff9400;}.cls-368{fill:#ff9500;}.cls-369{fill:#ff9600;}.cls-370{fill:#ff9700;}.cls-371{fill:#ff9800;}.cls-372{fill:#f90;}.cls-373{fill:#ff9a00;}.cls-374{fill:#ff9b00;}.cls-375{fill:#ff9c00;}.cls-376{fill:#ff9d00;}.cls-377{fill:#ff9e00;}.cls-378{fill:#ff9f00;}.cls-379{fill:#ffa000;}.cls-380{fill:#ffa100;}.cls-381{fill:#ffa200;}.cls-382{fill:#ffa300;}.cls-383{fill:#ffa400;}.cls-384{fill:orange;}.cls-385{fill:#ffa600;}.cls-386{fill:#ffa700;}.cls-387{fill:#ffa800;}.cls-388{fill:#ffa900;}.cls-389{fill:#fa0;}.cls-390{fill:#ffab00;}.cls-391{fill:#ffac00;}.cls-392{fill:#ffad00;}.cls-393{fill:#ffae00;}.cls-394{fill:#ffaf00;}.cls-395{fill:#ffb000;}.cls-396{fill:#ffb100;}.cls-397{fill:#ffb200;}.cls-398{fill:#ffb300;}.cls-399{fill:#ffb400;}.cls-400{fill:#ffb500;}.cls-401{fill:#ffb600;}.cls-402{fill:#ffb700;}.cls-403{fill:#ffb800;}.cls-404{fill:#ffb900;}.cls-405{fill:#ffba00;}.cls-406{fill:#fb0;}.cls-407{fill:#ffbc00;}.cls-408{fill:#ffbd00;}.cls-409{fill:#ffbe00;}.cls-410{fill:#ffbf00;}.cls-411{fill:#ffc000;}.cls-412{fill:#ffc100;}.cls-413{fill:#ffc200;}.cls-414{fill:#ffc300;}.cls-415{fill:#ffc400;}.cls-416{fill:#ffc500;}.cls-417{fill:#ffc600;}.cls-418{fill:#ffc700;}.cls-419{fill:#ffc800;}.cls-420{fill:#ffc900;}.cls-421{fill:#ffca00;}.cls-422{fill:#ffcb00;}.cls-423{fill:#fc0;}.cls-424{fill:#ffcd00;}.cls-425{fill:#ffce00;}.cls-426{fill:#ffcf00;}.cls-427{fill:#ffd000;}.cls-428{fill:#ffd100;}.cls-429{fill:#ffd200;}.cls-430{fill:#ffd300;}.cls-431{fill:#ffd400;}.cls-432{fill:#ffd500;}.cls-433{fill:#ffd600;}.cls-434{fill:gold;}.cls-435{fill:#ffd800;}.cls-436{fill:#ffd900;}.cls-437{fill:#ffda00;}.cls-438{fill:#ffdb00;}.cls-439{fill:#ffdc00;}.cls-440{fill:#fd0;}.cls-441{fill:#ffde00;}.cls-442{fill:#ffdf00;}.cls-443{fill:#ffe000;}.cls-444{fill:#ffe100;}.cls-445{fill:#ffe200;}.cls-446{fill:#ffe300;}.cls-447{fill:#ffe400;}.cls-448{fill:#ffe500;}.cls-449{fill:#ffe600;}.cls-450{fill:#ffe700;}.cls-451{fill:#ffe800;}.cls-452{fill:#ffe900;}.cls-453{fill:#ffea00;}.cls-454{fill:#ffeb00;}.cls-455{fill:#ffec00;}.cls-456{fill:#ffed00;}.cls-457{fill:#fe0;}.cls-458{fill:#ffef00;}.cls-459{fill:#fff000;}.cls-460{fill:#fff100;}.cls-461{fill:#fff200;}.cls-462{fill:#fff300;}.cls-463{fill:#fff400;}.cls-464{fill:#fff500;}.cls-465{fill:#fff600;}.cls-466{fill:#fff700;}.cls-467{fill:#fff800;}.cls-468{fill:#fff900;}.cls-469{fill:#fffa00;}.cls-470{fill:#fffb00;}.cls-471{fill:#fffc00;}.cls-472{fill:#fffd00;}</style></defs><g class="cls-1"><g id="Layer_2" data-name="Layer 2"><g id="bg"><g class="cls-2"><path d="M156.76,281.12C40,348.52-66.09,164.72,50.64,97.33L191.38,16.07c123.2-71.13,229.31,112.67,106.11,183.8Z"/><path class="cls-3" d="M150.3,269.93c-102.92,59.42-196.12-102-93.19-161.41L197.84,27.26c110.84-64,204,97.42,93.19,161.42Z"/><path class="cls-3" d="M143.84,258.74c-89.11,51.45-169.38-87.59-80.27-139L204.3,38.45c98.49-56.86,178.76,82.18,80.27,139Z"/><path class="cls-4" d="M137.38,247.55C62.08,291-5.27,174.37,70,130.9L210.76,49.65C296.89-.08,364.24,116.57,278.11,166.3Z"/><path class="cls-5" d="M136.72,246.41C62.86,289.06-3.18,174.68,70.68,132L211.42,50.78c84-48.5,150,65.88,66,114.38Z"/><path class="cls-6" d="M136.06,245.28C63.63,287.1-1.09,175,71.34,133.17L212.07,51.92C294,4.64,358.68,116.75,276.8,164Z"/><path class="cls-7" d="M135.41,244.14C64.41,285.13,1,175.3,72,134.31L212.73,53.06C292.49,7,355.9,116.84,276.14,162.89Z"/><path class="cls-8" d="M134.75,243C65.18,283.17,3.08,175.61,72.65,135.45L213.39,54.2C291,9.37,353.12,116.93,275.48,161.75Z"/><path class="cls-9" d="M134.09,241.86C66,281.2,5.17,175.92,73.31,136.58L214,55.33c75.51-43.59,136.3,61.68,60.79,105.28Z"/><path class="cls-10" d="M133.44,240.73C66.73,279.24,7.26,176.23,74,137.72L214.7,56.47c73.39-42.37,132.86,60.63,59.47,103Z"/><path class="cls-11" d="M132.78,239.59c-65.28,37.68-123.43-63-58.16-100.73L215.36,57.61c71.26-41.15,129.42,59.58,58.15,100.73Z"/><path class="cls-12" d="M132.12,238.45C68.28,275.31,11.44,176.86,75.28,140L216,58.75c69.14-39.92,126,58.53,56.85,98.45Z"/><path class="cls-12" d="M131.47,237.31c-62.42,36-117.94-60.14-55.53-96.18L216.67,59.88c67-38.69,122.54,57.49,55.53,96.18Z"/><path class="cls-13" d="M130.81,236.18c-61,35.2-115.2-58.7-54.22-93.91L217.33,61c64.89-37.47,119.1,56.44,54.21,93.9Z"/><path class="cls-14" d="M130.15,235C70.6,269.42,17.7,177.79,77.25,143.41L218,62.16c62.77-36.24,115.67,55.39,52.9,91.63Z"/><path class="cls-15" d="M129.5,233.9c-58.12,33.55-109.71-55.8-51.59-89.35L218.64,63.29c60.64-35,112.23,54.35,51.59,89.36Z"/><path class="cls-16" d="M128.84,232.76c-56.69,32.73-107-54.35-50.28-87.08L219.3,64.43c58.52-33.78,108.79,53.3,50.27,87.08Z"/><path class="cls-17" d="M128.18,231.63c-55.25,31.9-104.21-52.91-49-84.81L220,65.57c56.4-32.56,105.36,52.24,49,84.8Z"/><path class="cls-18" d="M127.53,230.49C73.7,261.56,26.06,179,79.88,148L220.61,66.71c54.27-31.34,101.92,51.19,47.65,82.53Z"/><path class="cls-19" d="M126.87,229.35c-52.39,30.25-98.73-50-46.34-80.25L221.27,67.84c52.14-30.1,98.48,50.15,46.33,80.26Z"/><path class="cls-20" d="M126.7,229.05c-52,30-98-49.63-46-79.66L221.44,68.14c51.76-29.88,97.75,49.78,46,79.66Z"/><path class="cls-21" d="M126.53,228.76c-51.63,29.8-97.28-49.26-45.65-79.07L221.61,68.44c51.38-29.66,97,49.4,45.65,79.06Z"/><path class="cls-22" d="M126.35,228.46C75.11,258,29.81,179.57,81.05,150L221.78,68.74c51-29.44,96.3,49,45.31,78.47Z"/><path class="cls-23" d="M126.18,228.16c-50.86,29.37-95.82-48.51-45-77.87L222,69c50.61-29.21,95.57,48.66,45,77.88Z"/><path class="cls-24" d="M126,227.86C75.53,257,30.91,179.73,81.39,150.58L222.12,69.33c50.22-29,94.84,48.29,44.62,77.28Z"/><path class="cls-25" d="M125.84,227.57c-50.1,28.92-94.37-47.76-44.28-76.69L222.3,69.63c49.83-28.77,94.1,47.92,44.27,76.68Z"/><path class="cls-26" d="M125.67,227.27C76,256,32,179.88,81.74,151.18L222.47,69.93c49.44-28.55,93.37,47.54,43.93,76.09Z"/><path class="cls-27" d="M125.5,227c-49.34,28.49-92.93-47-43.59-75.49L222.64,70.22c49.06-28.32,92.65,47.18,43.59,75.5Z"/><path class="cls-28" d="M125.32,226.67C76.37,254.94,33.13,180,82.08,151.77L222.81,70.52c48.67-28.1,91.92,46.8,43.25,74.9Z"/><path class="cls-29" d="M125.15,226.38c-48.57,28-91.47-46.27-42.9-74.31L223,70.82c48.29-27.88,91.19,46.43,42.9,74.31Z"/><path class="cls-30" d="M125,226.08c-48.19,27.82-90.75-45.89-42.56-73.71L223.16,71.12c47.89-27.66,90.45,46.05,42.55,73.71Z"/><path class="cls-31" d="M124.81,225.78c-47.81,27.6-90-45.51-42.21-73.11L223.33,71.41c47.51-27.43,89.72,45.69,42.21,73.12Z"/><path class="cls-32" d="M124.64,225.48C77.21,252.87,35.34,180.34,82.77,153L223.5,71.71c47.12-27.21,89,45.31,41.87,72.52Z"/><path class="cls-33" d="M124.47,225.19c-47,27.16-88.58-44.77-41.53-71.93L223.67,72c46.74-27,88.27,44.94,41.53,71.93Z"/><path class="cls-34" d="M124.29,224.89c-46.66,26.94-87.84-44.39-41.18-71.33L223.84,72.31c46.36-26.77,87.54,44.57,41.19,71.33Z"/><path class="cls-35" d="M124.12,224.59c-46.28,26.72-87.12-44-40.84-70.73L224,72.6c46-26.54,86.81,44.2,40.84,70.74Z"/><path class="cls-36" d="M124,224.29c-45.9,26.5-86.4-43.64-40.5-70.14L224.19,72.9c45.58-26.31,86.07,43.83,40.49,70.14Z"/><path class="cls-37" d="M123.78,224c-45.52,26.28-85.67-43.27-40.15-69.55L224.36,73.2c45.19-26.09,85.34,43.45,40.15,69.55Z"/><path class="cls-38" d="M123.61,223.7c-45.14,26.06-84.95-42.89-39.81-68.95L224.53,73.5c44.81-25.87,84.62,43.08,39.81,68.95Z"/><path class="cls-39" d="M123.43,223.4C78.68,249.24,39.21,180.88,84,155.05L224.7,73.79c44.42-25.64,83.89,42.71,39.47,68.36Z"/><path class="cls-40" d="M123.26,223.1C78.89,248.72,39.77,181,84.14,155.34L224.87,74.09c44-25.42,83.16,42.34,39.13,67.76Z"/><path class="cls-41" d="M123.09,222.81c-44,25.4-82.77-41.77-38.78-67.17L225,74.39c43.65-25.2,82.43,42,38.78,67.17Z"/><path class="cls-42" d="M122.92,222.51c-43.61,25.18-82.05-41.39-38.44-66.57L225.22,74.69c43.26-25,81.69,41.59,38.43,66.57Z"/><path class="cls-43" d="M122.75,222.21c-43.23,25-81.32-41-38.09-66L225.39,75c42.87-24.75,81,41.23,38.09,66Z"/><path class="cls-44" d="M122.58,221.92C79.73,246.65,42,181.27,84.83,156.53L225.56,75.28c42.49-24.53,80.24,40.85,37.75,65.38Z"/><path class="cls-45" d="M122.4,221.62C79.94,246.13,42.54,181.35,85,156.83L225.73,75.58c42.11-24.31,79.51,40.48,37.41,64.79Z"/><path class="cls-46" d="M122.23,221.32c-42.08,24.3-79.14-39.9-37.06-64.19L225.9,75.88C267.62,51.79,304.68,116,263,140.07Z"/><path class="cls-47" d="M122.06,221c-41.7,24.08-78.42-39.52-36.72-63.6L226.07,76.17c41.34-23.86,78.05,39.74,36.72,63.6Z"/><path class="cls-48" d="M121.89,220.73c-41.32,23.85-77.69-39.15-36.38-63L226.25,76.47c40.94-23.64,77.32,39.36,36.37,63Z"/><path class="cls-49" d="M121.72,220.43c-40.94,23.63-77-38.78-36-62.41L226.42,76.77c40.56-23.42,76.59,39,36,62.41Z"/><path class="cls-49" d="M121.55,220.13C81,243.55,45.3,181.73,85.86,158.32L226.59,77.07c40.17-23.2,75.86,38.62,35.69,61.81Z"/><path class="cls-50" d="M121.37,219.83C81.2,243,45.86,181.81,86,158.61L226.76,77.36c39.79-23,75.13,38.25,35.35,61.22Z"/><path class="cls-51" d="M121.2,219.54c-39.79,23-74.79-37.65-35-60.63L226.93,77.66c39.4-22.75,74.4,37.88,35,60.62Z"/><path class="cls-52" d="M121,219.24C81.62,242,47,182,86.37,159.21L227.1,78c39-22.53,73.68,37.5,34.66,60Z"/><path class="cls-53" d="M120.86,218.94c-39,22.53-73.34-36.9-34.32-59.43L227.28,78.26c38.62-22.31,72.94,37.13,34.31,59.43Z"/><path class="cls-54" d="M120.69,218.64C82,241,48.07,182.12,86.72,159.8L227.45,78.55c38.24-22.08,72.21,36.76,34,58.84Z"/><path class="cls-55" d="M120.52,218.35c-38.27,22.09-71.9-36.16-33.63-58.25L227.62,78.85c37.85-21.86,71.48,36.39,33.63,58.24Z"/><path class="cls-56" d="M120.34,218.05c-37.88,21.87-71.16-35.78-33.28-57.65L227.79,79.15c37.47-21.64,70.75,36,33.29,57.65Z"/><path class="cls-57" d="M120.17,217.75c-37.5,21.65-70.44-35.4-32.94-57.05L228,79.44c37.09-21.4,70,35.65,32.94,57.06Z"/><path class="cls-58" d="M120,217.45c-37.12,21.43-69.72-35-32.6-56.46L228.14,79.74c36.69-21.18,69.29,35.28,32.59,56.46Z"/><path class="cls-59" d="M119.83,217.16c-36.74,21.21-69-34.66-32.25-55.87L228.31,80c36.31-21,68.56,34.9,32.25,55.86Z"/><path class="cls-60" d="M119.66,216.86c-36.36,21-68.27-34.28-31.91-55.27L228.48,80.34c35.92-20.74,67.83,34.53,31.91,55.27Z"/><path class="cls-61" d="M119.49,216.56c-36,20.77-67.55-33.9-31.57-54.67L228.65,80.63c35.54-20.51,67.1,34.16,31.57,54.68Z"/><path class="cls-62" d="M119.31,216.26c-35.59,20.55-66.81-33.53-31.22-54.08L228.82,80.93C264,60.64,295.2,114.72,260.05,135Z"/><path class="cls-63" d="M119.14,216c-35.21,20.33-66.09-33.16-30.88-53.49L229,81.23c34.77-20.07,65.65,33.41,30.88,53.48Z"/><path class="cls-64" d="M119,215.67c-34.83,20.11-65.36-32.78-30.54-52.89L229.17,81.53c34.37-19.85,64.91,33,30.53,52.89Z"/><path class="cls-65" d="M118.8,215.37C84.35,235.26,54.16,183,88.61,163.08L229.34,81.82c34-19.62,64.18,32.67,30.19,52.3Z"/><path class="cls-66" d="M118.63,215.07c-34.07,19.67-63.92-32-29.85-51.7L229.51,82.12c33.6-19.4,63.45,32.3,29.85,51.7Z"/><path class="cls-67" d="M118.45,214.78C84.77,234.22,55.27,183.12,89,163.67L229.68,82.42c33.22-19.18,62.73,31.93,29.51,51.11Z"/><path class="cls-68" d="M118.28,214.48C85,233.71,55.82,183.2,89.12,164L229.85,82.72c32.84-19,62,31.55,29.17,50.51Z"/><path class="cls-69" d="M118.11,214.18c-32.92,19-61.74-30.91-28.82-49.91L230,83c32.45-18.73,61.27,31.19,28.82,49.92Z"/><path class="cls-70" d="M117.94,213.88c-32.54,18.79-61-30.53-28.48-49.32L230.2,83.31c32.06-18.51,60.53,30.81,28.47,49.32Z"/><path class="cls-71" d="M117.77,213.59c-32.16,18.56-60.29-30.16-28.13-48.73L230.37,83.61c31.67-18.29,59.8,30.44,28.13,48.73Z"/><path class="cls-72" d="M117.6,213.29C85.82,231.63,58,183.5,89.81,165.16L230.54,83.91C261.83,65.84,289.62,114,258.33,132Z"/><path class="cls-73" d="M117.42,213C86,231.12,58.59,183.58,90,165.46L230.71,84.2c30.9-17.84,58.35,29.7,27.45,47.54Z"/><path class="cls-74" d="M117.25,212.69c-31,17.91-58.11-29-27.1-46.94L230.88,84.5c30.52-17.62,57.62,29.33,27.1,46.94Z"/><path class="cls-75" d="M117.08,212.4c-30.63,17.68-57.39-28.67-26.76-46.35L231.05,84.8c30.13-17.4,56.89,29,26.76,46.35Z"/><path class="cls-76" d="M116.91,212.1c-30.25,17.46-56.66-28.29-26.42-45.75L231.23,85.1c29.74-17.18,56.15,28.58,26.41,45.75Z"/><path class="cls-77" d="M116.74,211.8c-29.87,17.25-55.94-27.91-26.07-45.15L231.4,85.39c29.35-17,55.43,28.21,26.07,45.16Z"/><path class="cls-78" d="M116.57,211.5c-29.49,17-55.22-27.53-25.73-44.56L231.57,85.69c29-16.72,54.7,27.84,25.73,44.56Z"/><path class="cls-79" d="M116.48,211.36C87.19,228.27,61.63,184,90.92,167.09L231.65,85.84c28.79-16.62,54.35,27.65,25.56,44.27Z"/><path class="cls-80" d="M116.4,211.21C87.3,228,61.91,184,91,167.24L231.74,86c28.6-16.51,54,27.47,25.39,44Z"/><path class="cls-81" d="M116.31,211.07c-28.9,16.68-54.12-27-25.22-43.69L231.82,86.13c28.42-16.4,53.64,27.28,25.22,43.68Z"/><path class="cls-82" d="M116.23,210.92c-28.71,16.58-53.76-26.82-25-43.39L231.91,86.28c28.22-16.3,53.28,27.09,25,43.39Z"/><path class="cls-83" d="M116.14,210.77c-28.51,16.47-53.4-26.63-24.88-43.1L232,86.42c28-16.19,52.93,26.91,24.89,43.1Z"/><path class="cls-84" d="M116.06,210.63C87.73,227,63,184.17,91.35,167.82L232.08,86.57c27.85-16.08,52.57,26.72,24.71,42.8Z"/><path class="cls-85" d="M116,210.48C87.84,226.72,63.3,184.21,91.43,168L232.16,86.72c27.67-16,52.21,26.53,24.55,42.51Z"/><path class="cls-86" d="M115.89,210.33C88,226.46,63.58,184.24,91.51,168.11L232.25,86.86c27.48-15.86,51.85,26.36,24.37,42.22Z"/><path class="cls-87" d="M115.81,210.19c-27.75,16-52-25.91-24.21-41.93L232.33,87c27.3-15.76,51.5,26.17,24.21,41.93Z"/><path class="cls-88" d="M115.72,210c-27.55,15.91-51.59-25.73-24-41.63L232.42,87.16c27.11-15.66,51.14,26,24,41.63Z"/><path class="cls-89" d="M115.64,209.89c-27.36,15.8-51.23-25.54-23.87-41.34L232.5,87.3c26.92-15.54,50.79,25.8,23.87,41.34Z"/><path class="cls-90" d="M115.55,209.75c-27.16,15.68-50.86-25.37-23.7-41.05L232.58,87.45C259.32,72,283,113.06,256.28,128.5Z"/><path class="cls-91" d="M115.47,209.6c-27,15.57-50.5-25.18-23.53-40.75L232.67,87.59c26.55-15.33,50.08,25.43,23.53,40.76Z"/><path class="cls-92" d="M115.38,209.46C88.61,224.92,65.24,184.45,92,169L232.75,87.74c26.37-15.22,49.73,25.24,23.36,40.46Z"/><path class="cls-93" d="M115.3,209.31c-26.59,15.35-49.78-24.82-23.19-40.17L232.84,87.89c26.18-15.12,49.37,25,23.19,40.17Z"/><path class="cls-94" d="M115.21,209.16c-26.39,15.24-49.41-24.64-23-39.87L232.92,88c26-15,49,24.87,23,39.88Z"/><path class="cls-95" d="M115.13,209c-26.2,15.12-49-24.46-22.86-39.59L233,88.18c25.81-14.9,48.66,24.68,22.85,39.58Z"/><path class="cls-96" d="M115,208.87c-26,15-48.68-24.28-22.68-39.29L233.09,88.33c25.62-14.8,48.31,24.49,22.69,39.29Z"/><path class="cls-97" d="M115,208.72c-25.81,14.9-48.33-24.09-22.52-39L233.18,88.47c25.43-14.68,47.95,24.32,22.51,39Z"/><path class="cls-98" d="M114.88,208.58c-25.62,14.79-48-23.92-22.35-38.71L233.26,88.62c25.25-14.58,47.6,24.13,22.35,38.71Z"/><path class="cls-99" d="M114.79,208.43C89.37,223.11,67.19,184.7,92.61,170L233.34,88.77c25.07-14.48,47.25,23.94,22.18,38.41Z"/><path class="cls-100" d="M114.71,208.28c-25.23,14.57-47.24-23.55-22-38.12L233.43,88.91c24.88-14.36,46.89,23.76,22,38.12Z"/><path class="cls-101" d="M114.62,208.14c-25,14.45-46.87-23.38-21.84-37.83L233.51,89.06c24.7-14.26,46.54,23.57,21.84,37.83Z"/><path class="cls-102" d="M114.54,208C89.69,222.33,68,184.8,92.87,170.46L233.6,89.2c24.51-14.15,46.18,23.39,21.67,37.54Z"/><path class="cls-103" d="M114.45,207.84C89.8,222.08,68.3,184.83,93,170.6L233.68,89.35c24.33-14,45.83,23.2,21.5,37.24Z"/><path class="cls-104" d="M114.37,207.7C89.91,221.82,68.58,184.87,93,170.75L233.77,89.5c24.13-13.94,45.47,23,21.33,37Z"/><path class="cls-105" d="M114.28,207.55C90,221.56,68.86,184.9,93.12,170.9L233.85,89.64C257.8,75.82,279,112.47,255,126.3Z"/><path class="cls-106" d="M114.2,207.41C90.13,221.3,69.13,184.94,93.2,171L233.94,89.79c23.76-13.72,44.76,22.64,21,36.36Z"/><path class="cls-107" d="M114.11,207.26C90.24,221,69.41,185,93.29,171.19L234,89.94c23.58-13.62,44.41,22.45,20.83,36.07Z"/><path class="cls-108" d="M114,207.11C90.35,220.79,69.69,185,93.37,171.33L234.11,90.08c23.39-13.5,44,22.28,20.65,35.78Z"/><path class="cls-109" d="M114,207C90.46,220.53,70,185,93.46,171.48L234.19,90.23c23.21-13.4,43.69,22.09,20.49,35.48Z"/><path class="cls-110" d="M113.86,206.82c-23.3,13.45-43.61-21.74-20.32-35.19L234.27,90.38c23-13.3,43.34,21.9,20.32,35.19Z"/><path class="cls-111" d="M113.78,206.67C90.67,220,70.52,185.11,93.63,171.77L234.36,90.52c22.83-13.18,43,21.72,20.15,34.9Z"/><path class="cls-112" d="M113.69,206.53c-22.91,13.22-42.89-21.38-20-34.61L234.44,90.67c22.65-13.08,42.63,21.53,20,34.61Z"/><path class="cls-112" d="M113.61,206.38c-22.72,13.12-42.53-21.2-19.81-34.31L234.53,90.82c22.46-13,42.27,21.34,19.81,34.31Z"/><path class="cls-113" d="M113.52,206.23c-22.52,13-42.16-21-19.64-34L234.61,91c22.28-12.86,41.92,21.16,19.64,34Z"/><path class="cls-114" d="M113.44,206.09C91.11,219,71.64,185.25,94,172.36L234.7,91.11c22.09-12.76,41.56,21,19.47,33.73Z"/><path class="cls-115" d="M113.35,205.94c-22.13,12.78-41.44-20.65-19.3-33.43L234.78,91.25C256.69,78.61,276,112,254.09,124.69Z"/><path class="cls-116" d="M113.27,205.8c-21.94,12.66-41.08-20.48-19.14-33.15L234.87,91.4C256.59,78.86,275.72,112,254,124.54Z"/><path class="cls-117" d="M113.18,205.65c-21.74,12.56-40.71-20.29-19-32.85L235,91.55c21.53-12.44,40.5,20.41,19,32.85Z"/><path class="cls-118" d="M113.1,205.5C91.54,218,72.75,185.39,94.3,173L235,91.69c21.34-12.32,40.14,20.24,18.79,32.56Z"/><path class="cls-119" d="M113,205.36c-21.37,12.33-40-19.93-18.63-32.27L235.12,91.84c21.16-12.22,39.79,20,18.63,32.26Z"/><path class="cls-120" d="M112.93,205.21c-21.17,12.22-39.63-19.75-18.46-32L235.2,92c21-12.11,39.44,19.86,18.46,32Z"/><path class="cls-121" d="M112.85,205.06c-21,12.11-39.27-19.56-18.29-31.68L235.29,92.13c20.79-12,39.08,19.68,18.29,31.68Z"/><path class="cls-122" d="M112.76,204.92c-20.78,12-38.9-19.39-18.12-31.39L235.37,92.28c20.61-11.9,38.73,19.49,18.12,31.39Z"/><path class="cls-123" d="M112.68,204.77c-20.59,11.89-38.54-19.21-18-31.09L235.46,92.43c20.42-11.79,38.37,19.3,17.95,31.09Z"/><path class="cls-124" d="M112.59,204.62c-20.39,11.78-38.18-19-17.78-30.8L235.54,92.57c20.23-11.68,38,19.12,17.79,30.8Z"/><path class="cls-125" d="M112.51,204.48C92.31,216.14,74.69,185.63,94.9,174L235.63,92.72c20-11.58,37.66,18.93,17.61,30.51Z"/><path class="cls-126" d="M112.42,204.33C92.41,215.88,75,185.67,95,174.12L235.71,92.86c19.86-11.46,37.31,18.75,17.45,30.22Z"/><path class="cls-127" d="M112.34,204.18c-19.82,11.45-37.09-18.48-17.28-29.92L235.8,93c19.67-11.36,36.95,18.56,17.27,29.92Z"/><path class="cls-128" d="M112.26,204c-19.63,11.33-36.73-18.3-17.11-29.63L235.88,93.16c19.49-11.25,36.6,18.38,17.11,29.63Z"/><path class="cls-129" d="M112.17,203.89c-19.43,11.22-36.37-18.12-16.94-29.33L236,93.3c19.3-11.14,36.23,18.2,16.93,29.34Z"/><path class="cls-130" d="M112.09,203.75c-19.24,11.1-36-17.94-16.77-29.05L236.05,93.45c19.12-11,35.88,18,16.77,29Z"/><path class="cls-131" d="M112,203.6c-19,11-35.64-17.76-16.6-28.75L236.13,93.6c18.93-10.93,35.53,17.82,16.6,28.75Z"/><path class="cls-132" d="M111.92,203.45C93.07,214.34,76.64,185.88,95.49,175L236.22,93.74c18.74-10.82,35.17,17.64,16.43,28.46Z"/><path class="cls-133" d="M111.83,203.31c-18.65,10.77-34.91-17.4-16.26-28.17L236.3,93.89c18.56-10.72,34.82,17.45,16.26,28.16Z"/><path class="cls-134" d="M111.75,203.16C93.29,213.82,77.19,186,95.66,175.29L236.39,94c18.37-10.61,34.46,17.26,16.09,27.87Z"/><path class="cls-135" d="M111.66,203c-18.27,10.55-34.19-17-15.92-27.58L236.47,94.18c18.19-10.5,34.11,17.08,15.93,27.58Z"/><path class="cls-136" d="M111.58,202.87C93.5,213.3,77.75,186,95.82,175.58L236.56,94.33c18-10.39,33.75,16.89,15.75,27.29Z"/><path class="cls-137" d="M111.49,202.72c-17.88,10.33-33.46-16.67-15.58-27L236.64,94.48c17.82-10.29,33.4,16.7,15.59,27Z"/><path class="cls-138" d="M111.41,202.57c-17.69,10.22-33.1-16.48-15.42-26.7L236.73,94.62c17.63-10.18,33,16.52,15.41,26.7Z"/><path class="cls-139" d="M111.33,202.43c-17.5,10.1-32.75-16.31-15.25-26.41L236.81,94.77c17.44-10.07,32.69,16.34,15.25,26.41Z"/><path class="cls-140" d="M111.24,202.28c-17.3,10-32.38-16.12-15.08-26.11L236.89,94.91C254.15,85,269.23,111.07,252,121Z"/><path class="cls-141" d="M111.16,202.14c-17.11,9.87-32-15.95-14.91-25.83L237,95.06c17.07-9.86,32,16,14.91,25.82Z"/><path class="cls-142" d="M111.07,202c-16.91,9.76-31.65-15.76-14.74-25.53L237.06,95.21C254,85.46,268.69,111,251.8,120.74Z"/><path class="cls-143" d="M111,201.84c-16.72,9.66-31.3-15.58-14.57-25.23L237.15,95.35c16.7-9.64,31.27,15.6,14.57,25.24Z"/><path class="cls-144" d="M110.9,201.7C94.37,211.24,80,186.29,96.5,176.75L237.23,95.5c16.52-9.53,30.92,15.41,14.4,24.94Z"/><path class="cls-145" d="M110.82,201.55C94.48,211,80.25,186.33,96.59,176.9L237.32,95.65c16.33-9.43,30.56,15.22,14.23,24.65Z"/><path class="cls-146" d="M110.73,201.4c-16.14,9.32-30.2-15-14.06-24.36L237.4,95.79c16.14-9.32,30.21,15,14.07,24.36Z"/><path class="cls-147" d="M110.65,201.26c-16,9.2-29.84-14.86-13.9-24.07L237.49,95.94c15.95-9.21,29.85,14.85,13.89,24.07Z"/><path class="cls-148" d="M110.6,201.17C94.77,210.31,81,186.42,96.81,177.28L237.54,96c15.82-9.14,29.61,14.75,13.79,23.89Z"/><path class="cls-149" d="M110.55,201.08c-15.71,9.07-29.4-14.64-13.69-23.71L237.59,96.12c15.68-9.06,29.37,14.65,13.69,23.71Z"/><path class="cls-150" d="M110.5,201c-15.59,9-29.18-14.54-13.59-23.53L237.64,96.2c15.54-9,29.13,14.57,13.59,23.54Z"/><path class="cls-151" d="M110.45,200.9C95,209.83,81.5,186.47,97,177.54L237.69,96.29c15.41-8.89,28.89,14.47,13.49,23.36Z"/><path class="cls-152" d="M110.39,200.81C95.05,209.67,81.67,186.49,97,177.63L237.74,96.38c15.27-8.81,28.66,14.37,13.39,23.18Z"/><path class="cls-153" d="M110.34,200.73c-15.22,8.78-28.5-14.22-13.28-23L237.79,96.47c15.13-8.74,28.42,14.27,13.29,23Z"/><path class="cls-154" d="M110.29,200.64c-15.1,8.72-28.28-14.11-13.18-22.83L237.84,96.56c15-8.66,28.18,14.17,13.18,22.83Z"/><path class="cls-155" d="M110.24,200.55c-15,8.65-28-14-13.08-22.65L237.89,96.65c14.86-8.58,27.94,14.07,13.08,22.65Z"/><path class="cls-156" d="M110.19,200.46c-14.86,8.58-27.83-13.9-13-22.47L238,96.73c14.72-8.49,27.69,14,13,22.48Z"/><path class="cls-157" d="M110.14,200.37c-14.73,8.51-27.61-13.79-12.88-22.3L238,96.82c14.58-8.42,27.45,13.88,12.87,22.3Z"/><path class="cls-158" d="M110.09,200.28c-14.61,8.44-27.39-13.68-12.77-22.12L238.05,96.91c14.44-8.34,27.21,13.78,12.77,22.12Z"/><path class="cls-159" d="M110,200.2c-14.49,8.36-27.16-13.58-12.67-21.95L238.1,97c14.31-8.26,27,13.68,12.67,21.94Z"/><path class="cls-160" d="M110,200.11c-14.37,8.29-26.94-13.47-12.57-21.77L238.15,97.09c14.17-8.18,26.74,13.59,12.57,21.77Z"/><path class="cls-161" d="M109.94,200c-14.25,8.23-26.72-13.37-12.47-21.59L238.2,97.18c14-8.11,26.5,13.49,12.47,21.59Z"/><path class="cls-162" d="M109.88,199.93c-14.12,8.16-26.49-13.26-12.36-21.41L238.25,97.26c13.9-8,26.26,13.4,12.37,21.42Z"/><path class="cls-163" d="M109.83,199.84c-14,8.09-26.26-13.15-12.26-21.24L238.3,97.35c13.76-7.94,26,13.3,12.26,21.24Z"/><path class="cls-164" d="M109.78,199.75c-13.88,8-26-13-12.16-21.06L238.35,97.44c13.62-7.86,25.78,13.2,12.16,21.06Z"/><path class="cls-165" d="M109.73,199.67C96,207.61,83.91,186.73,97.67,178.78L238.4,97.53c13.49-7.79,25.55,13.1,12.06,20.88Z"/><path class="cls-166" d="M109.68,199.58c-13.64,7.87-25.6-12.84-12-20.71L238.46,97.62c13.34-7.71,25.3,13,11.95,20.71Z"/><path class="cls-167" d="M109.63,199.49C96.11,207.3,84.26,186.76,97.77,179L238.51,97.71c13.21-7.63,25.06,12.9,11.85,20.53Z"/><path class="cls-168" d="M109.58,199.4c-13.4,7.74-25.15-12.62-11.75-20.35L238.56,97.79c13.07-7.54,24.82,12.81,11.75,20.36Z"/><path class="cls-169" d="M109.53,199.31C96.25,207,84.6,186.8,97.88,179.13L238.61,97.88c12.93-7.46,24.58,12.71,11.65,20.18Z"/><path class="cls-170" d="M109.48,199.22c-13.16,7.6-24.71-12.4-11.55-20L238.66,98c12.8-7.39,24.34,12.62,11.55,20Z"/><path class="cls-171" d="M109.42,199.14c-13,7.52-24.47-12.3-11.44-19.83L238.71,98.06c12.66-7.31,24.11,12.52,11.45,19.82Z"/><path class="cls-172" d="M109.37,199.05C96.46,206.5,85.12,186.85,98,179.4L238.76,98.15c12.52-7.23,23.87,12.42,11.35,19.65Z"/><path class="cls-173" d="M109.32,199c-12.79,7.38-24-12.09-11.24-19.47L238.81,98.24c12.39-7.15,23.63,12.32,11.24,19.47Z"/><path class="cls-174" d="M109.27,198.87c-12.67,7.32-23.81-12-11.14-19.29L238.86,98.32c12.25-7.07,23.39,12.23,11.14,19.3Z"/><path class="cls-175" d="M109.22,198.78c-12.55,7.25-23.58-11.87-11-19.12L238.91,98.41c12.11-7,23.15,12.13,11,19.12Z"/><path class="cls-176" d="M109.17,198.69c-12.43,7.18-23.36-11.76-10.94-18.94L239,98.5c12-6.91,22.9,12,10.93,18.94Z"/><path class="cls-177" d="M109.12,198.61C96.81,205.71,86,187,98.28,179.84L239,98.59c11.83-6.83,22.67,11.93,10.83,18.76Z"/><path class="cls-178" d="M109.07,198.52c-12.19,7-22.92-11.56-10.73-18.59L239.07,98.68c11.69-6.76,22.43,11.83,10.73,18.59Z"/><path class="cls-179" d="M109,198.43C97,205.39,86.33,187,98.39,180L239.12,98.77c11.56-6.68,22.19,11.73,10.63,18.41Z"/><path class="cls-180" d="M109,198.34C97,205.23,86.5,187,98.44,180.11L239.17,98.85c11.42-6.59,22,11.64,10.53,18.24Z"/><path class="cls-181" d="M108.91,198.25C97.1,205.08,86.67,187,98.49,180.19L239.22,98.94c11.29-6.51,21.71,11.55,10.43,18.06Z"/><path class="cls-182" d="M108.86,198.16c-11.69,6.76-22-11.12-10.32-17.88L239.27,99c11.15-6.43,21.47,11.45,10.33,17.88Z"/><path class="cls-182" d="M108.81,198.08c-11.57,6.68-21.79-11-10.22-17.71L239.32,99.12c11-6.36,21.24,11.35,10.22,17.7Z"/><path class="cls-183" d="M108.76,198c-11.45,6.61-21.57-10.92-10.12-17.53L239.37,99.21c10.88-6.28,21,11.25,10.12,17.53Z"/><path class="cls-184" d="M108.71,197.9c-11.33,6.54-21.35-10.81-10-17.35L239.42,99.3c10.74-6.2,20.76,11.15,10,17.35Z"/><path class="cls-185" d="M108.66,197.81c-11.21,6.47-21.13-10.7-9.92-17.17L239.48,99.38c10.59-6.11,20.51,11.06,9.91,17.18Z"/><path class="cls-186" d="M108.61,197.72c-11.09,6.41-20.9-10.59-9.82-17L239.53,99.47c10.46-6,20.27,11,9.81,17Z"/><path class="cls-187" d="M108.56,197.63c-11,6.34-20.68-10.48-9.71-16.82L239.58,99.56c10.32-6,20,10.86,9.71,16.82Z"/><path class="cls-188" d="M108.51,197.55c-10.85,6.26-20.46-10.39-9.61-16.65L239.63,99.65c10.18-5.88,19.79,10.76,9.61,16.64Z"/><path class="cls-189" d="M108.46,197.46C97.73,203.65,88.22,187.18,99,181L239.68,99.74c10-5.8,19.56,10.66,9.51,16.47Z"/><path class="cls-190" d="M108.4,197.37c-10.6,6.12-20-10.17-9.4-16.29L239.73,99.83c9.91-5.73,19.32,10.57,9.41,16.29Z"/><path class="cls-191" d="M108.35,197.28c-10.48,6.05-19.78-10.06-9.3-16.11L239.78,99.91c9.78-5.64,19.08,10.48,9.31,16.12Z"/><path class="cls-192" d="M108.3,197.19c-10.36,6-19.56-9.95-9.2-15.94L239.83,100c9.64-5.56,18.84,10.38,9.2,15.94Z"/><path class="cls-193" d="M108.25,197.1C98,203,88.91,187.26,99.15,181.34l140.73-81.25c9.5-5.48,18.6,10.28,9.1,15.76Z"/><path class="cls-194" d="M108.2,197c-10.12,5.84-19.12-9.75-9-15.59l140.73-81.25c9.37-5.41,18.36,10.18,9,15.58Z"/><path class="cls-195" d="M108.15,196.93c-10,5.77-18.89-9.64-8.9-15.41L240,100.27c9.22-5.33,18.12,10.08,8.89,15.41Z"/><path class="cls-196" d="M108.1,196.84c-9.88,5.7-18.67-9.53-8.79-15.23L240,100.36c9.08-5.25,17.88,10,8.79,15.23Z"/><path class="cls-197" d="M108.05,196.75c-9.76,5.63-18.45-9.42-8.69-15.05l140.73-81.26c8.95-5.16,17.64,9.89,8.69,15.06Z"/><path class="cls-198" d="M108,196.66c-9.64,5.56-18.23-9.31-8.59-14.88l140.73-81.25c8.81-5.08,17.4,9.79,8.59,14.88Z"/><path class="cls-199" d="M108,196.57c-9.52,5.5-18-9.21-8.49-14.7l140.73-81.25c8.67-5,17.16,9.69,8.49,14.7Z"/><path class="cls-200" d="M107.89,196.49c-9.38,5.42-17.77-9.11-8.38-14.53l140.73-81.25c8.54-4.93,16.92,9.6,8.39,14.52Z"/><path class="cls-201" d="M107.84,196.4c-9.26,5.35-17.55-9-8.28-14.35L240.29,100.8c8.4-4.85,16.69,9.5,8.29,14.35Z"/><path class="cls-202" d="M107.79,196.31c-9.14,5.28-17.33-8.89-8.18-14.17l140.73-81.25c8.27-4.77,16.45,9.4,8.18,14.17Z"/><path class="cls-203" d="M107.74,196.22c-9,5.21-17.1-8.78-8.08-14L240.39,101c8.13-4.69,16.21,9.31,8.08,14Z"/><path class="cls-204" d="M107.69,196.13c-8.9,5.14-16.88-8.67-8-13.82l140.74-81.25c8-4.61,16,9.21,8,13.82Z"/><path class="cls-205" d="M107.64,196c-8.78,5.07-16.66-8.57-7.88-13.64L240.5,101.15c7.85-4.53,15.72,9.11,7.87,13.64Z"/><path class="cls-206" d="M107.59,196c-8.66,5-16.44-8.47-7.77-13.47l140.73-81.25c7.71-4.45,15.48,9,7.77,13.46Z"/><path class="cls-207" d="M107.54,195.87c-8.54,4.93-16.21-8.36-7.67-13.29L240.6,101.33c7.57-4.38,15.25,8.91,7.67,13.29Z"/><path class="cls-208" d="M107.49,195.78c-8.42,4.86-16-8.25-7.57-13.11l140.73-81.25c7.44-4.3,15,8.81,7.57,13.11Z"/><path class="cls-209" d="M107.44,195.69c-8.3,4.79-15.77-8.14-7.47-12.93L240.7,101.51c7.3-4.22,14.77,8.71,7.47,12.93Z"/><path class="cls-210" d="M107.38,195.6c-8.17,4.72-15.54-8-7.36-12.75l140.73-81.26c7.16-4.13,14.53,8.62,7.37,12.76Z"/><path class="cls-211" d="M107.33,195.51c-8,4.65-15.31-7.93-7.26-12.58L240.8,101.68c7-4.05,14.29,8.53,7.27,12.58Z"/><path class="cls-212" d="M107.28,195.43C99.35,200,92.19,187.6,100.12,183l140.73-81.25c6.89-4,14.05,8.43,7.16,12.4Z"/><path class="cls-213" d="M107.23,195.34c-7.81,4.51-14.87-7.72-7.06-12.23L240.9,101.86c6.76-3.9,13.81,8.33,7.06,12.23Z"/><path class="cls-214" d="M107.18,195.25c-7.69,4.44-14.65-7.61-7-12.05L241,102c6.61-3.82,13.57,8.23,6.95,12Z"/><path class="cls-215" d="M107.13,195.16c-7.57,4.37-14.42-7.5-6.86-11.87L241,102c6.47-3.74,13.33,8.13,6.85,11.87Z"/><path class="cls-216" d="M107.08,195.07c-7.45,4.3-14.2-7.4-6.75-11.69l140.73-81.26c6.34-3.66,13.09,8,6.75,11.7Z"/><path class="cls-217" d="M107,195c-7.33,4.23-14-7.29-6.65-11.52l140.73-81.25c6.2-3.58,12.85,7.94,6.65,11.52Z"/><path class="cls-218" d="M107,194.9c-7.21,4.15-13.76-7.19-6.55-11.35L241.16,102.3c6.06-3.5,12.61,7.84,6.55,11.34Z"/><path class="cls-219" d="M106.94,194.83c-7.12,4.11-13.59-7.1-6.47-11.21L241.2,102.37c6-3.47,12.47,7.74,6.47,11.21Z"/><path class="cls-220" d="M106.9,194.76c-7,4.06-13.42-7-6.4-11.07l140.74-81.26c5.93-3.42,12.33,7.65,6.39,11.08Z"/><path class="cls-221" d="M106.86,194.7c-6.94,4-13.25-6.94-6.32-10.95L241.27,102.5c5.87-3.39,12.19,7.55,6.32,10.94Z"/><path class="cls-222" d="M106.82,194.63c-6.85,4-13.09-6.86-6.24-10.81l140.73-81.25c5.81-3.35,12.05,7.46,6.24,10.81Z"/><path class="cls-223" d="M106.78,194.56c-6.76,3.91-12.92-6.77-6.16-10.67l140.73-81.26c5.74-3.31,11.91,7.37,6.17,10.68Z"/><path class="cls-224" d="M106.75,194.5c-6.68,3.85-12.76-6.7-6.09-10.55L241.39,102.7c5.68-3.28,11.76,7.27,6.09,10.54Z"/><path class="cls-225" d="M106.71,194.43c-6.59,3.8-12.6-6.61-6-10.41l140.73-81.25c5.61-3.24,11.62,7.17,6,10.41Z"/><path class="cls-226" d="M106.67,194.36c-6.5,3.75-12.43-6.52-5.93-10.27l140.73-81.26c5.54-3.2,11.48,7.08,5.93,10.28Z"/><path class="cls-227" d="M106.63,194.3c-6.41,3.69-12.26-6.45-5.86-10.15L241.51,102.9c5.48-3.16,11.33,7,5.85,10.14Z"/><path class="cls-228" d="M106.59,194.23c-6.32,3.65-12.1-6.36-5.78-10L241.54,103c5.42-3.13,11.2,6.88,5.78,10Z"/><path class="cls-229" d="M106.55,194.16c-6.23,3.6-11.93-6.28-5.7-9.87L241.58,103c5.35-3.09,11.06,6.79,5.71,9.88Z"/><path class="cls-230" d="M106.51,194.1c-6.14,3.54-11.76-6.2-5.62-9.75L241.62,103.1c5.29-3,10.91,6.69,5.63,9.74Z"/><path class="cls-231" d="M106.48,194c-6.06,3.49-11.61-6.12-5.55-9.61l140.73-81.25c5.22-3,10.77,6.59,5.55,9.61Z"/><path class="cls-232" d="M106.44,194c-6,3.45-11.44-6-5.47-9.47L241.7,103.23c5.15-3,10.63,6.5,5.47,9.48Z"/><path class="cls-233" d="M106.4,193.9c-5.88,3.39-11.27-6-5.4-9.35L241.74,103.3c5.09-2.94,10.48,6.4,5.39,9.34Z"/><path class="cls-234" d="M106.36,193.83c-5.79,3.34-11.11-5.87-5.32-9.21l140.74-81.25c5-2.91,10.34,6.3,5.31,9.21Z"/><path class="cls-235" d="M106.32,193.76c-5.7,3.29-10.94-5.78-5.24-9.07l140.73-81.26c5-2.86,10.21,6.22,5.24,9.08Z"/><path class="cls-236" d="M106.28,193.7c-5.61,3.24-10.77-5.71-5.16-8.95L241.85,103.5c4.9-2.83,10.06,6.12,5.17,8.94Z"/><path class="cls-237" d="M106.25,193.63c-5.53,3.19-10.61-5.62-5.09-8.81l140.73-81.25c4.83-2.79,9.92,6,5.09,8.81Z"/><path class="cls-238" d="M106.21,193.56c-5.44,3.14-10.45-5.54-5-8.67l140.73-81.26c4.77-2.75,9.78,5.93,5,8.68Z"/><path class="cls-239" d="M106.17,193.5c-5.35,3.08-10.28-5.46-4.93-8.55L242,103.7c4.7-2.71,9.63,5.83,4.93,8.54Z"/><path class="cls-240" d="M106.13,193.43c-5.26,3-10.11-5.38-4.86-8.41L242,103.77c4.63-2.68,9.49,5.73,4.85,8.41Z"/><path class="cls-241" d="M106.09,193.36c-5.17,3-10-5.29-4.78-8.27L242,103.83c4.58-2.64,9.36,5.64,4.78,8.28Z"/><path class="cls-242" d="M106.05,193.3c-5.08,2.93-9.78-5.21-4.7-8.15L242.08,103.9c4.51-2.6,9.21,5.54,4.7,8.14Z"/><path class="cls-243" d="M106,193.23c-5,2.88-9.61-5.13-4.62-8L242.12,104c4.45-2.57,9.07,5.44,4.63,8Z"/><path class="cls-244" d="M106,193.16c-4.91,2.83-9.46-5-4.55-7.87L242.16,104c4.38-2.52,8.93,5.35,4.55,7.88Z"/><path class="cls-245" d="M105.94,193.1c-4.82,2.78-9.29-5-4.47-7.75L242.2,104.1c4.31-2.49,8.78,5.25,4.47,7.74Z"/><path class="cls-246" d="M105.9,193c-4.73,2.73-9.12-4.88-4.39-7.61l140.73-81.25c4.25-2.46,8.64,5.15,4.39,7.61Z"/><path class="cls-247" d="M105.86,193c-4.64,2.68-9-4.8-4.32-7.47l140.74-81.26c4.18-2.41,8.5,5.06,4.31,7.48Z"/><path class="cls-248" d="M105.82,192.9c-4.55,2.62-8.79-4.72-4.24-7.35L242.31,104.3c4.12-2.38,8.36,5,4.24,7.34Z"/><path class="cls-249" d="M105.78,192.83c-4.46,2.57-8.62-4.63-4.16-7.21l140.73-81.25c4.06-2.34,8.22,4.87,4.17,7.21Z"/><path class="cls-250" d="M105.74,192.76c-4.37,2.53-8.45-4.55-4.08-7.07l140.73-81.26c4-2.3,8.08,4.78,4.09,7.08Z"/><path class="cls-251" d="M105.71,192.7c-4.29,2.47-8.3-4.47-4-6.95L242.43,104.5c3.92-2.27,7.93,4.68,4,6.94Z"/><path class="cls-252" d="M105.67,192.63c-4.2,2.42-8.13-4.39-3.93-6.81l140.73-81.25c3.86-2.23,7.79,4.58,3.93,6.81Z"/><path class="cls-253" d="M105.63,192.56c-4.11,2.37-8-4.3-3.86-6.67l140.74-81.26c3.79-2.19,7.65,4.49,3.85,6.68Z"/><path class="cls-254" d="M105.59,192.5c-4,2.32-7.8-4.23-3.78-6.55L242.54,104.7c3.74-2.15,7.51,4.39,3.78,6.54Z"/><path class="cls-255" d="M105.55,192.43c-3.93,2.27-7.63-4.14-3.7-6.41l140.73-81.25c3.67-2.12,7.37,4.29,3.7,6.41Z"/><path class="cls-256" d="M105.51,192.36c-3.84,2.22-7.46-4.06-3.62-6.27l140.73-81.26c3.6-2.08,7.23,4.2,3.63,6.28Z"/><path class="cls-257" d="M105.48,192.3c-3.76,2.16-7.31-4-3.55-6.15L242.66,104.9c3.54-2,7.08,4.1,3.55,6.14Z"/><path class="cls-258" d="M105.44,192.23c-3.67,2.12-7.14-3.89-3.47-6L242.7,105c3.47-2,6.94,4,3.47,6Z"/><path class="cls-259" d="M105.4,192.16c-3.58,2.07-7-3.81-3.39-5.87L242.74,105c3.4-2,6.8,3.91,3.39,5.88Z"/><path class="cls-260" d="M105.36,192.1c-3.49,2-6.81-3.73-3.32-5.75L242.78,105.1c3.34-1.93,6.65,3.81,3.31,5.74Z"/><path class="cls-261" d="M105.32,192c-3.4,2-6.64-3.65-3.24-5.61l140.73-81.25c3.28-1.89,6.52,3.72,3.24,5.61Z"/><path class="cls-262" d="M105.28,192c-3.31,1.91-6.47-3.56-3.16-5.47l140.73-81.26c3.21-1.85,6.38,3.63,3.16,5.48Z"/><path class="cls-263" d="M105.24,191.9c-3.22,1.86-6.31-3.49-3.08-5.35L242.89,105.3c3.15-1.82,6.23,3.53,3.09,5.34Z"/><path class="cls-264" d="M105.21,191.83c-3.14,1.81-6.15-3.4-3-5.21l140.73-81.25c3.08-1.78,6.09,3.43,3,5.21Z"/><path class="cls-265" d="M105.17,191.76c-3,1.76-6-3.31-2.93-5.07L243,105.43c3-1.74,5.95,3.34,2.93,5.08Z"/><path class="cls-266" d="M105.13,191.7c-3,1.7-5.81-3.24-2.86-4.95L243,105.5c3-1.7,5.8,3.24,2.85,4.94Z"/><path class="cls-267" d="M105.09,191.63c-2.87,1.66-5.65-3.15-2.78-4.81l140.74-81.25c2.88-1.67,5.66,3.14,2.77,4.81Z"/><path class="cls-268" d="M105.05,191.56c-2.78,1.61-5.48-3.07-2.7-4.67l140.73-81.26c2.83-1.63,5.53,3.05,2.7,4.68Z"/><path class="cls-269" d="M105,191.5c-2.69,1.55-5.31-3-2.62-4.55L243.12,105.7c2.76-1.59,5.38,3,2.63,4.54Z"/><path class="cls-270" d="M105,191.43c-2.6,1.5-5.15-2.91-2.54-4.41l140.73-81.25c2.69-1.56,5.24,2.85,2.55,4.41Z"/><path class="cls-271" d="M104.94,191.36c-2.52,1.46-5-2.82-2.47-4.27L243.2,105.83c2.63-1.51,5.1,2.76,2.47,4.28Z"/><path class="cls-272" d="M104.93,191.36c-2.51,1.45-5-2.82-2.46-4.27L243.2,105.84c2.63-1.52,5.09,2.75,2.47,4.27Z"/><path class="cls-273" d="M104.93,191.35c-2.51,1.45-5-2.81-2.46-4.26L243.2,105.84c2.62-1.51,5.08,2.75,2.46,4.26Z"/><path class="cls-274" d="M104.93,191.35c-2.51,1.45-5-2.81-2.46-4.25l140.74-81.26c2.61-1.51,5.07,2.75,2.45,4.26Z"/><path class="cls-275" d="M104.93,191.35c-2.5,1.44-5-2.81-2.45-4.25l140.73-81.25c2.61-1.51,5.06,2.74,2.45,4.25Z"/><path class="cls-276" d="M104.93,191.34c-2.5,1.45-5-2.79-2.45-4.24l140.73-81.25c2.61-1.5,5.06,2.74,2.45,4.24Z"/><path class="cls-277" d="M104.92,191.34c-2.49,1.44-4.94-2.79-2.44-4.23l140.73-81.25c2.6-1.51,5,2.73,2.45,4.23Z"/><path class="cls-278" d="M104.92,191.34c-2.49,1.44-4.93-2.79-2.44-4.23l140.73-81.25c2.6-1.5,5,2.72,2.44,4.23Z"/><path class="cls-279" d="M104.92,191.33c-2.49,1.44-4.92-2.78-2.44-4.22l140.74-81.25c2.59-1.5,5,2.72,2.43,4.22Z"/><path class="cls-280" d="M104.92,191.33c-2.49,1.43-4.92-2.78-2.43-4.21l140.73-81.25c2.59-1.5,5,2.71,2.43,4.21Z"/><path class="cls-281" d="M104.92,191.33c-2.49,1.43-4.91-2.78-2.43-4.21l140.73-81.25c2.59-1.49,5,2.71,2.43,4.21Z"/><path class="cls-282" d="M104.91,191.32c-2.47,1.43-4.9-2.77-2.42-4.2l140.73-81.25c2.58-1.49,5,2.71,2.43,4.2Z"/><path class="cls-283" d="M104.91,191.32c-2.47,1.43-4.89-2.76-2.42-4.19l140.73-81.25c2.58-1.49,5,2.7,2.42,4.19Z"/><path class="cls-284" d="M104.91,191.32c-2.47,1.42-4.89-2.76-2.42-4.19l140.74-81.25c2.57-1.49,5,2.7,2.41,4.18Z"/><path class="cls-285" d="M104.91,191.31c-2.47,1.43-4.88-2.75-2.41-4.18l140.73-81.25c2.57-1.48,5,2.7,2.41,4.18Z"/><path class="cls-286" d="M104.91,191.31c-2.47,1.42-4.88-2.75-2.41-4.17l140.73-81.25c2.57-1.48,5,2.69,2.41,4.17Z"/><path class="cls-287" d="M104.9,191.31c-2.46,1.42-4.86-2.75-2.4-4.17l140.73-81.25c2.56-1.48,5,2.69,2.41,4.16Z"/><path class="cls-288" d="M104.9,191.3c-2.45,1.42-4.85-2.74-2.4-4.15l140.73-81.26c2.56-1.47,5,2.68,2.4,4.16Z"/><path class="cls-289" d="M104.9,191.3c-2.45,1.41-4.85-2.74-2.4-4.15L243.24,105.9c2.55-1.48,4.95,2.67,2.39,4.15Z"/><path class="cls-290" d="M104.9,191.3c-2.45,1.41-4.84-2.73-2.39-4.15L243.24,105.9c2.55-1.47,4.94,2.67,2.39,4.14Z"/><path class="cls-291" d="M104.9,191.29c-2.45,1.41-4.84-2.72-2.39-4.13L243.24,105.9c2.55-1.47,4.93,2.67,2.39,4.14Z"/><path class="cls-292" d="M104.89,191.29c-2.44,1.41-4.82-2.72-2.38-4.13l140.73-81.25c2.54-1.47,4.93,2.66,2.39,4.13Z"/><path class="cls-293" d="M104.89,191.28c-2.44,1.41-4.82-2.71-2.38-4.12l140.73-81.25c2.54-1.46,4.92,2.66,2.38,4.12Z"/><path class="cls-294" d="M104.89,191.28c-2.43,1.41-4.81-2.71-2.38-4.11l140.74-81.26c2.53-1.46,4.9,2.66,2.37,4.12Z"/><path class="cls-295" d="M104.89,191.28c-2.43,1.4-4.8-2.71-2.37-4.11l140.73-81.25c2.53-1.46,4.9,2.65,2.37,4.11Z"/><path class="cls-296" d="M104.89,191.27c-2.43,1.41-4.8-2.7-2.37-4.1l140.73-81.25c2.52-1.46,4.89,2.65,2.37,4.1Z"/><path class="cls-297" d="M104.88,191.27c-2.42,1.4-4.78-2.69-2.36-4.09l140.73-81.25c2.52-1.46,4.89,2.63,2.37,4.09Z"/><path class="cls-298" d="M104.88,191.27c-2.42,1.39-4.78-2.69-2.36-4.09l140.73-81.25c2.52-1.45,4.88,2.63,2.36,4.09Z"/><path class="cls-299" d="M104.88,191.26c-2.42,1.4-4.77-2.68-2.36-4.08l140.74-81.25c2.51-1.45,4.86,2.63,2.35,4.08Z"/><path class="cls-300" d="M104.88,191.26c-2.41,1.39-4.77-2.68-2.35-4.07l140.73-81.25c2.51-1.45,4.86,2.62,2.35,4.07Z"/><path class="cls-301" d="M104.88,191.26c-2.41,1.39-4.76-2.68-2.35-4.07l140.73-81.25c2.5-1.45,4.85,2.62,2.35,4.07Z"/><path class="cls-302" d="M104.87,191.25c-2.4,1.39-4.74-2.67-2.34-4.06l140.73-81.25c2.5-1.44,4.85,2.62,2.35,4.06Z"/><path class="cls-303" d="M104.87,191.25c-2.4,1.39-4.74-2.67-2.34-4.05L243.26,106c2.5-1.44,4.84,2.61,2.34,4Z"/><path class="cls-304" d="M104.87,191.25c-2.4,1.38-4.73-2.66-2.34-4.05L243.27,106c2.49-1.44,4.82,2.61,2.33,4Z"/><path class="cls-305" d="M104.87,191.24c-2.4,1.38-4.73-2.65-2.33-4L243.27,106c2.49-1.43,4.82,2.61,2.33,4Z"/><path class="cls-306" d="M104.87,191.24c-2.39,1.38-4.72-2.65-2.33-4L243.27,106c2.48-1.44,4.81,2.59,2.33,4Z"/><path class="cls-307" d="M104.86,191.24c-2.38,1.37-4.71-2.65-2.32-4L243.27,106c2.48-1.43,4.8,2.59,2.33,4Z"/><path class="cls-308" d="M104.86,191.23c-2.38,1.38-4.7-2.64-2.32-4L243.27,106c2.48-1.43,4.8,2.59,2.32,4Z"/><path class="cls-309" d="M104.86,191.23c-2.38,1.37-4.7-2.64-2.32-4L243.28,106c2.47-1.43,4.78,2.58,2.31,4Z"/><path class="cls-310" d="M104.86,191.23c-2.38,1.37-4.69-2.64-2.31-4L243.28,106c2.46-1.42,4.78,2.58,2.31,4Z"/><path class="cls-311" d="M104.86,191.22c-2.38,1.37-4.68-2.62-2.31-4L243.28,106c2.46-1.42,4.77,2.58,2.31,4Z"/><path class="cls-312" d="M104.85,191.22c-2.37,1.37-4.67-2.62-2.3-4L243.28,106c2.46-1.42,4.76,2.57,2.31,4Z"/><path class="cls-313" d="M104.85,191.21c-2.36,1.37-4.66-2.61-2.3-4L243.28,106c2.46-1.42,4.76,2.57,2.3,4Z"/><path class="cls-314" d="M104.85,191.21c-2.36,1.36-4.66-2.61-2.3-4L243.29,106c2.45-1.41,4.74,2.57,2.29,4Z"/><path class="cls-315" d="M104.85,191.21c-2.36,1.36-4.65-2.61-2.29-4L243.29,106c2.44-1.41,4.74,2.55,2.29,4Z"/><path class="cls-316" d="M104.85,191.2c-2.36,1.36-4.65-2.6-2.29-4L243.29,106c2.44-1.41,4.73,2.55,2.29,4Z"/><path class="cls-317" d="M104.84,191.2c-2.35,1.36-4.63-2.6-2.28-3.95L243.29,106c2.44-1.41,4.72,2.54,2.29,4Z"/><path class="cls-318" d="M104.84,191.2c-2.35,1.35-4.62-2.59-2.28-3.95L243.29,106c2.44-1.41,4.72,2.54,2.28,4Z"/><path class="cls-319" d="M104.84,191.19c-2.34,1.36-4.62-2.58-2.28-3.94L243.3,106c2.43-1.4,4.7,2.54,2.27,3.94Z"/><path class="cls-320" d="M104.84,191.19c-2.34,1.35-4.61-2.58-2.27-3.93L243.3,106c2.42-1.4,4.69,2.53,2.27,3.93Z"/><path class="cls-321" d="M104.84,191.19c-2.34,1.35-4.61-2.58-2.27-3.93L243.3,106c2.42-1.4,4.69,2.53,2.27,3.93Z"/><path class="cls-322" d="M104.83,191.18c-2.33,1.35-4.59-2.57-2.26-3.92L243.3,106c2.42-1.39,4.68,2.53,2.27,3.92Z"/><path class="cls-323" d="M104.83,191.18c-2.33,1.34-4.59-2.57-2.26-3.91L243.3,106c2.42-1.4,4.68,2.52,2.26,3.91Z"/><path class="cls-324" d="M104.83,191.18c-2.33,1.34-4.58-2.57-2.26-3.91L243.31,106c2.4-1.39,4.66,2.51,2.25,3.9Z"/><path class="cls-325" d="M104.83,191.17c-2.32,1.34-4.57-2.56-2.25-3.9L243.31,106c2.4-1.38,4.65,2.51,2.25,3.9Z"/><path class="cls-326" d="M104.83,191.17c-2.32,1.34-4.57-2.55-2.25-3.89L243.31,106c2.4-1.39,4.65,2.5,2.25,3.89Z"/><path class="cls-327" d="M104.82,191.17c-2.31,1.33-4.55-2.55-2.24-3.89L243.31,106c2.4-1.38,4.64,2.5,2.25,3.88Z"/><path class="cls-328" d="M104.82,191.16c-2.31,1.34-4.55-2.54-2.24-3.87L243.31,106c2.4-1.38,4.63,2.5,2.24,3.88Z"/><path class="cls-329" d="M104.82,191.16c-2.31,1.33-4.54-2.54-2.24-3.87L243.32,106c2.38-1.38,4.62,2.49,2.23,3.87Z"/><path class="cls-330" d="M104.82,191.16c-2.31,1.32-4.54-2.54-2.23-3.87L243.32,106c2.38-1.38,4.61,2.49,2.23,3.86Z"/><path class="cls-331" d="M104.81,191.15c-2.29,1.33-4.52-2.53-2.22-3.85L243.32,106c2.38-1.37,4.61,2.49,2.23,3.86Z"/><path class="cls-332" d="M104.81,191.15c-2.29,1.32-4.52-2.53-2.22-3.85l140.73-81.25c2.38-1.37,4.6,2.48,2.22,3.85Z"/><path class="cls-333" d="M104.81,191.14c-2.29,1.33-4.51-2.51-2.22-3.84l140.73-81.25c2.38-1.37,4.59,2.47,2.22,3.84Z"/><path class="cls-334" d="M104.81,191.14c-2.29,1.32-4.5-2.51-2.22-3.83l140.74-81.26c2.36-1.36,4.58,2.47,2.21,3.84Z"/><path class="cls-335" d="M104.81,191.14c-2.29,1.32-4.5-2.51-2.21-3.83l140.73-81.25c2.36-1.37,4.57,2.46,2.21,3.83Z"/><path class="cls-336" d="M104.8,191.13c-2.28,1.32-4.48-2.5-2.2-3.82l140.73-81.25c2.36-1.36,4.57,2.46,2.21,3.82Z"/><path class="cls-337" d="M104.8,191.13c-2.27,1.32-4.48-2.5-2.2-3.81l140.73-81.25c2.36-1.36,4.56,2.45,2.2,3.81Z"/><path class="cls-338" d="M104.8,191.13c-2.27,1.31-4.47-2.5-2.2-3.81l140.73-81.25c2.36-1.36,4.55,2.45,2.2,3.81Z"/><path class="cls-339" d="M104.8,191.12c-2.27,1.31-4.47-2.49-2.2-3.8l140.74-81.25c2.34-1.35,4.54,2.45,2.19,3.8Z"/><path class="cls-340" d="M104.8,191.12c-2.27,1.31-4.46-2.48-2.19-3.79l140.73-81.25c2.34-1.36,4.53,2.44,2.19,3.79Z"/><path class="cls-341" d="M104.79,191.12c-2.26,1.3-4.44-2.48-2.18-3.79l140.73-81.25c2.34-1.35,4.52,2.44,2.19,3.79Z"/><path class="cls-342" d="M104.79,191.11c-2.26,1.31-4.44-2.47-2.18-3.78l140.73-81.25c2.34-1.34,4.52,2.43,2.18,3.78Z"/><path class="cls-343" d="M104.79,191.11c-2.26,1.3-4.43-2.47-2.18-3.77l140.73-81.25c2.33-1.35,4.51,2.42,2.18,3.77Z"/><path class="cls-344" d="M104.79,191.11c-2.25,1.3-4.43-2.47-2.17-3.77l140.73-81.25c2.32-1.34,4.5,2.42,2.17,3.76Z"/><path class="cls-345" d="M104.79,191.1c-2.25,1.3-4.42-2.46-2.17-3.76l140.73-81.25c2.32-1.34,4.49,2.42,2.17,3.76Z"/><path class="cls-346" d="M104.78,191.1c-2.24,1.3-4.41-2.46-2.16-3.75L243.35,106.1c2.32-1.34,4.48,2.41,2.17,3.75Z"/><path class="cls-347" d="M104.78,191.1c-2.24,1.29-4.4-2.45-2.16-3.75L243.35,106.1c2.32-1.34,4.48,2.41,2.16,3.74Z"/><path class="cls-348" d="M104.78,191.09c-2.24,1.29-4.39-2.44-2.16-3.73L243.36,106.1c2.3-1.33,4.46,2.41,2.15,3.74Z"/><path class="cls-349" d="M104.78,191.09c-2.24,1.29-4.39-2.44-2.15-3.73l140.73-81.25c2.3-1.33,4.46,2.4,2.15,3.73Z"/><path class="cls-350" d="M104.78,191.09c-2.23,1.28-4.38-2.44-2.15-3.73l140.73-81.25c2.3-1.33,4.45,2.4,2.15,3.72Z"/><path class="cls-351" d="M104.77,191.08c-2.22,1.29-4.37-2.43-2.14-3.71l140.73-81.26c2.3-1.32,4.44,2.39,2.15,3.72Z"/><path class="cls-352" d="M104.77,191.08c-2.22,1.28-4.36-2.43-2.14-3.71l140.73-81.25c2.3-1.33,4.44,2.38,2.14,3.71Z"/><path class="cls-353" d="M104.77,191.07c-2.22,1.29-4.36-2.42-2.14-3.7l140.74-81.25c2.28-1.32,4.42,2.38,2.13,3.7Z"/><path class="cls-354" d="M104.77,191.07c-2.22,1.28-4.35-2.41-2.13-3.69l140.73-81.26c2.28-1.31,4.41,2.38,2.13,3.7Z"/><path class="cls-355" d="M104.77,191.07c-2.22,1.27-4.34-2.41-2.13-3.69l140.73-81.25c2.28-1.32,4.41,2.37,2.13,3.69Z"/><path class="cls-356" d="M104.76,191.06c-2.2,1.28-4.33-2.4-2.12-3.68l140.73-81.25c2.28-1.31,4.4,2.37,2.13,3.68Z"/><path class="cls-357" d="M104.76,191.06c-2.2,1.27-4.32-2.4-2.12-3.67l140.73-81.25c2.27-1.32,4.4,2.36,2.12,3.67Z"/><path class="cls-358" d="M104.76,191.06c-2.2,1.27-4.32-2.4-2.12-3.67l140.74-81.25c2.26-1.31,4.38,2.36,2.11,3.67Z"/><path class="cls-359" d="M104.76,191.05c-2.2,1.27-4.31-2.39-2.11-3.66l140.73-81.25c2.26-1.3,4.37,2.36,2.11,3.66Z"/><path class="cls-360" d="M104.76,191.05c-2.2,1.27-4.31-2.39-2.11-3.65l140.73-81.25c2.26-1.31,4.37,2.34,2.11,3.65Z"/><path class="cls-361" d="M104.75,191.05c-2.19,1.26-4.29-2.38-2.1-3.65l140.73-81.25c2.26-1.3,4.36,2.34,2.11,3.65Z"/><path class="cls-362" d="M104.75,191c-2.18,1.27-4.29-2.37-2.1-3.64l140.73-81.25c2.25-1.3,4.36,2.34,2.1,3.64Z"/><path class="cls-363" d="M104.75,191c-2.18,1.26-4.28-2.37-2.1-3.63l140.74-81.25c2.24-1.3,4.34,2.33,2.09,3.63Z"/><path class="cls-364" d="M104.75,191c-2.18,1.25-4.27-2.37-2.09-3.63l140.73-81.25c2.24-1.3,4.33,2.33,2.09,3.62Z"/><path class="cls-365" d="M104.75,191c-2.18,1.26-4.27-2.36-2.09-3.62l140.73-81.25c2.24-1.29,4.33,2.33,2.09,3.62Z"/><path class="cls-366" d="M104.74,191c-2.17,1.25-4.25-2.36-2.08-3.61l140.73-81.25c2.24-1.29,4.32,2.32,2.09,3.61Z"/><path class="cls-367" d="M104.74,191c-2.17,1.25-4.25-2.36-2.08-3.61l140.73-81.25c2.23-1.29,4.31,2.32,2.08,3.6Z"/><path class="cls-368" d="M104.74,191c-2.16,1.25-4.24-2.34-2.08-3.59L243.4,106.17c2.22-1.28,4.3,2.32,2.07,3.6Z"/><path class="cls-369" d="M104.74,191c-2.16,1.25-4.24-2.34-2.07-3.59L243.4,106.18c2.22-1.29,4.29,2.3,2.07,3.59Z"/><path class="cls-370" d="M104.74,191c-2.16,1.24-4.23-2.34-2.07-3.59L243.4,106.18c2.22-1.28,4.29,2.3,2.07,3.58Z"/><path class="cls-371" d="M104.73,191c-2.15,1.25-4.21-2.33-2.06-3.57L243.4,106.18c2.22-1.27,4.28,2.3,2.07,3.58Z"/><path class="cls-372" d="M104.73,191c-2.15,1.24-4.21-2.33-2.06-3.57L243.4,106.19c2.21-1.28,4.27,2.29,2.06,3.57Z"/><path class="cls-373" d="M104.73,191c-2.15,1.24-4.2-2.32-2.06-3.56l140.74-81.25c2.2-1.27,4.26,2.29,2.05,3.56Z"/><path class="cls-374" d="M104.73,191c-2.15,1.24-4.2-2.32-2-3.55l140.73-81.26c2.2-1.27,4.25,2.29,2.05,3.56Z"/><path class="cls-375" d="M104.73,191c-2.14,1.23-4.19-2.31-2-3.55L243.41,106.2c2.2-1.27,4.24,2.28,2.05,3.55Z"/><path class="cls-376" d="M104.72,191c-2.13,1.24-4.18-2.3-2-3.54L243.41,106.2c2.19-1.26,4.24,2.28,2.05,3.54Z"/><path class="cls-377" d="M104.72,191c-2.13,1.23-4.17-2.3-2-3.53l140.73-81.25c2.19-1.27,4.23,2.27,2,3.53Z"/><path class="cls-378" d="M104.72,191c-2.13,1.23-4.16-2.3-2-3.53l140.74-81.25c2.18-1.26,4.22,2.26,2,3.53Z"/><path class="cls-379" d="M104.72,191c-2.13,1.23-4.16-2.29-2-3.52l140.73-81.25c2.18-1.26,4.21,2.26,2,3.52Z"/><path class="cls-380" d="M104.72,191c-2.13,1.23-4.15-2.29-2-3.51l140.73-81.25c2.18-1.26,4.2,2.25,2,3.51Z"/><path class="cls-381" d="M104.71,191c-2.11,1.22-4.14-2.29-2-3.51l140.73-81.25c2.17-1.25,4.2,2.25,2,3.51Z"/><path class="cls-382" d="M104.71,191c-2.11,1.22-4.13-2.27-2-3.5l140.73-81.25c2.17-1.25,4.19,2.25,2,3.5Z"/><path class="cls-383" d="M104.71,191c-2.11,1.22-4.13-2.27-2-3.49l140.74-81.25c2.16-1.25,4.18,2.24,2,3.49Z"/><path class="cls-384" d="M104.71,191c-2.11,1.21-4.12-2.27-2-3.49l140.73-81.25c2.16-1.25,4.17,2.24,2,3.48Z"/><path class="cls-385" d="M104.71,191c-2.11,1.22-4.12-2.26-2-3.48l140.73-81.25c2.16-1.24,4.16,2.24,2,3.48Z"/><path class="cls-386" d="M104.7,191c-2.1,1.21-4.1-2.26-2-3.47l140.73-81.25c2.15-1.25,4.16,2.23,2,3.47Z"/><path class="cls-387" d="M104.7,191c-2.09,1.21-4.09-2.26-2-3.47l140.73-81.25c2.15-1.24,4.15,2.22,2,3.46Z"/><path class="cls-388" d="M104.7,191c-2.09,1.21-4.09-2.25-2-3.45l140.74-81.26c2.14-1.23,4.13,2.22,2,3.46Z"/><path class="cls-389" d="M104.7,191c-2.09,1.2-4.08-2.25-2-3.45l140.73-81.25c2.14-1.24,4.13,2.21,2,3.45Z"/><path class="cls-390" d="M104.7,191c-2.09,1.2-4.08-2.24-2-3.45l140.73-81.25c2.13-1.23,4.12,2.21,2,3.44Z"/><path class="cls-391" d="M104.69,190.94c-2.08,1.2-4.06-2.23-2-3.43l140.73-81.26c2.13-1.23,4.12,2.21,2,3.44Z"/><path class="cls-392" d="M104.69,190.94c-2.08,1.2-4.06-2.23-2-3.43l140.73-81.25c2.13-1.23,4.11,2.2,2,3.43Z"/><path class="cls-393" d="M104.69,190.93c-2.07,1.2-4-2.22-2-3.42l140.74-81.25c2.12-1.22,4.09,2.2,2,3.42Z"/><path class="cls-394" d="M104.69,190.93c-2.07,1.2-4-2.22-2-3.41l140.73-81.26c2.12-1.22,4.09,2.2,2,3.42Z"/><path class="cls-395" d="M104.69,190.93c-2.07,1.19-4-2.22-2-3.41l140.73-81.25c2.11-1.22,4.08,2.19,2,3.41Z"/><path class="cls-396" d="M104.68,190.92c-2.06,1.2-4-2.21-2-3.4l140.73-81.25c2.11-1.22,4.08,2.18,2,3.4Z"/><path class="cls-397" d="M104.68,190.92c-2.06,1.19-4-2.2-2-3.39l140.73-81.25c2.11-1.22,4.07,2.17,2,3.39Z"/><path class="cls-398" d="M104.68,190.92c-2.06,1.18-4-2.2-2-3.39l140.74-81.25c2.1-1.21,4,2.17,1.95,3.39Z"/><path class="cls-399" d="M104.68,190.91c-2.05,1.19-4-2.19-2-3.38l140.73-81.25c2.1-1.21,4,2.17,1.95,3.38Z"/><path class="cls-400" d="M104.68,190.91c-2.05,1.18-4-2.19-2-3.37l140.73-81.25c2.09-1.21,4,2.16,1.95,3.37Z"/><path class="cls-401" d="M104.67,190.91c-2,1.18-4-2.19-1.94-3.37l140.73-81.25c2.09-1.21,4,2.16,1.95,3.37Z"/><path class="cls-402" d="M104.67,190.9c-2,1.18-4-2.18-1.94-3.36l140.73-81.25c2.09-1.2,4,2.16,1.94,3.36Z"/><path class="cls-403" d="M104.67,190.9c-2,1.18-4-2.18-1.94-3.35L243.47,106.3c2.08-1.21,4,2.15,1.93,3.35Z"/><path class="cls-404" d="M104.67,190.9c-2,1.17-4-2.17-1.93-3.35L243.47,106.3c2.07-1.2,4,2.15,1.93,3.34Z"/><path class="cls-405" d="M104.67,190.89c-2,1.18-4-2.16-1.93-3.34L243.47,106.3c2.07-1.19,4,2.14,1.93,3.34Z"/><path class="cls-406" d="M104.66,190.89c-2,1.17-4-2.16-1.92-3.33l140.73-81.25c2.07-1.2,4,2.13,1.93,3.33Z"/><path class="cls-407" d="M104.66,190.89c-2,1.16-3.94-2.16-1.92-3.33l140.73-81.25c2.07-1.19,4,2.13,1.92,3.32Z"/><path class="cls-408" d="M104.66,190.88c-2,1.17-3.94-2.15-1.92-3.31l140.74-81.26c2.06-1.19,4,2.13,1.91,3.32Z"/><path class="cls-409" d="M104.66,190.88c-2,1.16-3.93-2.15-1.91-3.31l140.73-81.25c2.05-1.19,4,2.12,1.91,3.31Z"/><path class="cls-410" d="M104.66,190.88c-2,1.16-3.92-2.15-1.91-3.31l140.73-81.25c2.05-1.18,4,2.12,1.91,3.3Z"/><path class="cls-411" d="M104.65,190.87c-2,1.16-3.91-2.13-1.9-3.29l140.73-81.26c2.05-1.18,4,2.12,1.91,3.3Z"/><path class="cls-412" d="M104.65,190.87c-2,1.16-3.9-2.13-1.9-3.29l140.73-81.25c2.05-1.18,4,2.11,1.9,3.29Z"/><path class="cls-413" d="M104.65,190.86c-2,1.16-3.9-2.12-1.9-3.28l140.74-81.25c2-1.18,3.93,2.11,1.89,3.28Z"/><path class="cls-414" d="M104.65,190.86c-2,1.15-3.89-2.12-1.89-3.27l140.73-81.26c2-1.17,3.92,2.1,1.89,3.28Z"/><path class="cls-415" d="M104.65,190.86c-2,1.15-3.89-2.12-1.89-3.27l140.73-81.25c2-1.17,3.92,2.09,1.89,3.27Z"/><path class="cls-416" d="M104.64,190.85c-2,1.15-3.87-2.11-1.88-3.26l140.73-81.25c2-1.17,3.91,2.09,1.89,3.26Z"/><path class="cls-417" d="M104.64,190.85c-2,1.15-3.86-2.11-1.88-3.25l140.73-81.25c2-1.17,3.91,2.08,1.88,3.25Z"/><path class="cls-418" d="M104.64,190.85c-2,1.14-3.86-2.1-1.88-3.25L243.5,106.35c2-1.17,3.89,2.08,1.87,3.25Z"/><path class="cls-419" d="M104.64,190.84c-2,1.15-3.85-2.09-1.87-3.24L243.5,106.35c2-1.16,3.88,2.08,1.87,3.24Z"/><path class="cls-420" d="M104.64,190.84c-2,1.14-3.85-2.09-1.87-3.23L243.5,106.36c2-1.16,3.88,2.07,1.87,3.23Z"/><path class="cls-421" d="M104.63,190.84c-2,1.14-3.83-2.09-1.86-3.23L243.5,106.36c2-1.16,3.87,2.07,1.87,3.22Z"/><path class="cls-422" d="M104.63,190.83c-2,1.14-3.83-2.08-1.86-3.22L243.5,106.36c2-1.15,3.86,2.07,1.86,3.22Z"/><path class="cls-423" d="M104.63,190.83c-2,1.13-3.82-2.08-1.86-3.21l140.74-81.25c2-1.16,3.85,2,1.85,3.21Z"/><path class="cls-424" d="M104.63,190.83c-2,1.13-3.81-2.08-1.85-3.21l140.73-81.25c2-1.15,3.84,2,1.85,3.2Z"/><path class="cls-425" d="M104.62,190.82c-2,1.13-3.8-2.06-1.84-3.2l140.73-81.25c2-1.15,3.84,2,1.85,3.2Z"/><path class="cls-426" d="M104.62,190.82c-2,1.13-3.79-2.06-1.84-3.19l140.73-81.25c2-1.15,3.83,2,1.84,3.19Z"/><path class="cls-427" d="M104.62,190.82c-2,1.12-3.79-2.06-1.84-3.19l140.73-81.25c2-1.14,3.82,2,1.84,3.18Z"/><path class="cls-428" d="M104.62,190.81c-2,1.13-3.78-2.05-1.84-3.17l140.74-81.26c2-1.14,3.81,2,1.83,3.18Z"/><path class="cls-429" d="M104.62,190.81c-2,1.12-3.78-2.05-1.83-3.17l140.73-81.25c2-1.14,3.8,2,1.83,3.17Z"/><path class="cls-430" d="M104.61,190.81c-1.93,1.12-3.76-2.05-1.82-3.17l140.73-81.25c2-1.14,3.8,2,1.83,3.16Z"/><path class="cls-431" d="M104.61,190.8c-1.93,1.12-3.76-2-1.82-3.15l140.73-81.26c2-1.13,3.79,2,1.82,3.16Z"/><path class="cls-432" d="M104.61,190.8c-1.93,1.11-3.75-2-1.82-3.15L243.52,106.4c2-1.13,3.78,2,1.82,3.15Z"/><path class="cls-433" d="M104.61,190.79c-1.93,1.12-3.74-2-1.82-3.14L243.53,106.4c1.95-1.13,3.77,2,1.81,3.14Z"/><path class="cls-434" d="M104.61,190.79c-1.93,1.11-3.74-2-1.81-3.13L243.53,106.4c1.95-1.12,3.76,2,1.81,3.14Z"/><path class="cls-435" d="M104.6,190.79c-1.92,1.11-3.72-2-1.8-3.13l140.73-81.25c1.95-1.13,3.75,2,1.81,3.13Z"/><path class="cls-436" d="M104.6,190.78c-1.92,1.11-3.72-2-1.8-3.12l140.73-81.25c1.95-1.12,3.75,2,1.8,3.12Z"/><path class="cls-437" d="M104.6,190.78c-1.91,1.11-3.71-2-1.8-3.11l140.73-81.25c1.94-1.12,3.74,2,1.8,3.11Z"/><path class="cls-438" d="M104.6,190.78c-1.91,1.1-3.71-2-1.79-3.11l140.73-81.25c1.93-1.12,3.73,2,1.79,3.11Z"/><path class="cls-439" d="M104.6,190.77c-1.91,1.1-3.7-2-1.79-3.1l140.73-81.25c1.93-1.11,3.72,2,1.79,3.1Z"/><path class="cls-440" d="M104.59,190.77c-1.9,1.1-3.68-2-1.78-3.09l140.73-81.25c1.93-1.12,3.71,2,1.79,3.09Z"/><path class="cls-441" d="M104.59,190.77c-1.9,1.09-3.68-2-1.78-3.09l140.73-81.25c1.93-1.11,3.71,2,1.78,3.08Z"/><path class="cls-442" d="M104.59,190.76c-1.9,1.1-3.67-2-1.78-3.08l140.74-81.25c1.91-1.11,3.69,2,1.77,3.08Z"/><path class="cls-443" d="M104.59,190.76c-1.89,1.09-3.67-2-1.77-3.07l140.73-81.25c1.91-1.11,3.69,2,1.77,3.07Z"/><path class="cls-444" d="M104.59,190.76c-1.89,1.09-3.66-2-1.77-3.07l140.73-81.25c1.91-1.1,3.68,2,1.77,3.06Z"/><path class="cls-445" d="M104.58,190.75c-1.88,1.09-3.65-2-1.76-3.06l140.73-81.25c1.91-1.1,3.67,2,1.77,3.06Z"/><path class="cls-446" d="M104.58,190.75c-1.88,1.09-3.64-2-1.76-3.05l140.73-81.25c1.91-1.1,3.67,2,1.76,3Z"/><path class="cls-447" d="M104.58,190.75c-1.88,1.08-3.63-2-1.76-3.05l140.74-81.25c1.89-1.1,3.65,2,1.75,3Z"/><path class="cls-448" d="M104.58,190.74c-1.88,1.08-3.63-2-1.75-3l140.73-81.26c1.89-1.09,3.64,2,1.75,3Z"/><path class="cls-449" d="M104.58,190.74c-1.87,1.08-3.62-2-1.75-3l140.73-81.25c1.89-1.09,3.64,1.94,1.75,3Z"/><path class="cls-450" d="M104.57,190.74c-1.86,1.07-3.61-2-1.74-3l140.73-81.25c1.89-1.09,3.63,1.93,1.75,3Z"/><path class="cls-451" d="M104.57,190.73c-1.86,1.08-3.6-1.94-1.74-3l140.73-81.26c1.88-1.08,3.63,1.93,1.74,3Z"/><path class="cls-452" d="M104.57,190.73c-1.86,1.07-3.6-1.94-1.74-3l140.74-81.25c1.87-1.09,3.61,1.92,1.73,3Z"/><path class="cls-453" d="M104.57,190.72c-1.86,1.08-3.59-1.93-1.73-3l140.73-81.25c1.87-1.08,3.6,1.92,1.73,3Z"/><path class="cls-454" d="M104.57,190.72c-1.86,1.07-3.59-1.92-1.73-3l140.73-81.26c1.87-1.07,3.6,1.92,1.73,3Z"/><path class="cls-455" d="M104.56,190.72c-1.84,1.07-3.57-1.92-1.72-3l140.73-81.25c1.87-1.08,3.59,1.91,1.73,3Z"/><path class="cls-456" d="M104.56,190.71c-1.84,1.07-3.56-1.91-1.72-3l140.73-81.25c1.86-1.07,3.59,1.91,1.72,3Z"/><path class="cls-457" d="M104.56,190.71c-1.84,1.06-3.56-1.91-1.72-3l140.74-81.25c1.85-1.08,3.57,1.9,1.71,3Z"/><path class="cls-458" d="M104.56,190.71c-1.84,1.06-3.55-1.91-1.71-3l140.73-81.25c1.85-1.07,3.56,1.9,1.71,3Z"/><path class="cls-459" d="M104.56,190.7c-1.84,1.06-3.55-1.9-1.71-3l140.73-81.25c1.85-1.06,3.56,1.89,1.71,3Z"/><path class="cls-460" d="M104.55,190.7c-1.83,1.06-3.53-1.9-1.7-2.95L243.58,106.5c1.85-1.07,3.55,1.88,1.71,3Z"/><path class="cls-461" d="M104.55,190.7c-1.82,1.05-3.53-1.89-1.7-2.95L243.58,106.5c1.84-1.06,3.54,1.88,1.7,2.94Z"/><path class="cls-462" d="M104.55,190.69c-1.82,1.06-3.52-1.88-1.7-2.94L243.59,106.5c1.83-1.06,3.53,1.88,1.69,2.94Z"/><path class="cls-463" d="M104.55,190.69c-1.82,1.05-3.51-1.88-1.69-2.93l140.73-81.25c1.83-1.06,3.52,1.87,1.69,2.93Z"/><path class="cls-464" d="M104.55,190.69c-1.82,1-3.51-1.88-1.69-2.93l140.73-81.25c1.83-1.06,3.52,1.87,1.69,2.92Z"/><path class="cls-465" d="M104.54,190.68c-1.81,1-3.49-1.87-1.68-2.92l140.73-81.25c1.83-1.05,3.51,1.87,1.69,2.92Z"/><path class="cls-466" d="M104.54,190.68c-1.81,1-3.49-1.87-1.68-2.91l140.73-81.25c1.82-1,3.5,1.86,1.68,2.91Z"/><path class="cls-467" d="M104.54,190.68c-1.81,1-3.48-1.87-1.68-2.91L243.6,106.52c1.81-1,3.49,1.86,1.67,2.9Z"/><path class="cls-468" d="M104.54,190.67c-1.8,1-3.48-1.85-1.67-2.89L243.6,106.52c1.81-1,3.48,1.85,1.67,2.9Z"/><path class="cls-469" d="M104.54,190.67c-1.8,1-3.47-1.85-1.67-2.89L243.6,106.53c1.81-1,3.48,1.84,1.67,2.89Z"/><path class="cls-470" d="M104.53,190.67c-1.79,1-3.45-1.85-1.66-2.89L243.6,106.53c1.8-1,3.47,1.84,1.67,2.88Z"/><path class="cls-471" d="M104.53,190.66c-1.79,1-3.45-1.84-1.66-2.87L243.6,106.53c1.8-1,3.46,1.84,1.66,2.88Z"/><path class="cls-472" d="M104.53,190.66c-1.79,1-3.44-1.84-1.66-2.87l140.74-81.25c1.79-1,3.45,1.83,1.65,2.87Z"/></g></g></g></g></svg>