<svg xmlns="http://www.w3.org/2000/svg" viewBox="0 0 485.49 407.99"><defs><style>.cls-1{isolation:isolate;}.cls-2{mix-blend-mode:screen;}.cls-3{fill:#000001;}.cls-4{fill:#000101;}.cls-5{fill:#000102;}.cls-6{fill:#000103;}.cls-7{fill:#000204;}.cls-8{fill:#000205;}.cls-9{fill:#000206;}.cls-10{fill:#000307;}.cls-11{fill:#000308;}.cls-12{fill:#000309;}.cls-13{fill:#00040a;}.cls-14{fill:#00040b;}.cls-15{fill:#00040c;}.cls-16{fill:#00050d;}.cls-17{fill:#00050e;}.cls-18{fill:#00050f;}.cls-19{fill:#000610;}.cls-20{fill:#000611;}.cls-21{fill:#000612;}.cls-22{fill:#000713;}.cls-23{fill:#000714;}.cls-24{fill:#000715;}.cls-25{fill:#000816;}.cls-26{fill:#000817;}.cls-27{fill:#000818;}.cls-28{fill:#000919;}.cls-29{fill:#00091a;}.cls-30{fill:#00091b;}.cls-31{fill:#000a1c;}.cls-32{fill:#000a1d;}.cls-33{fill:#000a1e;}.cls-34{fill:#000b1f;}.cls-35{fill:#000b20;}.cls-36{fill:#000b21;}.cls-37{fill:#000b22;}.cls-38{fill:#000c23;}.cls-39{fill:#000c24;}.cls-40{fill:#000c25;}.cls-41{fill:#000d26;}.cls-42{fill:#000d27;}.cls-43{fill:#000d28;}.cls-44{fill:#000e29;}.cls-45{fill:#000e2a;}.cls-46{fill:#000e2b;}.cls-47{fill:#000f2c;}.cls-48{fill:#000f2d;}.cls-49{fill:#00102e;}.cls-50{fill:#00102f;}.cls-51{fill:#001030;}.cls-52{fill:#001131;}.cls-53{fill:#001132;}.cls-54{fill:#013;}.cls-55{fill:#001234;}.cls-56{fill:#001235;}.cls-57{fill:#001236;}.cls-58{fill:#001337;}.cls-59{fill:#001338;}.cls-60{fill:#001339;}.cls-61{fill:#00133a;}.cls-62{fill:#00143b;}.cls-63{fill:#00143c;}.cls-64{fill:#00143d;}.cls-65{fill:#00153e;}.cls-66{fill:#00153f;}.cls-67{fill:#001540;}.cls-68{fill:#001641;}.cls-69{fill:#001642;}.cls-70{fill:#001643;}.cls-71{fill:#001744;}.cls-72{fill:#001745;}.cls-73{fill:#001746;}.cls-74{fill:#001847;}.cls-75{fill:#001848;}.cls-76{fill:#001849;}.cls-77{fill:#00194a;}.cls-78{fill:#00194b;}.cls-79{fill:#00194c;}.cls-80{fill:#001a4d;}.cls-81{fill:#001a4e;}.cls-82{fill:#001a4f;}.cls-83{fill:#001b50;}.cls-84{fill:#001b51;}.cls-85{fill:#001b52;}.cls-86{fill:#001c53;}.cls-87{fill:#001c54;}.cls-88{fill:#001c55;}.cls-89{fill:#001d56;}.cls-90{fill:#001d57;}.cls-91{fill:#001d58;}.cls-92{fill:#001e59;}.cls-93{fill:#001e5a;}.cls-94{fill:#001e5b;}.cls-95{fill:#001e5c;}.cls-96{fill:#001f5d;}.cls-97{fill:#001f5e;}.cls-98{fill:#001f5f;}.cls-99{fill:#002060;}.cls-100{fill:#002061;}.cls-101{fill:#002062;}.cls-102{fill:#002163;}.cls-103{fill:#002164;}.cls-104{fill:#002165;}.cls-105{fill:#026;}.cls-106{fill:#002267;}.cls-107{fill:#002268;}.cls-108{fill:#002369;}.cls-109{fill:#00236a;}.cls-110{fill:#00236b;}.cls-111{fill:#00246b;}.cls-112{fill:#00246c;}.cls-113{fill:#00246d;}.cls-114{fill:#00256e;}.cls-115{fill:#00256f;}.cls-116{fill:#002570;}.cls-117{fill:#002671;}.cls-118{fill:#002672;}.cls-119{fill:#002673;}.cls-120{fill:#002774;}.cls-121{fill:#002775;}.cls-122{fill:#002776;}.cls-123{fill:#002877;}.cls-124{fill:#002878;}.cls-125{fill:#002879;}.cls-126{fill:#00297a;}.cls-127{fill:#00297b;}.cls-128{fill:#00297c;}.cls-129{fill:#00297d;}.cls-130{fill:#002a7e;}.cls-131{fill:#002a7f;}.cls-132{fill:#002a80;}.cls-133{fill:#002b81;}.cls-134{fill:#002b82;}.cls-135{fill:#002b83;}.cls-136{fill:#002c84;}.cls-137{fill:#002c85;}.cls-138{fill:#002c86;}.cls-139{fill:#002d87;}.cls-140{fill:#002d88;}.cls-141{fill:#002d89;}.cls-142{fill:#002e8a;}.cls-143{fill:#002e8b;}.cls-144{fill:#002e8c;}.cls-145{fill:#002f8d;}.cls-146{fill:#002f8e;}.cls-147{fill:#002f8f;}.cls-148{fill:#003090;}.cls-149{fill:#003091;}.cls-150{fill:#003092;}.cls-151{fill:#003193;}.cls-152{fill:#003194;}.cls-153{fill:#003195;}.cls-154{fill:#003296;}.cls-155{fill:#003297;}.cls-156{fill:#003298;}.cls-157{fill:#039;}.cls-158{fill:#00339a;}.cls-159{fill:#00339b;}.cls-160{fill:#00349c;}.cls-161{fill:#00349d;}.cls-162{fill:#00349e;}.cls-163{fill:#00359f;}.cls-164{fill:#0035a0;}.cls-165{fill:#0035a1;}.cls-166{fill:#0036a2;}.cls-167{fill:#0036a3;}.cls-168{fill:#0036a4;}.cls-169{fill:#0037a5;}.cls-170{fill:#0037a6;}.cls-171{fill:#0037a7;}.cls-172{fill:#0038a8;}.cls-173{fill:#0038a9;}.cls-174{fill:#0038aa;}.cls-175{fill:#0039ab;}.cls-176{fill:#0039ac;}.cls-177{fill:#0039ad;}.cls-178{fill:#003aae;}.cls-179{fill:#003aaf;}.cls-180{fill:#003ab0;}.cls-181{fill:#003bb1;}.cls-182{fill:#003bb2;}.cls-183{fill:#003bb3;}.cls-184{fill:#003cb4;}.cls-185{fill:#003cb5;}.cls-186{fill:#003cb6;}.cls-187{fill:#003db7;}.cls-188{fill:#003db8;}.cls-189{fill:#003db9;}.cls-190{fill:#003eba;}.cls-191{fill:#003ebb;}.cls-192{fill:#003ebc;}.cls-193{fill:#003fbd;}.cls-194{fill:#003fbe;}.cls-195{fill:#003fbf;}.cls-196{fill:#0040c0;}.cls-197{fill:#0040c1;}.cls-198{fill:#0040c2;}.cls-199{fill:#0041c3;}.cls-200{fill:#0041c4;}.cls-201{fill:#0041c5;}.cls-202{fill:#0042c6;}.cls-203{fill:#0042c7;}.cls-204{fill:#0042c8;}.cls-205{fill:#0043c9;}.cls-206{fill:#0043ca;}.cls-207{fill:#0043cb;}.cls-208{fill:#04c;}.cls-209{fill:#0044cd;}.cls-210{fill:#0044ce;}.cls-211{fill:#0045cf;}.cls-212{fill:#0045d0;}.cls-213{fill:#0045d1;}.cls-214{fill:#0046d2;}.cls-215{fill:#0046d3;}.cls-216{fill:#0046d4;}.cls-217{fill:#0047d5;}.cls-218{fill:#0047d6;}.cls-219{fill:#0047d7;}.cls-220{fill:#0048d8;}.cls-221{fill:#0048d9;}.cls-222{fill:#0048da;}.cls-223{fill:#0048db;}.cls-224{fill:#0049dc;}.cls-225{fill:#0049dd;}.cls-226{fill:#0049de;}.cls-227{fill:#004adf;}.cls-228{fill:#004ae0;}.cls-229{fill:#004ae1;}.cls-230{fill:#004be2;}.cls-231{fill:#004be3;}.cls-232{fill:#004be4;}.cls-233{fill:#004ce5;}.cls-234{fill:#004ce6;}.cls-235{fill:#004ce7;}.cls-236{fill:#004de8;}.cls-237{fill:#004de9;}.cls-238{fill:#004dea;}.cls-239{fill:#004eeb;}.cls-240{fill:#004eec;}.cls-241{fill:#004eed;}.cls-242{fill:#004fee;}.cls-243{fill:#004fef;}.cls-244{fill:#004ff0;}.cls-245{fill:#0050f1;}.cls-246{fill:#0050f2;}.cls-247{fill:#0050f3;}.cls-248{fill:#0051f4;}.cls-249{fill:#0051f5;}.cls-250{fill:#0051f6;}.cls-251{fill:#0051f7;}.cls-252{fill:#0052f8;}.cls-253{fill:#0052f9;}.cls-254{fill:#0052fa;}.cls-255{fill:#0053fb;}.cls-256{fill:#0053fc;}.cls-257{fill:#0053fd;}.cls-258{fill:#0054fe;}.cls-259{fill:#0054ff;}.cls-260{fill:#0155ff;}.cls-261{fill:#0255ff;}.cls-262{fill:#0356ff;}.cls-263{fill:#0457ff;}.cls-264{fill:#0557ff;}.cls-265{fill:#0658ff;}.cls-266{fill:#0759ff;}.cls-267{fill:#0859ff;}.cls-268{fill:#095aff;}.cls-269{fill:#0a5aff;}.cls-270{fill:#0b5bff;}.cls-271{fill:#0c5cff;}.cls-272{fill:#0d5cff;}.cls-273{fill:#0e5dff;}.cls-274{fill:#0f5eff;}.cls-275{fill:#105eff;}.cls-276{fill:#115fff;}.cls-277{fill:#1260ff;}.cls-278{fill:#1360ff;}.cls-279{fill:#1461ff;}.cls-280{fill:#1562ff;}.cls-281{fill:#1662ff;}.cls-282{fill:#1763ff;}.cls-283{fill:#1863ff;}.cls-284{fill:#1964ff;}.cls-285{fill:#1a65ff;}.cls-286{fill:#1b65ff;}.cls-287{fill:#1c66ff;}.cls-288{fill:#1d67ff;}.cls-289{fill:#1e67ff;}.cls-290{fill:#1f68ff;}.cls-291{fill:#2069ff;}.cls-292{fill:#2169ff;}.cls-293{fill:#226aff;}.cls-294{fill:#236bff;}.cls-295{fill:#246bff;}.cls-296{fill:#256cff;}.cls-297{fill:#266cff;}.cls-298{fill:#276dff;}.cls-299{fill:#286eff;}.cls-300{fill:#296eff;}.cls-301{fill:#2a6fff;}.cls-302{fill:#2b70ff;}.cls-303{fill:#2c70ff;}.cls-304{fill:#2d71ff;}.cls-305{fill:#2e72ff;}.cls-306{fill:#2f72ff;}.cls-307{fill:#3073ff;}.cls-308{fill:#3174ff;}.cls-309{fill:#3274ff;}.cls-310{fill:#3375ff;}.cls-311{fill:#3475ff;}.cls-312{fill:#3576ff;}.cls-313{fill:#3677ff;}.cls-314{fill:#3777ff;}.cls-315{fill:#3878ff;}.cls-316{fill:#3979ff;}.cls-317{fill:#3a79ff;}.cls-318{fill:#3b7aff;}.cls-319{fill:#3c7bff;}.cls-320{fill:#3d7bff;}.cls-321{fill:#3e7cff;}.cls-322{fill:#3f7dff;}.cls-323{fill:#407dff;}.cls-324{fill:#417eff;}.cls-325{fill:#427eff;}.cls-326{fill:#437fff;}.cls-327{fill:#4480ff;}.cls-328{fill:#4580ff;}.cls-329{fill:#4681ff;}.cls-330{fill:#4782ff;}.cls-331{fill:#4882ff;}.cls-332{fill:#4983ff;}.cls-333{fill:#4a84ff;}.cls-334{fill:#4b84ff;}.cls-335{fill:#4c85ff;}.cls-336{fill:#4d86ff;}.cls-337{fill:#4e86ff;}.cls-338{fill:#4f87ff;}.cls-339{fill:#5087ff;}.cls-340{fill:#5188ff;}.cls-341{fill:#5289ff;}.cls-342{fill:#5389ff;}.cls-343{fill:#548aff;}.cls-344{fill:#558bff;}.cls-345{fill:#568bff;}.cls-346{fill:#578cff;}.cls-347{fill:#588dff;}.cls-348{fill:#598dff;}.cls-349{fill:#5a8eff;}.cls-350{fill:#5b8fff;}.cls-351{fill:#5c8fff;}.cls-352{fill:#5d90ff;}.cls-353{fill:#5e90ff;}.cls-354{fill:#5f91ff;}.cls-355{fill:#6092ff;}.cls-356{fill:#6192ff;}.cls-357{fill:#6293ff;}.cls-358{fill:#6394ff;}.cls-359{fill:#6494ff;}.cls-360{fill:#6595ff;}.cls-361{fill:#6696ff;}.cls-362{fill:#6796ff;}.cls-363{fill:#6897ff;}.cls-364{fill:#6998ff;}.cls-365{fill:#6a98ff;}.cls-366{fill:#6b99ff;}.cls-367{fill:#6c99ff;}.cls-368{fill:#6d9aff;}.cls-369{fill:#6e9bff;}.cls-370{fill:#6f9bff;}.cls-371{fill:#709cff;}.cls-372{fill:#719dff;}.cls-373{fill:#729dff;}.cls-374{fill:#739eff;}.cls-375{fill:#749fff;}.cls-376{fill:#759fff;}.cls-377{fill:#76a0ff;}.cls-378{fill:#77a1ff;}.cls-379{fill:#78a1ff;}.cls-380{fill:#79a2ff;}.cls-381{fill:#7aa2ff;}.cls-382{fill:#7ba3ff;}.cls-383{fill:#7ca4ff;}.cls-384{fill:#7da4ff;}.cls-385{fill:#7ea5ff;}.cls-386{fill:#7fa6ff;}.cls-387{fill:#80a6ff;}.cls-388{fill:#81a7ff;}.cls-389{fill:#82a8ff;}.cls-390{fill:#83a8ff;}.cls-391{fill:#84a9ff;}.cls-392{fill:#85aaff;}.cls-393{fill:#86aaff;}.cls-394{fill:#87abff;}.cls-395{fill:#88abff;}.cls-396{fill:#89acff;}.cls-397{fill:#8aadff;}.cls-398{fill:#8badff;}.cls-399{fill:#8caeff;}.cls-400{fill:#8dafff;}.cls-401{fill:#8eafff;}.cls-402{fill:#8fb0ff;}.cls-403{fill:#90b1ff;}.cls-404{fill:#91b1ff;}.cls-405{fill:#92b2ff;}.cls-406{fill:#93b3ff;}.cls-407{fill:#94b3ff;}.cls-408{fill:#95b4ff;}.cls-409{fill:#96b4ff;}.cls-410{fill:#97b5ff;}.cls-411{fill:#98b6ff;}.cls-412{fill:#99b6ff;}.cls-413{fill:#9ab7ff;}.cls-414{fill:#9bb8ff;}.cls-415{fill:#9cb8ff;}.cls-416{fill:#9db9ff;}.cls-417{fill:#9ebaff;}.cls-418{fill:#9fbaff;}.cls-419{fill:#a0bbff;}.cls-420{fill:#a1bcff;}.cls-421{fill:#a2bcff;}.cls-422{fill:#a3bdff;}.cls-423{fill:#a4bdff;}.cls-424{fill:#a5beff;}.cls-425{fill:#a6bfff;}.cls-426{fill:#a7bfff;}.cls-427{fill:#a8c0ff;}.cls-428{fill:#a9c1ff;}.cls-429{fill:#aac1ff;}.cls-430{fill:#abc2ff;}.cls-431{fill:#acc3ff;}.cls-432{fill:#adc3ff;}.cls-433{fill:#aec4ff;}.cls-434{fill:#afc5ff;}.cls-435{fill:#b0c5ff;}.cls-436{fill:#b1c6ff;}.cls-437{fill:#b2c6ff;}.cls-438{fill:#b3c7ff;}.cls-439{fill:#b4c8ff;}.cls-440{fill:#b5c8ff;}.cls-441{fill:#b6c9ff;}.cls-442{fill:#b7caff;}.cls-443{fill:#b8caff;}.cls-444{fill:#b9cbff;}.cls-445{fill:#baccff;}.cls-446{fill:#bcf;}.cls-447{fill:#bccdff;}.cls-448{fill:#bdceff;}.cls-449{fill:#beceff;}.cls-450{fill:#bfcfff;}.cls-451{fill:#c0cfff;}.cls-452{fill:#c1d0ff;}.cls-453{fill:#c2d1ff;}.cls-454{fill:#c3d1ff;}.cls-455{fill:#c4d2ff;}.cls-456{fill:#c5d3ff;}.cls-457{fill:#c6d3ff;}.cls-458{fill:#c7d4ff;}.cls-459{fill:#c8d5ff;}.cls-460{fill:#c9d5ff;}.cls-461{fill:#cad6ff;}.cls-462{fill:#cbd7ff;}.cls-463{fill:#ccd7ff;}.cls-464{fill:#cdd8ff;}.cls-465{fill:#ced8ff;}.cls-466{fill:#cfd9ff;}.cls-467{fill:#d0daff;}.cls-468{fill:#d1daff;}.cls-469{fill:#d2dbff;}.cls-470{fill:#d3dcff;}.cls-471{fill:#d4dcff;}.cls-472{fill:#d5ddff;}.cls-473{fill:#d6deff;}.cls-474{fill:#d7deff;}.cls-475{fill:#d8dfff;}.cls-476{fill:#d9e0ff;}.cls-477{fill:#dae0ff;}.cls-478{fill:#dbe1ff;}.cls-479{fill:#dce1ff;}.cls-480{fill:#dde2ff;}.cls-481{fill:#dee3ff;}.cls-482{fill:#dfe3ff;}.cls-483{fill:#e0e4ff;}.cls-484{fill:#e1e5ff;}.cls-485{fill:#e2e5ff;}.cls-486{fill:#e3e6ff;}.cls-487{fill:#e4e7ff;}.cls-488{fill:#e5e7ff;}.cls-489{fill:#e6e8ff;}.cls-490{fill:#e7e9ff;}.cls-491{fill:#e8e9ff;}.cls-492{fill:#e9eaff;}.cls-493{fill:#eaeaff;}.cls-494{fill:#ebebff;}.cls-495{fill:#ececff;}.cls-496{fill:#edecff;}.cls-497{fill:#eeedff;}.cls-498{fill:#efeeff;}.cls-499{fill:#f0eeff;}.cls-500{fill:#f1efff;}.cls-501{fill:#f2f0ff;}.cls-502{fill:#f3f0ff;}.cls-503{fill:#f4f1ff;}.cls-504{fill:#f5f2ff;}.cls-505{fill:#f6f2ff;}.cls-506{fill:#f7f3ff;}.cls-507{fill:#f8f3ff;}.cls-508{fill:#f9f4ff;}.cls-509{fill:#faf5ff;}.cls-510{fill:#fbf5ff;}.cls-511{fill:#fcf6ff;}.cls-512{fill:#fdf7ff;}.cls-513{fill:#fef7ff;}.cls-514{fill:#fff8ff;}</style></defs><g class="cls-1"><g id="Layer_2" data-name="Layer 2"><g id="bg"><g class="cls-2"><path d="M236.26,383.09C51.46,489.78-101,225.69,83.79,119L242.51,27.36C437.53-85.24,590,178.85,395,291.45Z"/><path class="cls-3" d="M220.25,368.71C57.32,462.77-79.86,225.16,83.06,131.1l164.51-95C423-65.18,560.22,172.43,384.75,273.73Z"/><path class="cls-4" d="M204.24,354.33c-141.06,81.44-263-129.7-121.9-211.14L252.62,44.88C408.53-45.13,530.43,166,374.52,256Z"/><path class="cls-5" d="M188.23,340C69,408.77-37.58,224.11,81.62,155.29L257.68,53.64C394-25.08,500.64,159.58,364.3,238.3Z"/><path class="cls-6" d="M187.19,338.15C70.26,405.66-34.27,224.6,82.66,157.09L258.72,55.44c133-76.78,237.52,104.28,104.54,181.06Z"/><path class="cls-7" d="M186.15,336.35C71.49,402.55-31,225.09,83.7,158.89L259.76,57.24C389.38-17.6,491.84,159.86,362.22,234.7Z"/><path class="cls-8" d="M185.11,334.55C72.72,399.44-27.66,225.58,84.74,160.69L260.8,59C387.06-13.86,487.44,160,361.18,232.9Z"/><path class="cls-9" d="M184.07,332.75C73.94,396.33-24.35,226.08,85.78,162.49L261.84,60.84c122.9-70.95,221.2,99.31,98.3,170.26Z"/><path class="cls-10" d="M183,331C75.17,393.22-21,226.57,86.82,164.29L262.88,62.64c119.53-69,215.75,97.65,96.22,166.66Z"/><path class="cls-11" d="M182,329.15c-105.6,61-199.74-102.09-94.14-163.06L263.92,64.44c116.17-67.07,210.31,96,94.14,163.06Z"/><path class="cls-12" d="M181,327.35C77.63,387-14.44,227.55,88.89,167.89L265,66.24C377.77,1.11,469.83,160.57,357,225.7Z"/><path class="cls-13" d="M179.92,325.55c-101.07,58.35-191-97.51-90-155.86L266,68C375.45,4.85,465.43,160.71,356,223.9Z"/><path class="cls-13" d="M178.88,323.75c-98.8,57-186.7-95.21-87.91-152.26L267,69.85c106.08-61.25,194,91,87.9,152.25Z"/><path class="cls-14" d="M177.84,322C81.31,377.68-4.52,229,92,173.3L268.08,71.65C370.8,12.34,456.62,161,353.9,220.3Z"/><path class="cls-15" d="M176.8,320.15c-94.27,54.42-178-90.63-83.75-145L269.12,73.45c99.36-57.37,183.1,87.68,83.74,145.05Z"/><path class="cls-16" d="M175.76,318.35C83.76,371.46,2.09,230,94.09,176.9L270.16,75.25c96-55.43,177.66,86,81.66,141.45Z"/><path class="cls-17" d="M174.72,316.54C85,368.35,5.4,230.5,95.13,178.7L271.19,77.05c92.64-53.49,172.23,84.36,79.59,137.85Z"/><path class="cls-18" d="M173.68,314.74C86.21,365.24,8.71,231,96.17,180.5L272.23,78.85c89.28-51.54,166.79,82.7,77.51,134.24Z"/><path class="cls-19" d="M172.64,312.94C87.44,362.13,12,231.49,97.21,182.3L273.27,80.65c85.92-49.6,161.35,81,75.43,130.64Z"/><path class="cls-20" d="M171.6,311.14C88.67,359,15.32,232,98.25,184.1L274.31,82.45c82.55-47.66,155.9,79.38,73.35,127Z"/><path class="cls-21" d="M171.31,310.64c-82.29,47.51-155-78.53-72.77-126L274.6,83c81.9-47.28,154.67,78.76,72.77,126Z"/><path class="cls-22" d="M171,310.13c-81.64,47.14-153.82-77.89-72.19-125L274.9,83.46c81.24-46.91,153.42,78.12,72.18,125Z"/><path class="cls-23" d="M170.73,309.63c-81,46.76-152.6-77.26-71.61-124L275.19,84c80.58-46.52,152.18,77.49,71.6,124Z"/><path class="cls-24" d="M170.43,309.13c-80.34,46.38-151.36-76.63-71-123L275.48,84.47c79.93-46.15,151,76.86,71,123Z"/><path class="cls-25" d="M170.14,308.62c-79.69,46-150.13-76-70.43-122L275.77,85C355,39.2,425.48,161.2,346.21,207Z"/><path class="cls-26" d="M169.85,308.12c-79,45.63-148.9-75.36-69.85-121L276.06,85.48c78.62-45.39,148.47,75.6,69.85,121Z"/><path class="cls-27" d="M169.56,307.61c-78.4,45.27-147.67-74.71-69.27-120L276.35,86c78-45,147.24,75,69.27,120Z"/><path class="cls-28" d="M169.27,307.11C91.52,352,22.83,233,100.58,188.13L276.64,86.49c77.31-44.64,146,74.33,68.69,119Z"/><path class="cls-29" d="M169,306.6c-77.11,44.52-145.21-73.44-68.11-118L276.93,87C353.59,42.73,421.7,160.7,345,205Z"/><path class="cls-30" d="M168.69,306.1c-76.46,44.14-144-72.81-67.53-117L277.23,87.49c76-43.87,143.52,73.08,67.52,117Z"/><path class="cls-31" d="M168.4,305.59c-75.81,43.77-142.76-72.17-66.95-115.94L277.52,88c75.34-43.5,142.28,72.44,66.94,115.94Z"/><path class="cls-32" d="M168.1,305.09c-75.16,43.39-141.52-71.54-66.35-114.94L277.81,88.5c74.69-43.12,141.05,71.82,66.36,114.94Z"/><path class="cls-33" d="M167.81,304.58c-74.51,43-140.29-70.9-65.77-113.92L278.1,89c74-42.75,139.81,71.18,65.78,113.93Z"/><path class="cls-34" d="M167.52,304.08c-73.87,42.65-139.06-70.27-65.19-112.92L278.39,89.51C351.77,47.15,417,160.07,343.58,202.43Z"/><path class="cls-35" d="M167.23,303.58C94,345.85,29.4,233.94,102.62,191.67L278.68,90C351.41,48,416,159.94,343.29,201.93Z"/><path class="cls-36" d="M166.94,303.07c-72.57,41.9-136.6-69-64-110.9L279,90.52c72.07-41.61,136.1,69.29,64,110.9Z"/><path class="cls-37" d="M166.65,302.57C94.72,344.09,31.28,234.2,103.2,192.68L279.26,91c71.42-41.23,134.86,68.66,63.45,109.89Z"/><path class="cls-38" d="M166.36,302.06c-71.28,41.16-134.14-67.73-62.87-108.88L279.56,91.53c70.75-40.85,133.62,68,62.86,108.88Z"/><path class="cls-39" d="M166.07,301.56c-70.63,40.78-132.92-67.1-62.29-107.88L279.85,92c70.1-40.47,132.38,67.4,62.28,107.88Z"/><path class="cls-40" d="M165.77,301.05c-70,40.41-131.68-66.46-61.69-106.86L280.14,92.54c69.45-40.1,131.14,66.77,61.7,106.86Z"/><path class="cls-41" d="M165.48,300.55c-69.33,40-130.45-65.83-61.11-105.86L280.43,93c68.79-39.71,129.91,66.14,61.12,105.86Z"/><path class="cls-42" d="M165.19,300C96.5,339.7,36,234.85,104.66,195.2L280.72,93.55c68.14-39.34,128.67,65.51,60.53,104.84Z"/><path class="cls-43" d="M164.9,299.54C96.86,338.82,36.91,235,105,195.7L281,94.05c67.48-39,127.43,64.88,59.95,103.84Z"/><path class="cls-44" d="M164.61,299C97.22,338,37.85,235.12,105.24,196.21L281.3,94.56C348.13,56,407.5,158.8,340.67,197.39Z"/><path class="cls-45" d="M164.32,298.53c-66.75,38.54-125.53-63.28-58.79-101.82L281.6,95.06c66.17-38.2,125,63.62,58.78,101.82Z"/><path class="cls-46" d="M164,298c-66.1,38.16-124.3-62.65-58.21-100.81L281.89,95.57c65.51-37.83,123.72,63,58.2,100.81Z"/><path class="cls-47" d="M163.74,297.52c-65.46,37.79-123.08-62-57.62-99.8L282.18,96.07c64.86-37.45,122.48,62.36,57.62,99.8Z"/><path class="cls-47" d="M163.44,297c-64.8,37.41-121.84-61.38-57-98.8L282.47,96.57c64.2-37.06,121.24,61.73,57,98.8Z"/><path class="cls-48" d="M163.15,296.51c-64.15,37-120.61-60.74-56.45-97.78L282.76,97.08c63.55-36.69,120,61.09,56.46,97.78Z"/><path class="cls-49" d="M162.86,296C99.35,332.68,43.48,235.9,107,199.23L283.05,97.58c62.9-36.31,118.77,60.47,55.87,96.78Z"/><path class="cls-50" d="M162.57,295.5C99.71,331.8,44.42,236,107.28,199.74L283.34,98.09c62.24-35.94,117.53,59.83,55.29,95.76Z"/><path class="cls-51" d="M162.28,295c-62.21,35.92-116.92-58.84-54.71-94.76L283.63,98.59c61.59-35.55,116.3,59.2,54.71,94.76Z"/><path class="cls-52" d="M162,294.5C100.42,330,46.3,236.29,107.86,200.75L283.93,99.1c60.92-35.18,115.05,58.57,54.12,93.75Z"/><path class="cls-53" d="M161.7,294c-60.92,35.17-114.46-57.57-53.55-92.74L284.22,99.6c60.27-34.8,113.81,57.94,53.54,92.74Z"/><path class="cls-54" d="M161.41,293.49c-60.28,34.79-113.24-56.94-53-91.73L284.51,100.11c59.62-34.42,112.58,57.31,53,91.73Z"/><path class="cls-55" d="M161.11,293c-59.62,34.43-112-56.3-52.37-90.72L284.8,100.61c59-34,111.34,56.68,52.38,90.72Z"/><path class="cls-56" d="M160.82,292.48c-59,34-110.77-55.67-51.79-89.72L285.09,101.11c58.31-33.66,110.1,56.05,51.8,89.72Z"/><path class="cls-57" d="M160.53,292C102.2,325.65,51,237,109.32,203.27L285.38,101.62C343,68.33,394.25,157,336.59,190.32Z"/><path class="cls-58" d="M160.24,291.47c-57.68,33.3-108.31-54.39-50.63-87.7L285.67,102.12c57-32.9,107.63,54.79,50.63,87.7Z"/><path class="cls-59" d="M160,291c-57,32.93-107.08-53.75-50-86.68L286,102.63C342.31,70.1,392.35,156.78,336,189.31Z"/><path class="cls-60" d="M159.66,290.46C103.27,323,53.81,237.34,110.19,204.78L286.26,103.13c55.68-32.15,105.15,53.53,49.46,85.68Z"/><path class="cls-61" d="M159.37,290c-55.74,32.18-104.62-52.49-48.89-84.67L286.55,103.64c55-31.78,103.91,52.89,48.88,84.67Z"/><path class="cls-62" d="M159.08,289.45c-55.1,31.81-103.4-51.85-48.3-83.66L286.84,104.14c54.37-31.39,102.68,52.27,48.3,83.66Z"/><path class="cls-63" d="M158.78,289c-54.44,31.43-102.16-51.22-47.71-82.65L287.13,104.65c53.72-31,101.44,51.63,47.72,82.65Z"/><path class="cls-64" d="M158.49,288.44C104.7,319.5,57.56,237.86,111.36,206.8L287.42,105.15c53.07-30.64,100.2,51,47.14,81.64Z"/><path class="cls-65" d="M158.2,287.94C105.05,318.62,58.5,238,111.65,207.3L287.71,105.66c52.41-30.26,99,50.37,46.55,80.63Z"/><path class="cls-66" d="M157.91,287.43c-52.5,30.31-98.47-49.31-46-79.62L288,106.16c51.76-29.88,97.73,49.74,46,79.62Z"/><path class="cls-67" d="M157.62,286.93c-51.85,29.94-97.24-48.68-45.39-78.62L288.29,106.66c51.11-29.5,96.49,49.12,45.39,78.62Z"/><path class="cls-68" d="M157.33,286.42c-51.21,29.57-96-48-44.81-77.6L288.59,107.17c50.44-29.13,95.25,48.48,44.8,77.6Z"/><path class="cls-69" d="M157,285.92c-50.56,29.19-94.78-47.41-44.23-76.6L288.88,107.67c49.79-28.74,94,47.85,44.22,76.6Z"/><path class="cls-70" d="M156.75,285.41c-49.92,28.82-93.56-46.77-43.64-75.58L289.17,108.18c49.13-28.37,92.77,47.22,43.64,75.59Z"/><path class="cls-71" d="M156.45,284.91c-49.26,28.44-92.32-46.14-43-74.58L289.46,108.68c48.48-28,91.54,46.59,43.06,74.58Z"/><path class="cls-72" d="M156.16,284.41c-48.61,28.06-91.09-45.5-42.47-73.57L289.75,109.19c47.83-27.62,90.3,45.95,42.48,73.57Z"/><path class="cls-73" d="M155.87,283.9C107.9,311.6,66,239,114,211.34L290,109.69c47.17-27.23,89.06,45.33,41.89,72.56Z"/><path class="cls-74" d="M155.58,283.4c-47.32,27.32-88.63-44.23-41.31-71.55L290.33,110.2c46.52-26.86,87.83,44.69,41.31,71.55Z"/><path class="cls-75" d="M155.29,282.89c-46.67,26.95-87.4-43.59-40.73-70.54L290.62,110.7c45.86-26.48,86.59,44.07,40.73,70.54Z"/><path class="cls-76" d="M155.16,282.66c-46.37,26.78-86.84-43.31-40.47-70.08L290.76,110.93c45.57-26.31,86,43.77,40.46,70.08Z"/><path class="cls-77" d="M155,282.44c-46.07,26.59-86.27-43-40.2-69.63L290.89,111.16c45.28-26.15,85.48,43.48,40.2,69.63Z"/><path class="cls-78" d="M154.89,282.21C109.13,308.63,69.19,239.46,115,213L291,111.39c45-26,84.93,43.19,39.94,69.17Z"/><path class="cls-79" d="M154.76,282c-45.46,26.25-85.14-42.47-39.67-68.72L291.15,111.61c44.7-25.8,84.37,42.91,39.67,68.72Z"/><path class="cls-80" d="M154.63,281.75c-45.16,26.08-84.57-42.18-39.41-68.26L291.28,111.84c44.41-25.64,83.82,42.62,39.41,68.26Z"/><path class="cls-81" d="M154.5,281.52c-44.87,25.9-84-41.9-39.15-67.8L291.42,112.07c44.11-25.47,83.26,42.33,39.14,67.8Z"/><path class="cls-82" d="M154.37,281.29C109.8,307,70.92,239.68,115.48,214L291.55,112.3c43.83-25.31,82.71,42,38.88,67.34Z"/><path class="cls-83" d="M154.23,281.06c-44.26,25.56-82.87-41.33-38.61-66.88L291.68,112.53c43.54-25.14,82.15,41.75,38.62,66.88Z"/><path class="cls-84" d="M154.1,280.84c-44,25.38-82.31-41-38.35-66.43L291.81,112.76c43.25-25,81.6,41.46,38.35,66.43Z"/><path class="cls-85" d="M154,280.61c-43.66,25.2-81.75-40.77-38.09-66L291.94,113c43-24.8,81.05,41.18,38.09,66Z"/><path class="cls-86" d="M153.84,280.38c-43.36,25-81.18-40.49-37.83-65.52L292.08,113.21c42.66-24.63,80.49,40.88,37.82,65.52Z"/><path class="cls-87" d="M153.71,280.15C110.65,305,73.09,240,116.14,215.09L292.21,113.44C334.58,89,372.15,154,329.77,178.5Z"/><path class="cls-88" d="M153.57,279.92c-42.75,24.68-80-39.92-37.29-64.6L292.34,113.67c42.09-24.3,79.38,40.3,37.3,64.6Z"/><path class="cls-89" d="M153.44,279.69C111,304.2,74,240.06,116.41,215.55L292.47,113.9c41.8-24.13,78.83,40,37,64.14Z"/><path class="cls-90" d="M153.31,279.46c-42.15,24.34-78.92-39.35-36.77-63.68L292.6,114.13c41.51-24,78.28,39.72,36.77,63.69Z"/><path class="cls-91" d="M153.18,279.24C111.33,303.4,74.83,240.17,116.67,216L292.73,114.36c41.22-23.8,77.73,39.43,36.51,63.23Z"/><path class="cls-92" d="M153.05,279c-41.55,24-77.79-38.79-36.25-62.78L292.87,114.58C333.79,91,370,153.73,329.11,177.36Z"/><path class="cls-93" d="M152.91,278.78c-41.24,23.81-77.22-38.51-36-62.32L293,114.81c40.64-23.46,76.61,38.86,36,62.32Z"/><path class="cls-94" d="M152.78,278.55c-40.94,23.64-76.65-38.22-35.71-61.86L293.13,115c40.35-23.29,76.06,38.57,35.72,61.86Z"/><path class="cls-95" d="M152.65,278.32c-40.64,23.47-76.09-37.94-35.45-61.4L293.26,115.27c40.06-23.13,75.51,38.28,35.45,61.4Z"/><path class="cls-96" d="M152.52,278.09c-40.34,23.29-75.52-37.65-35.19-60.94L293.39,115.5c39.77-23,75,38,35.19,60.94Z"/><path class="cls-97" d="M152.39,277.87c-40,23.11-75-37.38-34.93-60.49L293.53,115.73c39.47-22.79,74.4,37.69,34.92,60.49Z"/><path class="cls-98" d="M152.26,277.64c-39.74,22.94-74.4-37.1-34.66-60L293.66,116c39.18-22.63,73.84,37.4,34.66,60Z"/><path class="cls-99" d="M152.12,277.41c-39.43,22.76-73.82-36.81-34.39-59.58L293.79,116.18c38.9-22.45,73.29,37.12,34.4,59.58Z"/><path class="cls-100" d="M152,277.18c-39.13,22.59-73.26-36.53-34.13-59.12L293.92,116.41c38.61-22.29,72.74,36.83,34.13,59.12Z"/><path class="cls-101" d="M151.86,277C113,299.37,79.16,240.71,118,218.29L294.05,116.64c38.32-22.12,72.19,36.54,33.87,58.66Z"/><path class="cls-102" d="M151.73,276.72c-38.53,22.25-72.13-36-33.61-58.2L294.19,116.87c38-22,71.63,36.25,33.6,58.2Z"/><path class="cls-103" d="M151.6,276.49c-38.23,22.07-71.57-35.67-33.34-57.74L294.32,117.1c37.73-21.79,71.07,36,33.34,57.74Z"/><path class="cls-104" d="M151.46,276.27c-37.92,21.89-71-35.4-33.07-57.29L294.45,117.33C331.89,95.71,365,153,327.53,174.62Z"/><path class="cls-105" d="M151.33,276c-37.62,21.72-70.43-35.12-32.81-56.84L294.58,117.55c37.16-21.45,70,35.39,32.81,56.84Z"/><path class="cls-106" d="M151.2,275.81c-37.32,21.54-69.87-34.83-32.55-56.38L294.71,117.78c36.87-21.28,69.42,35.1,32.55,56.38Z"/><path class="cls-107" d="M151.07,275.58c-37,21.37-69.3-34.55-32.29-55.92L294.85,118c36.57-21.11,68.86,34.8,32.28,55.92Z"/><path class="cls-108" d="M150.94,275.35c-36.72,21.2-68.74-34.26-32-55.46L295,118.24c36.28-20.95,68.3,34.51,32,55.46Z"/><path class="cls-109" d="M150.8,275.12c-36.41,21-68.17-34-31.75-55L295.11,118.47c36-20.78,67.75,34.22,31.76,55Z"/><path class="cls-110" d="M150.67,274.9c-36.11,20.84-67.6-33.7-31.49-54.55L295.24,118.7c35.71-20.62,67.2,33.93,31.49,54.55Z"/><path class="cls-111" d="M150.54,274.67c-35.81,20.67-67-33.42-31.23-54.09L295.37,118.93C330.79,98.48,362,152.57,326.6,173Z"/><path class="cls-112" d="M150.41,274.44c-35.51,20.5-66.47-33.14-31-53.64L295.51,119.15c35.12-20.27,66.08,33.36,31,53.64Z"/><path class="cls-113" d="M150.28,274.21c-35.21,20.33-65.91-32.85-30.71-53.18L295.64,119.38c34.83-20.11,65.53,33.07,30.7,53.18Z"/><path class="cls-114" d="M150.14,274c-34.9,20.15-65.34-32.57-30.43-52.72L295.77,119.61c34.54-19.94,65,32.78,30.44,52.72Z"/><path class="cls-115" d="M150,273.75c-34.6,20-64.77-32.28-30.17-52.26L295.9,119.84c34.25-19.78,64.43,32.49,30.18,52.26Z"/><path class="cls-116" d="M149.88,273.52c-34.3,19.81-64.21-32-29.91-51.8L296,120.07c34-19.61,63.88,32.2,29.91,51.8Z"/><path class="cls-117" d="M149.75,273.3c-34,19.62-63.65-31.72-29.65-51.35L296.16,120.3c33.68-19.44,63.32,31.9,29.65,51.35Z"/><path class="cls-118" d="M149.62,273.07c-33.7,19.45-63.08-31.44-29.39-50.9L296.3,120.53c33.38-19.28,62.76,31.61,29.38,50.89Z"/><path class="cls-119" d="M149.48,272.84C116.09,292.12,87,241.68,120.37,222.4L296.43,120.75c33.09-19.1,62.21,31.33,29.12,50.44Z"/><path class="cls-120" d="M149.35,272.61c-33.09,19.11-61.95-30.87-28.85-50L296.56,121c32.8-18.94,61.66,31,28.86,50Z"/><path class="cls-121" d="M149.22,272.38c-32.79,18.93-61.38-30.59-28.59-49.52L296.69,121.21c32.51-18.77,61.11,30.75,28.59,49.52Z"/><path class="cls-122" d="M149.09,272.15c-32.49,18.76-60.82-30.3-28.33-49.06L296.82,121.44c32.23-18.6,60.55,30.46,28.33,49.06Z"/><path class="cls-123" d="M149,271.92c-32.19,18.59-60.25-30-28.07-48.6L297,121.67c31.93-18.44,60,30.17,28.06,48.6Z"/><path class="cls-124" d="M148.83,271.7C116.94,290.11,89.14,242,121,223.55L297.09,121.9c31.64-18.27,59.44,29.88,27.8,48.15Z"/><path class="cls-125" d="M148.69,271.47c-31.58,18.23-59.12-29.46-27.53-47.7L297.22,122.12c31.35-18.1,58.89,29.6,27.54,47.7Z"/><path class="cls-126" d="M148.56,271.24C117.28,289.3,90,242.06,121.29,224L297.35,122.35c31.06-17.93,58.34,29.31,27.27,47.24Z"/><path class="cls-127" d="M148.43,271c-31,17.89-58-28.89-27-46.78L297.48,122.58c30.78-17.76,57.78,29,27,46.78Z"/><path class="cls-128" d="M148.3,270.78c-30.68,17.71-57.43-28.61-26.75-46.32L297.62,122.81c30.48-17.6,57.22,28.72,26.74,46.32Z"/><path class="cls-129" d="M148.17,270.55c-30.38,17.54-56.86-28.32-26.48-45.86L297.75,123c30.19-17.43,56.67,28.43,26.48,45.86Z"/><path class="cls-130" d="M148,270.33c-30.07,17.36-56.29-28-26.21-45.41L297.88,123.27C327.78,106,354,151.41,324.1,168.68Z"/><path class="cls-131" d="M147.9,270.1c-29.77,17.19-55.72-27.76-25.95-45L298,123.5c29.61-17.1,55.57,27.85,25.95,44.95Z"/><path class="cls-132" d="M147.77,269.87c-29.47,17-55.16-27.48-25.69-44.5L298.14,123.72c29.32-16.92,55,27.57,25.69,44.5Z"/><path class="cls-133" d="M147.64,269.64c-29.17,16.84-54.6-27.2-25.43-44L298.28,124c29-16.76,54.45,27.28,25.42,44Z"/><path class="cls-134" d="M147.51,269.41c-28.87,16.67-54-26.91-25.17-43.58L298.41,124.18c28.74-16.59,53.9,27,25.16,43.58Z"/><path class="cls-135" d="M147.37,269.18c-28.56,16.5-53.46-26.63-24.89-43.12L298.54,124.41c28.45-16.43,53.35,26.7,24.9,43.12Z"/><path class="cls-136" d="M147.24,269c-28.26,16.32-52.9-26.34-24.63-42.66L298.67,124.64c28.16-16.26,52.79,26.41,24.63,42.66Z"/><path class="cls-137" d="M147.11,268.73c-28,16.14-52.33-26.07-24.37-42.21L298.8,124.87C326.67,108.78,351,151,323.17,167.08Z"/><path class="cls-138" d="M147,268.5c-27.66,16-51.77-25.78-24.11-41.76L298.94,125.1c27.57-15.93,51.68,25.82,24.1,41.75Z"/><path class="cls-139" d="M146.85,268.27c-27.36,15.79-51.2-25.5-23.85-41.3L299.07,125.32c27.29-15.75,51.13,25.54,23.84,41.3Z"/><path class="cls-140" d="M146.71,268c-27.05,15.62-50.63-25.22-23.57-40.84L299.2,125.55c27-15.59,50.58,25.25,23.58,40.84Z"/><path class="cls-141" d="M146.58,267.81c-26.75,15.45-50.07-24.93-23.31-40.38L299.33,125.78c26.71-15.42,50,25,23.32,40.38Z"/><path class="cls-142" d="M146.45,267.58c-26.45,15.28-49.5-24.65-23-39.92L299.46,126c26.42-15.25,49.47,24.67,23.05,39.92Z"/><path class="cls-143" d="M146.32,267.35c-26.15,15.1-48.94-24.36-22.79-39.46L299.59,126.24c26.13-15.09,48.92,24.38,22.79,39.47Z"/><path class="cls-144" d="M146.19,267.13c-25.85,14.92-48.38-24.09-22.53-39L299.73,126.47c25.84-14.92,48.36,24.09,22.52,39Z"/><path class="cls-145" d="M146.05,266.9c-25.54,14.75-47.8-23.8-22.25-38.56L299.86,126.69c25.55-14.75,47.81,23.81,22.26,38.56Z"/><path class="cls-146" d="M145.92,266.67c-25.24,14.58-47.24-23.52-22-38.1L300,126.92c25.26-14.58,47.25,23.52,22,38.1Z"/><path class="cls-147" d="M145.84,266.52C120.8,281,99,243.18,124,228.72L300.08,127.07c25-14.44,46.84,23.35,21.82,37.8Z"/><path class="cls-148" d="M145.75,266.37c-24.83,14.34-46.48-23.16-21.65-37.5L300.16,127.22c24.8-14.31,46.44,23.19,21.65,37.5Z"/><path class="cls-149" d="M145.66,266.22c-24.62,14.22-46.1-23-21.47-37.2L300.25,127.37c24.56-14.17,46,23,21.48,37.2Z"/><path class="cls-150" d="M145.58,266.07c-24.42,14.1-45.73-22.8-21.3-36.9L300.34,127.52c24.32-14,45.62,22.86,21.3,36.9Z"/><path class="cls-151" d="M145.49,265.92c-24.21,14-45.34-22.62-21.13-36.6L300.42,127.67c24.09-13.9,45.22,22.69,21.13,36.6Z"/><path class="cls-152" d="M145.4,265.77c-24,13.86-45-22.43-21-36.3L300.51,127.82c23.86-13.77,44.81,22.52,20.95,36.3Z"/><path class="cls-153" d="M145.32,265.62c-23.8,13.74-44.58-22.25-20.78-36L300.6,128c23.62-13.64,44.4,22.35,20.78,36Z"/><path class="cls-154" d="M145.23,265.47c-23.59,13.62-44.2-22.07-20.61-35.69L300.68,128.13c23.39-13.51,44,22.18,20.61,35.69Z"/><path class="cls-155" d="M145.14,265.32c-23.39,13.5-43.82-21.89-20.43-35.39L300.77,128.28c23.16-13.37,43.59,22,20.43,35.39Z"/><path class="cls-156" d="M145.06,265.17c-23.19,13.38-43.44-21.71-20.26-35.09L300.86,128.43c22.92-13.24,43.18,21.85,20.26,35.09Z"/><path class="cls-157" d="M145,265c-23,13.26-43.06-21.53-20.09-34.79L300.94,128.58c22.69-13.1,42.78,21.69,20.09,34.79Z"/><path class="cls-158" d="M144.88,264.87C122.11,278,102.2,243.52,125,230.38L301,128.73c22.46-13,42.37,21.52,19.91,34.49Z"/><path class="cls-159" d="M144.79,264.72c-22.56,13-42.29-21.17-19.73-34.19L301.12,128.88c22.22-12.83,42,21.36,19.74,34.19Z"/><path class="cls-160" d="M144.71,264.57c-22.36,12.9-41.92-21-19.57-33.89L301.21,129c22-12.7,41.55,21.19,19.56,33.89Z"/><path class="cls-161" d="M144.62,264.41c-22.15,12.79-41.54-20.8-19.39-33.58L301.29,129.18c21.75-12.56,41.15,21,19.39,33.59Z"/><path class="cls-162" d="M144.53,264.26c-21.94,12.67-41.15-20.61-19.21-33.28L301.38,129.33c21.52-12.43,40.74,20.86,19.22,33.28Z"/><path class="cls-163" d="M144.45,264.11c-21.74,12.55-40.78-20.43-19-33L301.47,129.48c21.28-12.29,40.33,20.7,19,33Z"/><path class="cls-164" d="M144.36,264c-21.53,12.43-40.4-20.25-18.87-32.68L301.55,129.63c21.05-12.16,39.93,20.53,18.87,32.68Z"/><path class="cls-165" d="M144.27,263.81c-21.32,12.31-40-20.07-18.69-32.38L301.64,129.78c20.82-12,39.51,20.36,18.7,32.38Z"/><path class="cls-166" d="M144.19,263.66c-21.12,12.19-39.64-19.89-18.53-32.08L301.73,129.93c20.58-11.89,39.1,20.2,18.52,32.08Z"/><path class="cls-167" d="M144.1,263.51c-20.91,12.07-39.26-19.71-18.35-31.78L301.81,130.08c20.35-11.75,38.7,20,18.35,31.78Z"/><path class="cls-168" d="M144,263.36c-20.7,11.95-38.87-19.53-18.17-31.48L301.9,130.23c20.12-11.62,38.29,19.87,18.18,31.48Z"/><path class="cls-169" d="M143.93,263.21c-20.5,11.84-38.5-19.35-18-31.18L302,130.38c19.88-11.48,37.88,19.7,18,31.18Z"/><path class="cls-170" d="M143.84,263.06c-20.29,11.72-38.12-19.17-17.83-30.88L302.07,130.53c19.65-11.34,37.48,19.54,17.83,30.88Z"/><path class="cls-171" d="M143.75,262.91c-20.08,11.6-37.73-19-17.65-30.58L302.16,130.68c19.42-11.21,37.07,19.37,17.66,30.58Z"/><path class="cls-172" d="M143.67,262.76c-19.88,11.48-37.36-18.81-17.49-30.28L302.25,130.83c19.18-11.07,36.66,19.21,17.48,30.28Z"/><path class="cls-173" d="M143.58,262.61c-19.67,11.36-37-18.62-17.31-30L302.33,131c18.95-10.94,36.26,19,17.31,30Z"/><path class="cls-174" d="M143.49,262.46C124,273.7,106.9,244,126.36,232.78L302.42,131.13c18.71-10.8,35.85,18.88,17.14,29.68Z"/><path class="cls-175" d="M143.41,262.31c-19.26,11.12-36.22-18.26-17-29.38L302.51,131.28C321,120.61,338,150,319.47,160.66Z"/><path class="cls-176" d="M143.32,262.16c-19,11-35.84-18.08-16.79-29.08L302.59,131.43c18.25-10.53,35,18.55,16.79,29.08Z"/><path class="cls-177" d="M143.23,262c-18.84,10.88-35.45-17.9-16.61-28.78L302.68,131.58c18-10.4,34.63,18.38,16.62,28.78Z"/><path class="cls-178" d="M143.15,261.86c-18.64,10.76-35.08-17.72-16.45-28.48L302.77,131.73c17.78-10.26,34.22,18.21,16.44,28.48Z"/><path class="cls-179" d="M143.06,261.71c-18.43,10.64-34.7-17.54-16.27-28.18L302.85,131.88c17.55-10.13,33.82,18.05,16.27,28.18Z"/><path class="cls-179" d="M143,261.56c-18.22,10.52-34.31-17.36-16.09-27.88L302.94,132c17.31-10,33.41,17.88,16.1,27.88Z"/><path class="cls-180" d="M142.89,261.41c-18,10.4-33.94-17.18-15.93-27.58L303,132.18c17.08-9.86,33,17.72,15.92,27.58Z"/><path class="cls-181" d="M142.8,261.26c-17.81,10.28-33.56-17-15.75-27.28L303.11,132.33c16.85-9.72,32.6,17.55,15.75,27.28Z"/><path class="cls-182" d="M142.71,261.11c-17.6,10.16-33.17-16.81-15.57-27L303.2,132.48c16.61-9.59,32.19,17.39,15.57,27Z"/><path class="cls-183" d="M142.63,261c-17.4,10-32.8-16.63-15.4-26.68L303.29,132.63c16.38-9.45,31.78,17.22,15.4,26.68Z"/><path class="cls-184" d="M142.54,260.81c-17.19,9.92-32.42-16.45-15.23-26.38L303.37,132.78c16.15-9.32,31.38,17.06,15.23,26.38Z"/><path class="cls-185" d="M142.45,260.66c-17,9.8-32-16.27-15-26.08L303.46,132.93c15.91-9.18,31,16.89,15.05,26.08Z"/><path class="cls-186" d="M142.37,260.51c-16.78,9.68-31.66-16.09-14.88-25.78L303.55,133.08c15.67-9.05,30.55,16.73,14.88,25.78Z"/><path class="cls-187" d="M142.28,260.36c-16.57,9.56-31.28-15.91-14.71-25.48L303.63,133.24c15.45-8.92,30.15,16.55,14.71,25.47Z"/><path class="cls-188" d="M142.19,260.21c-16.36,9.44-30.89-15.73-14.53-25.17L303.72,133.39c15.21-8.79,29.74,16.39,14.53,25.17Z"/><path class="cls-189" d="M142.11,260.06c-16.16,9.32-30.52-15.55-14.36-24.87L303.81,133.54c15-8.65,29.33,16.22,14.36,24.87Z"/><path class="cls-190" d="M142,259.91c-16,9.2-30.14-15.37-14.19-24.57L303.9,133.69c14.74-8.52,28.92,16.06,14.18,24.57Z"/><path class="cls-191" d="M141.93,259.76c-15.74,9.08-29.75-15.19-14-24.27L304,133.84c14.51-8.38,28.52,15.89,14,24.27Z"/><path class="cls-192" d="M141.84,259.61c-15.53,9-29.37-15-13.83-24L304.07,134c14.27-8.24,28.11,15.72,13.84,24Z"/><path class="cls-193" d="M141.76,259.46c-15.33,8.85-29-14.82-13.67-23.67L304.16,134.14c14-8.11,27.7,15.56,13.66,23.67Z"/><path class="cls-194" d="M141.67,259.3c-15.12,8.74-28.61-14.63-13.49-23.36L304.24,134.29c13.81-8,27.3,15.39,13.49,23.37Z"/><path class="cls-195" d="M141.58,259.15c-14.91,8.62-28.23-14.45-13.31-23.06L304.33,134.44c13.57-7.84,26.89,15.23,13.32,23.06Z"/><path class="cls-196" d="M141.5,259c-14.71,8.5-27.86-14.27-13.15-22.76L304.42,134.59c13.34-7.7,26.48,15.06,13.14,22.76Z"/><path class="cls-197" d="M141.41,258.85c-14.5,8.38-27.47-14.09-13-22.46L304.5,134.74c13.11-7.57,26.08,14.9,13,22.46Z"/><path class="cls-198" d="M141.32,258.7C127,267,114.23,244.79,128.53,236.54L304.59,134.89c12.87-7.43,25.67,14.73,12.8,22.16Z"/><path class="cls-199" d="M141.24,258.55c-14.09,8.14-26.71-13.73-12.63-21.86L304.68,135c12.63-7.3,25.26,14.57,12.62,21.86Z"/><path class="cls-200" d="M141.15,258.4c-13.88,8-26.33-13.55-12.45-21.56L304.76,135.19c12.41-7.16,24.86,14.4,12.45,21.56Z"/><path class="cls-201" d="M141.06,258.25c-13.67,7.9-25.95-13.37-12.27-21.26L304.85,135.34c12.17-7,24.45,14.24,12.28,21.26Z"/><path class="cls-202" d="M141,258.1c-13.47,7.78-25.57-13.18-12.11-21L304.94,135.49c11.93-6.89,24,14.07,12.1,21Z"/><path class="cls-203" d="M140.89,258c-13.26,7.66-25.19-13-11.93-20.66L305,135.64c11.71-6.76,23.64,13.91,11.93,20.66Z"/><path class="cls-204" d="M140.8,257.8C127.75,265.34,116,245,129.05,237.44L305.11,135.79c11.47-6.62,23.23,13.74,11.76,20.36Z"/><path class="cls-205" d="M140.72,257.65c-12.85,7.42-24.43-12.64-11.59-20.06L305.2,135.94c11.23-6.49,22.82,13.57,11.58,20.06Z"/><path class="cls-206" d="M140.63,257.5c-12.64,7.3-24-12.46-11.41-19.76L305.28,136.09c11-6.35,22.41,13.41,11.41,19.76Z"/><path class="cls-207" d="M140.54,257.35c-12.43,7.18-23.67-12.28-11.23-19.46L305.37,136.24c10.77-6.22,22,13.24,11.24,19.46Z"/><path class="cls-208" d="M140.46,257.2c-12.23,7.06-23.29-12.1-11.07-19.16L305.46,136.39c10.53-6.08,21.59,13.08,11.06,19.16Z"/><path class="cls-209" d="M140.37,257.05c-12,6.94-22.91-11.92-10.89-18.86L305.54,136.54c10.31-5.95,21.19,12.91,10.89,18.86Z"/><path class="cls-210" d="M140.28,256.9c-11.81,6.82-22.53-11.74-10.71-18.56L305.63,136.69c10.07-5.81,20.78,12.75,10.72,18.56Z"/><path class="cls-211" d="M140.2,256.75c-11.61,6.7-22.15-11.56-10.55-18.26L305.72,136.84c9.83-5.68,20.37,12.58,10.54,18.26Z"/><path class="cls-212" d="M140.11,256.6c-11.4,6.58-21.77-11.37-10.37-18L305.8,137c9.6-5.54,20,12.42,10.37,18Z"/><path class="cls-213" d="M140,256.48c-11.25,6.5-21.48-11.23-10.23-17.72L305.87,137.11c9.49-5.48,19.72,12.25,10.23,17.72Z"/><path class="cls-214" d="M140,256.37c-11.09,6.4-21.19-11.09-10.09-17.49L305.94,137.23c9.37-5.42,19.47,12.08,10.1,17.49Z"/><path class="cls-215" d="M139.91,256.25C129,262.57,119,245.31,129.94,239L306,137.34c9.26-5.34,19.22,11.91,10,17.26Z"/><path class="cls-216" d="M139.84,256.13c-10.78,6.23-20.61-10.8-9.83-17L306.07,137.46c9.15-5.28,19,11.74,9.83,17Z"/><path class="cls-217" d="M139.77,256c-10.63,6.13-20.32-10.66-9.69-16.8L306.14,137.58c9-5.22,18.73,11.57,9.7,16.79Z"/><path class="cls-218" d="M139.71,255.9c-10.48,6-20-10.51-9.56-16.56L306.21,137.69c8.92-5.15,18.48,11.41,9.56,16.56Z"/><path class="cls-219" d="M139.64,255.78c-10.32,6-19.75-10.36-9.43-16.32L306.28,137.81c8.8-5.09,18.23,11.24,9.42,16.32Z"/><path class="cls-220" d="M139.57,255.67c-10.17,5.87-19.46-10.23-9.29-16.1L306.34,137.92c8.7-5,18,11.08,9.29,16.1Z"/><path class="cls-221" d="M139.5,255.55c-10,5.78-19.16-10.08-9.15-15.86L306.41,138c8.58-4.95,17.74,10.91,9.16,15.86Z"/><path class="cls-222" d="M139.44,255.43c-9.86,5.7-18.88-9.93-9-15.62L306.48,138.16c8.46-4.89,17.49,10.74,9,15.62Z"/><path class="cls-223" d="M139.37,255.32c-9.7,5.6-18.59-9.79-8.89-15.4L306.54,138.27c8.36-4.82,17.25,10.57,8.89,15.4Z"/><path class="cls-224" d="M139.3,255.2c-9.55,5.51-18.3-9.65-8.75-15.16L306.61,138.39c8.24-4.76,17,10.4,8.75,15.16Z"/><path class="cls-225" d="M139.23,255.08c-9.39,5.43-18-9.5-8.61-14.92L306.68,138.51c8.13-4.69,16.74,10.23,8.62,14.92Z"/><path class="cls-226" d="M139.17,255c-9.24,5.33-17.73-9.36-8.49-14.7L306.75,138.62c8-4.62,16.49,10.07,8.48,14.7Z"/><path class="cls-227" d="M139.1,254.85c-9.08,5.25-17.43-9.21-8.35-14.46L306.81,138.74c7.9-4.56,16.25,9.9,8.35,14.46Z"/><path class="cls-228" d="M139,254.73c-8.93,5.16-17.14-9.07-8.21-14.22L306.88,138.86c7.79-4.5,16,9.73,8.22,14.23Z"/><path class="cls-229" d="M139,254.62c-8.78,5.06-16.86-8.93-8.08-14L307,139c7.67-4.43,15.75,9.57,8.08,14Z"/><path class="cls-230" d="M138.9,254.5c-8.62,5-16.57-8.78-8-13.76L307,139.09c7.56-4.36,15.5,9.4,7.94,13.76Z"/><path class="cls-231" d="M138.83,254.39c-8.47,4.88-16.28-8.65-7.81-13.53L307.08,139.21c7.45-4.3,15.26,9.23,7.81,13.53Z"/><path class="cls-232" d="M138.76,254.27c-8.31,4.8-16-8.5-7.67-13.3L307.15,139.32c7.33-4.23,15,9.06,7.68,13.3Z"/><path class="cls-233" d="M138.7,254.15c-8.16,4.71-15.7-8.35-7.55-13.06L307.22,139.44c7.22-4.17,14.76,8.89,7.54,13.06Z"/><path class="cls-234" d="M138.63,254c-8,4.62-15.41-8.21-7.41-12.83L307.28,139.56c7.11-4.11,14.52,8.72,7.41,12.83Z"/><path class="cls-235" d="M138.56,253.92c-7.85,4.53-15.12-8.07-7.27-12.6L307.35,139.67c7-4,14.27,8.56,7.27,12.6Z"/><path class="cls-235" d="M138.49,253.8c-7.69,4.44-14.83-7.92-7.13-12.36L307.42,139.79c6.88-4,14,8.39,7.14,12.36Z"/><path class="cls-236" d="M138.43,253.69c-7.54,4.35-14.55-7.78-7-12.13L307.49,139.91c6.76-3.91,13.77,8.22,7,12.13Z"/><path class="cls-237" d="M138.36,253.57c-7.38,4.26-14.25-7.63-6.87-11.9L307.55,140c6.66-3.84,13.53,8.06,6.87,11.9Z"/><path class="cls-238" d="M138.29,253.45c-7.23,4.18-14-7.49-6.73-11.66L307.62,140.14c6.54-3.78,13.28,7.89,6.74,11.66Z"/><path class="cls-239" d="M138.23,253.34c-7.08,4.08-13.68-7.35-6.6-11.43L307.69,140.26c6.43-3.71,13,7.72,6.6,11.43Z"/><path class="cls-240" d="M138.16,253.22c-6.92,4-13.39-7.2-6.47-11.2L307.76,140.37c6.31-3.64,12.77,7.55,6.46,11.2Z"/><path class="cls-241" d="M138.09,253.1c-6.77,3.91-13.1-7-6.33-11L307.82,140.49c6.2-3.58,12.53,7.38,6.33,11Z"/><path class="cls-242" d="M138,253c-6.61,3.81-12.8-6.92-6.19-10.73L307.89,140.61c6.09-3.52,12.28,7.21,6.2,10.73Z"/><path class="cls-243" d="M138,252.87c-6.46,3.73-12.52-6.77-6.07-10.5L308,140.72c6-3.45,12,7.05,6.06,10.5Z"/><path class="cls-244" d="M137.89,252.75c-6.3,3.64-12.23-6.62-5.93-10.26L308,140.84c5.86-3.39,11.79,6.88,5.93,10.26Z"/><path class="cls-245" d="M137.82,252.64c-6.15,3.55-11.94-6.49-5.79-10L308.09,141c5.75-3.32,11.54,6.71,5.79,10Z"/><path class="cls-246" d="M137.75,252.52c-6,3.46-11.65-6.34-5.65-9.8L308.16,141.07c5.63-3.25,11.29,6.55,5.66,9.8Z"/><path class="cls-247" d="M137.69,252.4c-5.84,3.38-11.37-6.19-5.53-9.56L308.23,141.19c5.52-3.19,11,6.38,5.52,9.56Z"/><path class="cls-248" d="M137.62,252.29c-5.69,3.28-11.07-6-5.39-9.34L308.29,141.3c5.41-3.12,10.8,6.22,5.39,9.34Z"/><path class="cls-249" d="M137.55,252.17c-5.53,3.19-10.78-5.91-5.25-9.1L308.36,141.42c5.29-3.06,10.55,6,5.25,9.1Z"/><path class="cls-250" d="M137.49,252.05c-5.38,3.11-10.5-5.76-5.12-8.86L308.43,141.54c5.18-3,10.3,5.87,5.12,8.86Z"/><path class="cls-251" d="M137.42,251.94c-5.22,3-10.21-5.62-5-8.64L308.5,141.65c5.06-2.92,10.05,5.71,5,8.64Z"/><path class="cls-252" d="M137.35,251.82c-5.07,2.93-9.92-5.47-4.85-8.4L308.56,141.77c5-2.86,9.81,5.54,4.85,8.4Z"/><path class="cls-253" d="M137.28,251.7c-4.91,2.84-9.62-5.33-4.71-8.16L308.63,141.89c4.84-2.8,9.56,5.37,4.72,8.16Z"/><path class="cls-254" d="M137.22,251.59c-4.76,2.75-9.34-5.19-4.59-7.94L308.7,142c4.72-2.73,9.31,5.21,4.58,7.94Z"/><path class="cls-255" d="M137.15,251.47c-4.6,2.66-9.05-5-4.45-7.7L308.76,142.12c4.62-2.66,9.06,5,4.45,7.7Z"/><path class="cls-256" d="M137.08,251.36c-4.45,2.56-8.76-4.9-4.31-7.47L308.83,142.24c4.5-2.6,8.81,4.87,4.31,7.47Z"/><path class="cls-257" d="M137,251.24c-4.29,2.48-8.47-4.76-4.17-7.24L308.9,142.35c4.39-2.53,8.56,4.71,4.18,7.24Z"/><path class="cls-258" d="M137,251.12c-4.14,2.39-8.19-4.61-4-7L309,142.47c4.27-2.47,8.31,4.53,4,7Z"/><path class="cls-259" d="M136.88,251c-4,2.3-7.89-4.47-3.91-6.77L309,142.59c4.16-2.41,8.07,4.36,3.91,6.77Z"/><path class="cls-260" d="M136.88,251c-4,2.3-7.89-4.46-3.91-6.76L309,142.59c4.15-2.4,8,4.36,3.9,6.76Z"/><path class="cls-261" d="M136.87,251c-4,2.29-7.87-4.46-3.89-6.75L309,142.6c4.15-2.4,8,4.35,3.9,6.75Z"/><path class="cls-262" d="M136.87,251c-4,2.3-7.86-4.45-3.89-6.74L309,142.6c4.15-2.39,8,4.35,3.89,6.74Z"/><path class="cls-263" d="M136.87,251c-4,2.29-7.86-4.45-3.89-6.74L309,142.6c4.14-2.39,8,4.35,3.89,6.74Z"/><path class="cls-264" d="M136.87,251c-4,2.29-7.85-4.43-3.89-6.72L309.05,142.61c4.13-2.39,8,4.34,3.88,6.72Z"/><path class="cls-265" d="M136.86,251c-4,2.28-7.83-4.43-3.87-6.72L309.05,142.61c4.13-2.38,8,4.34,3.88,6.72Z"/><path class="cls-266" d="M136.86,251c-4,2.29-7.82-4.42-3.87-6.7L309.05,142.62c4.13-2.38,8,4.32,3.87,6.71Z"/><path class="cls-267" d="M136.86,251c-4,2.28-7.82-4.42-3.87-6.7L309.05,142.62c4.12-2.38,8,4.32,3.87,6.7Z"/><path class="cls-268" d="M136.86,251c-4,2.27-7.81-4.42-3.87-6.69L309.06,142.63c4.11-2.38,8,4.31,3.86,6.69Z"/><path class="cls-269" d="M136.85,251c-3.94,2.28-7.79-4.41-3.85-6.68L309.06,142.63c4.11-2.37,8,4.31,3.86,6.68Z"/><path class="cls-270" d="M136.85,251c-3.93,2.27-7.79-4.4-3.85-6.68L309.06,142.63c4.11-2.36,8,4.31,3.85,6.68Z"/><path class="cls-271" d="M136.85,251c-3.93,2.27-7.78-4.39-3.85-6.66L309.06,142.64c4.1-2.37,7.95,4.3,3.85,6.66Z"/><path class="cls-272" d="M136.85,251c-3.93,2.27-7.77-4.39-3.85-6.66L309.07,142.64c4.09-2.36,7.93,4.3,3.84,6.66Z"/><path class="cls-273" d="M136.84,250.94c-3.92,2.27-7.76-4.38-3.83-6.64L309.07,142.65c4.09-2.36,7.92,4.28,3.84,6.64Z"/><path class="cls-274" d="M136.84,250.94c-3.92,2.26-7.75-4.38-3.83-6.64L309.07,142.65c4.08-2.36,7.92,4.28,3.83,6.64Z"/><path class="cls-275" d="M136.84,250.94c-3.91,2.25-7.74-4.37-3.83-6.63L309.07,142.66c4.08-2.36,7.91,4.27,3.83,6.63Z"/><path class="cls-276" d="M136.84,250.93c-3.91,2.26-7.73-4.36-3.83-6.62L309.08,142.66c4.07-2.35,7.89,4.27,3.82,6.62Z"/><path class="cls-277" d="M136.83,250.93c-3.9,2.25-7.72-4.36-3.81-6.61L309.08,142.67c4.07-2.35,7.88,4.26,3.82,6.61Z"/><path class="cls-278" d="M136.83,250.92c-3.9,2.25-7.71-4.35-3.81-6.6L309.08,142.67c4.06-2.35,7.88,4.26,3.81,6.6Z"/><path class="cls-279" d="M136.83,250.92c-3.9,2.25-7.7-4.35-3.81-6.6L309.08,142.67c4.06-2.34,7.87,4.26,3.81,6.6Z"/><path class="cls-280" d="M136.83,250.91c-3.89,2.25-7.7-4.34-3.81-6.58L309.09,142.68c4.05-2.34,7.85,4.24,3.8,6.58Z"/><path class="cls-281" d="M136.82,250.91c-3.88,2.24-7.68-4.33-3.79-6.58L309.09,142.68c4.05-2.33,7.84,4.24,3.8,6.58Z"/><path class="cls-282" d="M136.82,250.91c-3.88,2.24-7.67-4.33-3.79-6.57L309.09,142.69c4-2.34,7.84,4.23,3.79,6.57Z"/><path class="cls-283" d="M136.82,250.9c-3.88,2.24-7.66-4.32-3.79-6.56L309.09,142.69c4-2.33,7.83,4.23,3.79,6.56Z"/><path class="cls-284" d="M136.82,250.9c-3.88,2.23-7.66-4.32-3.79-6.55L309.1,142.7c4-2.33,7.81,4.22,3.78,6.55Z"/><path class="cls-285" d="M136.81,250.89c-3.86,2.23-7.64-4.31-3.77-6.54L309.1,142.7c4-2.32,7.8,4.22,3.78,6.54Z"/><path class="cls-286" d="M136.81,250.89c-3.86,2.23-7.63-4.31-3.77-6.54L309.1,142.7c4-2.32,7.79,4.22,3.77,6.54Z"/><path class="cls-287" d="M136.81,250.88c-3.86,2.23-7.63-4.29-3.77-6.52L309.1,142.71c4-2.32,7.79,4.21,3.77,6.52Z"/><path class="cls-288" d="M136.81,250.88c-3.86,2.22-7.62-4.29-3.77-6.52L309.11,142.71c4-2.31,7.77,4.2,3.76,6.52Z"/><path class="cls-289" d="M136.8,250.87c-3.85,2.23-7.6-4.28-3.75-6.5L309.11,142.72c4-2.31,7.76,4.19,3.76,6.5Z"/><path class="cls-290" d="M136.8,250.87c-3.84,2.22-7.6-4.28-3.75-6.5L309.11,142.72c4-2.31,7.75,4.19,3.75,6.5Z"/><path class="cls-291" d="M136.8,250.87c-3.84,2.21-7.59-4.28-3.75-6.49L309.11,142.73c4-2.31,7.75,4.18,3.75,6.49Z"/><path class="cls-292" d="M136.8,250.86c-3.84,2.22-7.58-4.26-3.75-6.48L309.12,142.73c4-2.3,7.73,4.18,3.74,6.48Z"/><path class="cls-293" d="M136.79,250.86c-3.83,2.21-7.56-4.26-3.73-6.48L309.12,142.74c4-2.31,7.72,4.17,3.74,6.47Z"/><path class="cls-294" d="M136.79,250.85c-3.83,2.21-7.56-4.25-3.73-6.46L309.12,142.74c4-2.3,7.71,4.17,3.73,6.46Z"/><path class="cls-295" d="M136.79,250.85c-3.82,2.2-7.55-4.25-3.73-6.46L309.12,142.74c4-2.29,7.71,4.16,3.73,6.46Z"/><path class="cls-296" d="M136.79,250.84c-3.82,2.21-7.54-4.24-3.73-6.44L309.13,142.75c4-2.29,7.69,4.15,3.72,6.44Z"/><path class="cls-297" d="M136.78,250.84c-3.81,2.2-7.53-4.24-3.71-6.44L309.13,142.75c4-2.29,7.68,4.15,3.72,6.44Z"/><path class="cls-298" d="M136.78,250.84c-3.81,2.19-7.52-4.23-3.71-6.43L309.13,142.76c4-2.29,7.67,4.14,3.71,6.43Z"/><path class="cls-299" d="M136.78,250.83c-3.81,2.2-7.51-4.22-3.71-6.42L309.13,142.76c4-2.28,7.66,4.14,3.71,6.42Z"/><path class="cls-300" d="M136.78,250.83c-3.8,2.19-7.5-4.22-3.71-6.41L309.14,142.77c3.95-2.28,7.65,4.13,3.7,6.41Z"/><path class="cls-301" d="M136.77,250.82c-3.79,2.19-7.49-4.21-3.69-6.4L309.14,142.77c3.94-2.28,7.64,4.13,3.7,6.4Z"/><path class="cls-302" d="M136.77,250.82c-3.79,2.19-7.48-4.21-3.69-6.4L309.14,142.77c3.94-2.27,7.63,4.12,3.69,6.4Z"/><path class="cls-303" d="M136.77,250.81c-3.79,2.19-7.47-4.2-3.69-6.38L309.14,142.78c3.94-2.27,7.62,4.11,3.69,6.38Z"/><path class="cls-304" d="M136.77,250.81c-3.79,2.18-7.47-4.19-3.69-6.38L309.15,142.78c3.93-2.26,7.61,4.11,3.68,6.38Z"/><path class="cls-305" d="M136.76,250.8c-3.77,2.19-7.45-4.18-3.67-6.36L309.15,142.79c3.92-2.27,7.6,4.1,3.68,6.36Z"/><path class="cls-306" d="M136.76,250.8c-3.77,2.18-7.44-4.18-3.67-6.36L309.15,142.79c3.92-2.26,7.59,4.1,3.67,6.36Z"/><path class="cls-307" d="M136.76,250.8c-3.77,2.17-7.44-4.18-3.67-6.35L309.15,142.8c3.92-2.26,7.58,4.09,3.67,6.35Z"/><path class="cls-308" d="M136.76,250.79c-3.77,2.17-7.43-4.17-3.67-6.34L309.16,142.8c3.9-2.25,7.57,4.09,3.66,6.34Z"/><path class="cls-309" d="M136.75,250.79c-3.76,2.17-7.41-4.17-3.65-6.34L309.16,142.81c3.9-2.26,7.56,4.07,3.66,6.33Z"/><path class="cls-310" d="M136.75,250.78c-3.75,2.17-7.4-4.15-3.65-6.32L309.16,142.81c3.9-2.25,7.55,4.07,3.65,6.32Z"/><path class="cls-311" d="M136.75,250.78c-3.75,2.16-7.4-4.15-3.65-6.32L309.17,142.81c3.89-2.24,7.53,4.07,3.64,6.32Z"/><path class="cls-312" d="M136.75,250.77c-3.75,2.17-7.39-4.14-3.64-6.3L309.17,142.82c3.88-2.25,7.52,4.06,3.64,6.3Z"/><path class="cls-313" d="M136.74,250.77c-3.74,2.16-7.37-4.14-3.63-6.3L309.17,142.82c3.88-2.24,7.52,4.06,3.64,6.3Z"/><path class="cls-314" d="M136.74,250.77c-3.74,2.15-7.37-4.14-3.63-6.29L309.17,142.83c3.88-2.24,7.51,4,3.63,6.29Z"/><path class="cls-315" d="M136.74,250.76c-3.73,2.16-7.36-4.12-3.63-6.28L309.18,142.83c3.87-2.23,7.49,4,3.62,6.28Z"/><path class="cls-316" d="M136.74,250.76c-3.73,2.15-7.35-4.12-3.62-6.27L309.18,142.84c3.86-2.24,7.48,4,3.62,6.27Z"/><path class="cls-317" d="M136.73,250.75c-3.72,2.15-7.33-4.11-3.61-6.26L309.18,142.84c3.86-2.23,7.48,4,3.62,6.26Z"/><path class="cls-318" d="M136.73,250.75c-3.72,2.14-7.33-4.11-3.61-6.26L309.18,142.84c3.86-2.22,7.47,4,3.61,6.26Z"/><path class="cls-319" d="M136.73,250.74c-3.71,2.15-7.32-4.1-3.61-6.24L309.19,142.85c3.85-2.22,7.45,4,3.6,6.24Z"/><path class="cls-320" d="M136.73,250.74c-3.71,2.14-7.31-4.1-3.6-6.24L309.19,142.85c3.84-2.22,7.44,4,3.6,6.24Z"/><path class="cls-321" d="M136.72,250.73c-3.7,2.14-7.3-4.08-3.59-6.22L309.19,142.86c3.84-2.22,7.44,4,3.6,6.22Z"/><path class="cls-322" d="M136.72,250.73c-3.7,2.14-7.29-4.08-3.59-6.22L309.19,142.86c3.84-2.21,7.43,4,3.59,6.22Z"/><path class="cls-323" d="M136.72,250.73c-3.7,2.13-7.28-4.08-3.59-6.21L309.2,142.87c3.82-2.21,7.41,4,3.58,6.21Z"/><path class="cls-324" d="M136.72,250.72c-3.69,2.13-7.28-4.07-3.58-6.2L309.2,142.87c3.82-2.21,7.4,4,3.58,6.2Z"/><path class="cls-325" d="M136.71,250.72c-3.68,2.13-7.26-4.07-3.57-6.2L309.2,142.87c3.82-2.2,7.39,4,3.58,6.2Z"/><path class="cls-326" d="M136.71,250.71c-3.68,2.13-7.25-4.06-3.57-6.18L309.2,142.88c3.82-2.2,7.39,4,3.57,6.18Z"/><path class="cls-327" d="M136.71,250.71c-3.68,2.12-7.24-4.05-3.57-6.18L309.21,142.88c3.8-2.2,7.37,4,3.56,6.18Z"/><path class="cls-328" d="M136.71,250.7c-3.68,2.12-7.24-4-3.56-6.16L309.21,142.89c3.8-2.2,7.36,4,3.56,6.16Z"/><path class="cls-329" d="M136.7,250.7c-3.66,2.12-7.22-4-3.55-6.16L309.21,142.89c3.8-2.19,7.35,4,3.56,6.16Z"/><path class="cls-330" d="M136.7,250.7c-3.66,2.11-7.21-4-3.55-6.15L309.21,142.9c3.8-2.19,7.35,4,3.55,6.15Z"/><path class="cls-331" d="M136.7,250.69c-3.66,2.11-7.21-4-3.55-6.14L309.22,142.9c3.78-2.19,7.33,3.95,3.54,6.14Z"/><path class="cls-332" d="M136.7,250.69c-3.66,2.11-7.2-4-3.54-6.13L309.22,142.91c3.78-2.19,7.32,3.94,3.54,6.13Z"/><path class="cls-333" d="M136.69,250.68c-3.65,2.11-7.18-4-3.53-6.12L309.22,142.91c3.78-2.18,7.31,3.94,3.54,6.12Z"/><path class="cls-334" d="M136.69,250.68c-3.64,2.1-7.17-4-3.53-6.12L309.22,142.91c3.78-2.17,7.31,3.94,3.53,6.12Z"/><path class="cls-335" d="M136.69,250.67c-3.64,2.11-7.17-4-3.53-6.1L309.23,142.92c3.76-2.18,7.29,3.93,3.52,6.1Z"/><path class="cls-336" d="M136.69,250.67c-3.64,2.1-7.16-4-3.52-6.1L309.23,142.92c3.76-2.17,7.28,3.93,3.52,6.1Z"/><path class="cls-337" d="M136.68,250.66c-3.63,2.1-7.14-4-3.51-6.08L309.23,142.93c3.76-2.17,7.27,3.92,3.52,6.08Z"/><path class="cls-338" d="M136.68,250.66c-3.63,2.09-7.14-4-3.51-6.08L309.23,142.93c3.75-2.16,7.26,3.91,3.51,6.08Z"/><path class="cls-339" d="M136.68,250.66c-3.62,2.09-7.13-4-3.51-6.07L309.24,142.94c3.74-2.17,7.25,3.9,3.5,6.07Z"/><path class="cls-340" d="M136.68,250.65c-3.62,2.09-7.12-4-3.5-6.06L309.24,142.94c3.74-2.16,7.24,3.9,3.5,6.06Z"/><path class="cls-341" d="M136.67,250.65c-3.61,2.08-7.11-4-3.49-6.06L309.24,142.94c3.74-2.15,7.23,3.9,3.5,6.06Z"/><path class="cls-342" d="M136.67,250.64c-3.61,2.09-7.1-4-3.49-6L309.24,143c3.73-2.15,7.22,3.89,3.49,6Z"/><path class="cls-343" d="M136.67,250.64c-3.61,2.08-7.09-4-3.49-6L309.25,143c3.72-2.15,7.21,3.89,3.48,6Z"/><path class="cls-344" d="M136.67,250.63c-3.6,2.08-7.08-3.94-3.48-6L309.25,143c3.72-2.15,7.2,3.88,3.48,6Z"/><path class="cls-345" d="M136.66,250.63c-3.59,2.08-7.07-3.94-3.47-6L309.25,143c3.72-2.14,7.19,3.87,3.48,6Z"/><path class="cls-346" d="M136.66,250.63c-3.59,2.07-7.06-3.94-3.47-6L309.25,143c3.71-2.15,7.18,3.86,3.47,6Z"/><path class="cls-347" d="M136.66,250.62c-3.59,2.07-7-3.93-3.47-6L309.26,143c3.7-2.14,7.17,3.86,3.46,6Z"/><path class="cls-348" d="M136.66,250.62c-3.59,2.06-7-3.93-3.46-6L309.26,143c3.7-2.14,7.16,3.85,3.46,6Z"/><path class="cls-349" d="M136.65,250.61c-3.57,2.07-7-3.92-3.45-6L309.26,143c3.7-2.13,7.15,3.85,3.46,6Z"/><path class="cls-350" d="M136.65,250.61c-3.57,2.06-7-3.91-3.45-6L309.26,143c3.69-2.13,7.14,3.85,3.45,6Z"/><path class="cls-351" d="M136.65,250.6c-3.57,2.06-7-3.9-3.45-6L309.27,143c3.68-2.13,7.12,3.84,3.44,6Z"/><path class="cls-352" d="M136.64,250.6c-3.56,2.06-7-3.9-3.43-6L309.27,143c3.68-2.12,7.12,3.84,3.44,6Z"/><path class="cls-353" d="M136.64,250.59c-3.56,2.06-7-3.89-3.43-5.94L309.27,143c3.68-2.12,7.11,3.82,3.43,5.95Z"/><path class="cls-354" d="M136.64,250.59c-3.55,2-7-3.89-3.43-5.94L309.27,143c3.67-2.12,7.1,3.82,3.43,5.94Z"/><path class="cls-355" d="M136.64,250.59c-3.55,2-7-3.88-3.43-5.93L309.28,143c3.66-2.12,7.08,3.81,3.42,5.93Z"/><path class="cls-356" d="M136.63,250.58c-3.54,2-7-3.87-3.41-5.92L309.28,143c3.66-2.11,7.08,3.81,3.42,5.92Z"/><path class="cls-357" d="M136.63,250.58c-3.54,2-6.95-3.87-3.41-5.92L309.28,143c3.65-2.1,7.07,3.81,3.41,5.92Z"/><path class="cls-358" d="M136.63,250.57c-3.54,2-6.95-3.86-3.41-5.9L309.28,143c3.65-2.11,7.06,3.8,3.41,5.9Z"/><path class="cls-359" d="M136.63,250.57c-3.53,2-6.94-3.86-3.41-5.9L309.29,143c3.64-2.1,7,3.8,3.4,5.9Z"/><path class="cls-360" d="M136.62,250.56c-3.52,2-6.92-3.85-3.39-5.88L309.29,143c3.64-2.1,7,3.78,3.4,5.88Z"/><path class="cls-361" d="M136.62,250.56c-3.52,2-6.91-3.84-3.39-5.88L309.29,143c3.63-2.09,7,3.78,3.39,5.88Z"/><path class="cls-362" d="M136.62,250.56c-3.52,2-6.91-3.84-3.39-5.87L309.29,143c3.63-2.1,7,3.77,3.39,5.87Z"/><path class="cls-363" d="M136.62,250.55c-3.52,2-6.9-3.83-3.39-5.86L309.3,143c3.62-2.09,7,3.77,3.38,5.86Z"/><path class="cls-364" d="M136.61,250.55c-3.5,2-6.88-3.83-3.37-5.85L309.3,143.05c3.62-2.09,7,3.76,3.38,5.85Z"/><path class="cls-365" d="M136.61,250.54c-3.5,2-6.88-3.82-3.37-5.84L309.3,143.05c3.61-2.09,7,3.76,3.37,5.84Z"/><path class="cls-366" d="M136.61,250.54c-3.5,2-6.87-3.82-3.37-5.84L309.3,143.05c3.61-2.08,7,3.76,3.37,5.84Z"/><path class="cls-367" d="M136.61,250.53c-3.5,2-6.86-3.8-3.37-5.82L309.31,143.06c3.6-2.08,7,3.74,3.36,5.82Z"/><path class="cls-368" d="M136.6,250.53c-3.49,2-6.84-3.8-3.35-5.82L309.31,143.06c3.6-2.07,6.95,3.74,3.36,5.82Z"/><path class="cls-369" d="M136.6,250.52c-3.48,2-6.84-3.79-3.35-5.8L309.31,143.07c3.59-2.08,6.95,3.73,3.35,5.81Z"/><path class="cls-370" d="M136.6,250.52c-3.48,2-6.83-3.79-3.35-5.8L309.31,143.07c3.59-2.07,6.94,3.73,3.35,5.8Z"/><path class="cls-371" d="M136.6,250.52c-3.48,2-6.82-3.79-3.35-5.79L309.32,143.08c3.58-2.07,6.92,3.72,3.34,5.79Z"/><path class="cls-372" d="M136.59,250.51c-3.47,2-6.81-3.77-3.33-5.78L309.32,143.08c3.57-2.06,6.91,3.72,3.34,5.78Z"/><path class="cls-373" d="M136.59,250.51c-3.47,2-6.8-3.77-3.33-5.78L309.32,143.08c3.57-2.06,6.9,3.72,3.33,5.78Z"/><path class="cls-374" d="M136.59,250.5c-3.46,2-6.79-3.76-3.33-5.76L309.32,143.09c3.57-2.06,6.9,3.7,3.33,5.76Z"/><path class="cls-375" d="M136.59,250.5c-3.46,2-6.79-3.76-3.33-5.76L309.33,143.09c3.56-2.05,6.88,3.7,3.32,5.76Z"/><path class="cls-376" d="M136.58,250.49c-3.45,2-6.77-3.75-3.31-5.74L309.33,143.1c3.55-2,6.87,3.69,3.32,5.74Z"/><path class="cls-377" d="M136.58,250.49c-3.45,2-6.76-3.75-3.31-5.74L309.33,143.1c3.55-2,6.86,3.69,3.31,5.74Z"/><path class="cls-378" d="M136.58,250.49c-3.45,2-6.75-3.74-3.31-5.73L309.33,143.11c3.55-2.05,6.86,3.68,3.31,5.73Z"/><path class="cls-379" d="M136.58,250.48c-3.44,2-6.75-3.73-3.31-5.72L309.34,143.11c3.54-2,6.84,3.68,3.3,5.72Z"/><path class="cls-380" d="M136.57,250.48c-3.43,2-6.73-3.73-3.29-5.71L309.34,143.12c3.53-2.05,6.83,3.67,3.3,5.71Z"/><path class="cls-381" d="M136.57,250.47c-3.43,2-6.72-3.72-3.29-5.7L309.34,143.12c3.53-2,6.82,3.67,3.29,5.7Z"/><path class="cls-382" d="M136.57,250.47c-3.43,2-6.72-3.72-3.29-5.7L309.34,143.12c3.53-2,6.82,3.66,3.29,5.7Z"/><path class="cls-383" d="M136.57,250.46c-3.43,2-6.71-3.71-3.29-5.68L309.35,143.13c3.52-2,6.8,3.65,3.28,5.68Z"/><path class="cls-384" d="M136.56,250.46c-3.41,2-6.69-3.7-3.27-5.68L309.35,143.13c3.51-2,6.79,3.65,3.28,5.68Z"/><path class="cls-385" d="M136.56,250.46c-3.41,2-6.68-3.7-3.27-5.67L309.35,143.14c3.51-2,6.78,3.64,3.27,5.67Z"/><path class="cls-386" d="M136.56,250.45c-3.41,2-6.68-3.69-3.27-5.66L309.35,143.14c3.51-2,6.77,3.64,3.27,5.66Z"/><path class="cls-387" d="M136.56,250.45c-3.41,2-6.67-3.69-3.27-5.65L309.36,143.15c3.49-2,6.76,3.63,3.26,5.65Z"/><path class="cls-388" d="M136.55,250.44c-3.4,2-6.65-3.68-3.25-5.64L309.36,143.15c3.49-2,6.75,3.63,3.26,5.64Z"/><path class="cls-389" d="M136.55,250.44c-3.39,2-6.65-3.67-3.25-5.64L309.36,143.15c3.49-2,6.74,3.62,3.25,5.64Z"/><path class="cls-390" d="M136.55,250.43c-3.39,2-6.64-3.66-3.25-5.62L309.36,143.16c3.49-2,6.73,3.61,3.25,5.62Z"/><path class="cls-391" d="M136.55,250.43c-3.39,1.95-6.63-3.66-3.25-5.62L309.37,143.16c3.47-2,6.72,3.61,3.24,5.62Z"/><path class="cls-392" d="M136.54,250.42c-3.38,2-6.62-3.65-3.23-5.6L309.37,143.17c3.47-2,6.71,3.6,3.24,5.6Z"/><path class="cls-393" d="M136.54,250.42c-3.38,2-6.61-3.65-3.23-5.6L309.37,143.17c3.47-2,6.7,3.6,3.23,5.6Z"/><path class="cls-394" d="M136.54,250.42c-3.37,1.94-6.6-3.65-3.23-5.59L309.37,143.18c3.47-2,6.69,3.59,3.23,5.59Z"/><path class="cls-395" d="M136.54,250.41c-3.37,2-6.59-3.63-3.23-5.58L309.38,143.18c3.45-2,6.68,3.59,3.22,5.58Z"/><path class="cls-396" d="M136.53,250.41c-3.36,1.94-6.58-3.63-3.21-5.58L309.38,143.19c3.45-2,6.67,3.57,3.22,5.57Z"/><path class="cls-397" d="M136.53,250.4c-3.36,1.94-6.57-3.62-3.21-5.56L309.38,143.19c3.45-2,6.66,3.57,3.21,5.56Z"/><path class="cls-398" d="M136.53,250.4c-3.36,1.94-6.56-3.62-3.21-5.56L309.38,143.19c3.45-2,6.65,3.57,3.21,5.56Z"/><path class="cls-399" d="M136.53,250.39c-3.35,1.94-6.56-3.61-3.21-5.54L309.39,143.2c3.43-2,6.63,3.56,3.2,5.54Z"/><path class="cls-400" d="M136.52,250.39c-3.34,1.93-6.54-3.61-3.19-5.54L309.39,143.2c3.43-2,6.63,3.56,3.2,5.54Z"/><path class="cls-401" d="M136.52,250.39c-3.34,1.92-6.53-3.6-3.19-5.53L309.39,143.21c3.43-2,6.62,3.55,3.19,5.53Z"/><path class="cls-402" d="M136.52,250.38c-3.34,1.93-6.52-3.59-3.19-5.52L309.39,143.21c3.43-2,6.61,3.55,3.19,5.52Z"/><path class="cls-403" d="M136.52,250.38c-3.34,1.92-6.52-3.59-3.19-5.51L309.4,143.22c3.41-2,6.59,3.53,3.18,5.51Z"/><path class="cls-404" d="M136.51,250.37c-3.32,1.92-6.5-3.58-3.17-5.5L309.4,143.22c3.41-2,6.59,3.53,3.18,5.5Z"/><path class="cls-405" d="M136.51,250.37c-3.32,1.92-6.49-3.58-3.17-5.5L309.4,143.22c3.41-2,6.58,3.53,3.17,5.5Z"/><path class="cls-406" d="M136.51,250.36c-3.32,1.92-6.49-3.57-3.17-5.48L309.4,143.23c3.4-2,6.57,3.52,3.17,5.48Z"/><path class="cls-407" d="M136.51,250.36c-3.32,1.91-6.48-3.56-3.17-5.48L309.41,143.23c3.39-2,6.55,3.52,3.16,5.48Z"/><path class="cls-408" d="M136.5,250.35c-3.31,1.92-6.46-3.55-3.15-5.46L309.41,143.24c3.39-2,6.55,3.51,3.16,5.46Z"/><path class="cls-409" d="M136.5,250.35c-3.3,1.91-6.46-3.55-3.15-5.46L309.41,143.24c3.39-2,6.54,3.51,3.15,5.46Z"/><path class="cls-410" d="M136.5,250.35c-3.3,1.9-6.45-3.55-3.15-5.45L309.41,143.25c3.38-1.95,6.53,3.5,3.15,5.45Z"/><path class="cls-411" d="M136.5,250.34c-3.3,1.9-6.44-3.54-3.15-5.44L309.42,143.25c3.37-1.95,6.51,3.49,3.14,5.44Z"/><path class="cls-412" d="M136.49,250.34c-3.29,1.9-6.42-3.53-3.13-5.44L309.42,143.26c3.37-1.95,6.5,3.48,3.14,5.43Z"/><path class="cls-413" d="M136.49,250.33c-3.29,1.9-6.42-3.52-3.13-5.42L309.42,143.26c3.37-1.94,6.5,3.48,3.13,5.42Z"/><path class="cls-414" d="M136.49,250.33c-3.28,1.89-6.41-3.52-3.13-5.42L309.42,143.26c3.36-1.94,6.49,3.48,3.13,5.42Z"/><path class="cls-415" d="M136.49,250.32c-3.28,1.9-6.4-3.51-3.13-5.4L309.43,143.27c3.35-1.94,6.47,3.47,3.12,5.4Z"/><path class="cls-416" d="M136.48,250.32c-3.27,1.89-6.39-3.51-3.11-5.4L309.43,143.27c3.35-1.93,6.46,3.47,3.12,5.4Z"/><path class="cls-417" d="M136.48,250.32c-3.27,1.88-6.38-3.51-3.11-5.39L309.43,143.28c3.35-1.93,6.46,3.46,3.11,5.39Z"/><path class="cls-418" d="M136.48,250.31c-3.27,1.89-6.37-3.49-3.11-5.38L309.43,143.28c3.34-1.93,6.45,3.45,3.11,5.38Z"/><path class="cls-419" d="M136.48,250.31c-3.26,1.88-6.36-3.49-3.11-5.37L309.44,143.29c3.33-1.93,6.43,3.44,3.1,5.37Z"/><path class="cls-420" d="M136.47,250.3c-3.25,1.88-6.35-3.48-3.09-5.36L309.44,143.29c3.33-1.92,6.42,3.44,3.1,5.36Z"/><path class="cls-421" d="M136.47,250.3c-3.25,1.87-6.34-3.48-3.09-5.36L309.44,143.29c3.32-1.91,6.42,3.44,3.09,5.36Z"/><path class="cls-422" d="M136.47,250.29c-3.25,1.88-6.33-3.47-3.09-5.34L309.45,143.3c3.31-1.92,6.4,3.43,3.08,5.34Z"/><path class="cls-423" d="M136.47,250.29c-3.25,1.87-6.33-3.47-3.08-5.34L309.45,143.3c3.31-1.91,6.39,3.43,3.08,5.34Z"/><path class="cls-424" d="M136.46,250.28c-3.23,1.87-6.31-3.45-3.07-5.32L309.45,143.31c3.31-1.91,6.38,3.42,3.08,5.32Z"/><path class="cls-425" d="M136.46,250.28c-3.23,1.87-6.3-3.45-3.07-5.32L309.45,143.31c3.3-1.9,6.37,3.41,3.07,5.32Z"/><path class="cls-426" d="M136.46,250.28c-3.23,1.86-6.3-3.45-3.07-5.31L309.46,143.32c3.29-1.91,6.36,3.4,3.06,5.31Z"/><path class="cls-427" d="M136.46,250.27c-3.23,1.86-6.29-3.44-3.06-5.3L309.46,143.32c3.29-1.9,6.35,3.4,3.06,5.3Z"/><path class="cls-428" d="M136.45,250.27c-3.22,1.86-6.27-3.44-3-5.3L309.46,143.33c3.29-1.9,6.34,3.39,3.06,5.29Z"/><path class="cls-429" d="M136.45,250.26c-3.21,1.86-6.26-3.42-3-5.28L309.46,143.33c3.28-1.89,6.33,3.39,3.05,5.28Z"/><path class="cls-430" d="M136.45,250.26c-3.21,1.85-6.26-3.42-3-5.28L309.47,143.33c3.27-1.89,6.32,3.39,3,5.28Z"/><path class="cls-431" d="M136.45,250.25c-3.21,1.85-6.25-3.41-3-5.26L309.47,143.34c3.27-1.89,6.31,3.38,3,5.26Z"/><path class="cls-432" d="M136.44,250.25c-3.2,1.85-6.23-3.41-3-5.26L309.47,143.34c3.27-1.88,6.3,3.37,3,5.26Z"/><path class="cls-433" d="M136.44,250.25c-3.2,1.84-6.23-3.41-3-5.25L309.47,143.35c3.26-1.89,6.29,3.36,3,5.25Z"/><path class="cls-434" d="M136.44,250.24c-3.19,1.84-6.22-3.4-3-5.24L309.48,143.35c3.25-1.88,6.28,3.36,3,5.24Z"/><path class="cls-435" d="M136.44,250.24c-3.19,1.84-6.21-3.39-3-5.23L309.48,143.36c3.25-1.88,6.27,3.35,3,5.23Z"/><path class="cls-436" d="M136.43,250.23c-3.18,1.84-6.19-3.38-3-5.22L309.48,143.36c3.24-1.87,6.26,3.35,3,5.22Z"/><path class="cls-437" d="M136.43,250.23c-3.18,1.83-6.19-3.38-3-5.22L309.48,143.36c3.24-1.87,6.25,3.35,3,5.22Z"/><path class="cls-438" d="M136.43,250.22c-3.18,1.84-6.18-3.37-3-5.2L309.49,143.37c3.23-1.87,6.23,3.34,3,5.2Z"/><path class="cls-439" d="M136.43,250.22c-3.17,1.83-6.17-3.37-3-5.2L309.49,143.37c3.23-1.86,6.23,3.34,3,5.2Z"/><path class="cls-440" d="M136.42,250.21c-3.16,1.83-6.16-3.36-3-5.18L309.49,143.38c3.22-1.86,6.22,3.32,3,5.19Z"/><path class="cls-441" d="M136.42,250.21c-3.16,1.83-6.15-3.35-3-5.18L309.49,143.38c3.22-1.86,6.21,3.32,3,5.18Z"/><path class="cls-442" d="M136.42,250.21c-3.16,1.82-6.14-3.35-3-5.17L309.5,143.39c3.21-1.86,6.19,3.31,3,5.17Z"/><path class="cls-443" d="M136.42,250.2c-3.16,1.82-6.14-3.34-3-5.16L309.5,143.39c3.21-1.85,6.19,3.31,3,5.16Z"/><path class="cls-444" d="M136.41,250.2c-3.14,1.81-6.12-3.34-3-5.16L309.5,143.39c3.2-1.84,6.18,3.31,3,5.16Z"/><path class="cls-445" d="M136.41,250.19c-3.14,1.82-6.11-3.33-3-5.14L309.5,143.4c3.2-1.85,6.17,3.3,3,5.14Z"/><path class="cls-446" d="M136.41,250.19c-3.14,1.81-6.1-3.33-3-5.14L309.51,143.4c3.19-1.84,6.15,3.3,3,5.14Z"/><path class="cls-447" d="M136.41,250.18c-3.14,1.81-6.1-3.31-3-5.12L309.51,143.41c3.19-1.84,6.15,3.28,3,5.12Z"/><path class="cls-448" d="M136.4,250.18c-3.13,1.81-6.08-3.31-3-5.12L309.51,143.41c3.18-1.83,6.14,3.28,3,5.12Z"/><path class="cls-449" d="M136.4,250.18c-3.12,1.8-6.07-3.31-3-5.11L309.51,143.42c3.18-1.84,6.13,3.27,2.95,5.11Z"/><path class="cls-450" d="M136.4,250.17c-3.12,1.8-6.07-3.3-3-5.1L309.52,143.42c3.17-1.83,6.11,3.27,2.94,5.1Z"/><path class="cls-451" d="M136.4,250.17c-3.12,1.8-6.06-3.3-2.94-5.09L309.52,143.43c3.17-1.83,6.1,3.26,2.94,5.09Z"/><path class="cls-452" d="M136.39,250.16c-3.11,1.8-6-3.28-2.93-5.08L309.52,143.43c3.16-1.83,6.1,3.26,2.94,5.08Z"/><path class="cls-453" d="M136.39,250.16c-3.11,1.79-6-3.28-2.93-5.08L309.52,143.43c3.16-1.82,6.09,3.26,2.93,5.08Z"/><path class="cls-454" d="M136.39,250.15c-3.1,1.79-6-3.27-2.93-5.06L309.53,143.44c3.15-1.82,6.07,3.24,2.92,5.06Z"/><path class="cls-455" d="M136.39,250.15c-3.1,1.79-6-3.27-2.92-5.06L309.53,143.44c3.14-1.81,6.06,3.24,2.92,5.06Z"/><path class="cls-456" d="M136.38,250.14c-3.09,1.79-6-3.26-2.91-5L309.53,143.45c3.14-1.82,6.06,3.23,2.92,5.05Z"/><path class="cls-457" d="M136.38,250.14c-3.09,1.78-6-3.26-2.91-5L309.53,143.45c3.14-1.81,6.05,3.23,2.91,5Z"/><path class="cls-458" d="M136.38,250.14c-3.09,1.78-6-3.25-2.91-5L309.54,143.46c3.13-1.81,6,3.22,2.9,5Z"/><path class="cls-459" d="M136.38,250.13c-3.08,1.78-6-3.24-2.9-5L309.54,143.46c3.12-1.8,6,3.22,2.9,5Z"/><path class="cls-460" d="M136.37,250.13c-3.07,1.77-6-3.24-2.89-5L309.54,143.46c3.12-1.8,6,3.22,2.9,5Z"/><path class="cls-461" d="M136.37,250.12c-3.07,1.78-6-3.23-2.89-5L309.54,143.47c3.12-1.8,6,3.2,2.89,5Z"/><path class="cls-462" d="M136.37,250.12c-3.07,1.77-6-3.23-2.89-5L309.55,143.47c3.11-1.79,6,3.2,2.88,5Z"/><path class="cls-463" d="M136.37,250.11c-3.07,1.77-5.94-3.22-2.88-5L309.55,143.48c3.1-1.79,6,3.19,2.88,5Z"/><path class="cls-464" d="M136.36,250.11c-3.05,1.76-5.93-3.21-2.87-5L309.55,143.48c3.1-1.79,6,3.19,2.87,5Z"/><path class="cls-465" d="M136.36,250.11c-3.05,1.76-5.92-3.21-2.87-5L309.55,143.49c3.1-1.79,6,3.18,2.87,5Z"/><path class="cls-466" d="M136.36,250.1c-3.05,1.76-5.91-3.2-2.87-5L309.56,143.49c3.09-1.78,5.95,3.18,2.86,5Z"/><path class="cls-467" d="M136.35,250.1c-3,1.75-5.9-3.2-2.85-4.95L309.56,143.5c3.08-1.79,5.94,3.17,2.86,4.95Z"/><path class="cls-468" d="M136.35,250.09c-3,1.76-5.89-3.19-2.85-4.94L309.56,143.5c3.08-1.78,5.93,3.17,2.85,4.94Z"/><path class="cls-469" d="M136.35,250.09c-3,1.75-5.88-3.18-2.85-4.94L309.56,143.5c3.08-1.77,5.93,3.16,2.85,4.94Z"/><path class="cls-470" d="M136.35,250.08c-3,1.75-5.87-3.17-2.85-4.92L309.57,143.51c3.06-1.77,5.91,3.15,2.84,4.92Z"/><path class="cls-471" d="M136.34,250.08c-3,1.75-5.86-3.17-2.83-4.92L309.57,143.51c3.06-1.77,5.9,3.15,2.84,4.92Z"/><path class="cls-472" d="M136.34,250.08c-3,1.74-5.85-3.17-2.83-4.91L309.57,143.52c3.06-1.77,5.89,3.14,2.83,4.91Z"/><path class="cls-473" d="M136.34,250.07c-3,1.74-5.84-3.16-2.83-4.9L309.57,143.52c3.06-1.76,5.89,3.14,2.83,4.9Z"/><path class="cls-474" d="M136.34,250.07c-3,1.73-5.84-3.16-2.83-4.89L309.58,143.53c3-1.76,5.87,3.13,2.82,4.89Z"/><path class="cls-475" d="M136.33,250.06c-3,1.74-5.82-3.14-2.81-4.88L309.58,143.53c3-1.76,5.86,3.13,2.82,4.88Z"/><path class="cls-476" d="M136.33,250.06c-3,1.73-5.81-3.14-2.81-4.88L309.58,143.53c3-1.75,5.85,3.12,2.81,4.88Z"/><path class="cls-477" d="M136.33,250.05c-3,1.73-5.81-3.13-2.81-4.86L309.58,143.54c3-1.75,5.84,3.11,2.81,4.86Z"/><path class="cls-478" d="M136.33,250.05c-3,1.73-5.8-3.13-2.81-4.86L309.59,143.54c3-1.74,5.83,3.11,2.8,4.86Z"/><path class="cls-479" d="M136.32,250c-3,1.73-5.78-3.12-2.79-4.84L309.59,143.55c3-1.75,5.82,3.1,2.8,4.84Z"/><path class="cls-480" d="M136.32,250c-3,1.72-5.77-3.12-2.79-4.84L309.59,143.55c3-1.74,5.81,3.1,2.79,4.84Z"/><path class="cls-481" d="M136.32,250c-3,1.72-5.77-3.11-2.79-4.83L309.59,143.56c3-1.74,5.8,3.09,2.79,4.83Z"/><path class="cls-482" d="M136.32,250c-3,1.72-5.76-3.1-2.79-4.82L309.6,143.56c3-1.73,5.79,3.09,2.78,4.82Z"/><path class="cls-483" d="M136.31,250c-3,1.71-5.74-3.1-2.77-4.81L309.6,143.57c3-1.74,5.78,3.07,2.78,4.81Z"/><path class="cls-484" d="M136.31,250c-3,1.71-5.74-3.09-2.77-4.8L309.6,143.57c3-1.73,5.77,3.07,2.77,4.8Z"/><path class="cls-485" d="M136.31,250c-3,1.71-5.73-3.09-2.77-4.8L309.6,143.57c3-1.72,5.76,3.07,2.77,4.8Z"/><path class="cls-486" d="M136.31,250c-3,1.71-5.72-3.07-2.77-4.78L309.61,143.58c3-1.73,5.75,3.06,2.76,4.78Z"/><path class="cls-487" d="M136.3,250c-3,1.7-5.71-3.07-2.75-4.78L309.61,143.58c3-1.72,5.74,3.06,2.76,4.78Z"/><path class="cls-488" d="M136.3,250c-3,1.7-5.7-3.07-2.75-4.77L309.61,143.59c3-1.72,5.73,3,2.75,4.77Z"/><path class="cls-489" d="M136.3,250c-2.94,1.7-5.69-3.06-2.75-4.76L309.61,143.59c3-1.71,5.72,3,2.75,4.76Z"/><path class="cls-490" d="M136.3,250c-2.94,1.69-5.68-3.06-2.75-4.75L309.62,143.6c3-1.72,5.7,3,2.74,4.75Z"/><path class="cls-491" d="M136.29,250c-2.93,1.7-5.67-3.05-2.73-4.74L309.62,143.6c3-1.71,5.7,3,2.74,4.74Z"/><path class="cls-492" d="M136.29,250c-2.93,1.69-5.66-3-2.73-4.74L309.62,143.6c3-1.7,5.69,3,2.73,4.74Z"/><path class="cls-493" d="M136.29,250c-2.92,1.69-5.65-3-2.73-4.72L309.62,143.61c2.95-1.7,5.68,3,2.73,4.72Z"/><path class="cls-494" d="M136.29,250c-2.92,1.68-5.65-3-2.73-4.72L309.63,143.61c2.94-1.7,5.66,3,2.72,4.72Z"/><path class="cls-495" d="M136.28,250c-2.91,1.69-5.63-3-2.71-4.7L309.63,143.62c2.94-1.7,5.66,3,2.72,4.7Z"/><path class="cls-496" d="M136.28,250c-2.91,1.68-5.62-3-2.71-4.7L309.63,143.62c2.94-1.69,5.65,3,2.71,4.7Z"/><path class="cls-497" d="M136.28,250c-2.91,1.67-5.61-3-2.71-4.69L309.63,143.63c2.93-1.69,5.64,3,2.71,4.69Z"/><path class="cls-498" d="M136.28,250c-2.9,1.68-5.61-3-2.71-4.68L309.64,143.63c2.92-1.69,5.62,3,2.7,4.68Z"/><path class="cls-499" d="M136.27,250c-2.89,1.67-5.59-3-2.69-4.68L309.64,143.64c2.92-1.69,5.62,3,2.7,4.67Z"/><path class="cls-500" d="M136.27,250c-2.89,1.67-5.58-3-2.69-4.66L309.64,143.64c2.92-1.68,5.61,3,2.69,4.66Z"/><path class="cls-501" d="M136.27,250c-2.89,1.67-5.58-3-2.69-4.66L309.64,143.64c2.91-1.67,5.6,3,2.69,4.66Z"/><path class="cls-502" d="M136.27,249.94c-2.89,1.67-5.57-3-2.69-4.64L309.65,143.65c2.9-1.68,5.58,3,2.68,4.64Z"/><path class="cls-503" d="M136.26,249.94c-2.87,1.66-5.55-3-2.67-4.64L309.65,143.65c2.9-1.67,5.57,3,2.68,4.64Z"/><path class="cls-504" d="M136.26,249.94c-2.87,1.66-5.55-3-2.67-4.63L309.65,143.66c2.89-1.67,5.57,3,2.67,4.63Z"/><path class="cls-505" d="M136.26,249.93c-2.87,1.66-5.54-3-2.67-4.62L309.65,143.66c2.89-1.67,5.56,3,2.67,4.62Z"/><path class="cls-506" d="M136.26,249.93c-2.87,1.65-5.53-3-2.67-4.61L309.66,143.67c2.88-1.67,5.54,2.94,2.66,4.61Z"/><path class="cls-507" d="M136.25,249.92c-2.86,1.65-5.51-2.95-2.65-4.6L309.66,143.67c2.88-1.66,5.53,2.94,2.66,4.6Z"/><path class="cls-508" d="M136.25,249.92c-2.85,1.65-5.51-2.95-2.65-4.6L309.66,143.67c2.87-1.65,5.53,2.94,2.65,4.6Z"/><path class="cls-509" d="M136.25,249.91c-2.85,1.65-5.5-2.93-2.65-4.58L309.66,143.68c2.87-1.66,5.52,2.93,2.65,4.58Z"/><path class="cls-510" d="M136.25,249.91c-2.85,1.64-5.49-2.93-2.65-4.58L309.67,143.68c2.86-1.65,5.5,2.93,2.64,4.58Z"/><path class="cls-511" d="M136.24,249.9c-2.84,1.65-5.48-2.92-2.63-4.56L309.67,143.69c2.86-1.65,5.49,2.92,2.64,4.56Z"/><path class="cls-512" d="M136.24,249.9c-2.84,1.64-5.47-2.92-2.63-4.56L309.67,143.69c2.85-1.64,5.49,2.91,2.63,4.56Z"/><path class="cls-513" d="M136.24,249.9c-2.83,1.63-5.46-2.92-2.63-4.55L309.67,143.7c2.85-1.65,5.48,2.9,2.63,4.55Z"/><path class="cls-514" d="M136.24,249.89c-2.83,1.64-5.45-2.91-2.63-4.54L309.68,143.7c2.84-1.64,5.46,2.9,2.62,4.54Z"/></g></g></g></g></svg>